<svg width="864" height="765" viewBox="0 0 864 765" fill="none" xmlns="http://www.w3.org/2000/svg">
<path d="M865.1 7H858.1V0H857V7H850V8H857V15H858.1V8H865.1V7Z" fill="#FF4AA9" fill-opacity="0.15"/>
<path d="M865.1 57H858.1V50H857V57H850V58H857V65H858.1V58H865.1V57Z" fill="#FF4AA9" fill-opacity="0.15"/>
<path d="M865.1 107H858.1V100H857V107H850V108H857V115H858.1V108H865.1V107Z" fill="#FF4AA9" fill-opacity="0.15"/>
<path d="M865.1 157H858.1V150H857V157H850V158H857V165H858.1V158H865.1V157Z" fill="#FF4AA9" fill-opacity="0.15"/>
<path d="M865.1 207H858.1V200H857V207H850V208H857V215H858.1V208H865.1V207Z" fill="#FF4AA9" fill-opacity="0.15"/>
<path d="M865.1 257H858.1V250H857V257H850V258H857V265H858.1V258H865.1V257Z" fill="#FF4AA9" fill-opacity="0.15"/>
<path d="M865.1 307H858.1V300H857V307H850V308H857V315H858.1V308H865.1V307Z" fill="#FF4AA9" fill-opacity="0.15"/>
<path d="M865.1 357H858.1V350H857V357H850V358H857V365H858.1V358H865.1V357Z" fill="#FF4AA9" fill-opacity="0.15"/>
<path d="M865.1 407H858.1V400H857V407H850V408H857V415H858.1V408H865.1V407Z" fill="#FF4AA9" fill-opacity="0.15"/>
<path d="M865.1 457H858.1V450H857V457H850V458H857V465H858.1V458H865.1V457Z" fill="#FF4AA9" fill-opacity="0.15"/>
<path d="M865.1 507H858.1V500H857V507H850V508H857V515H858.1V508H865.1V507Z" fill="#FF4AA9" fill-opacity="0.15"/>
<path d="M865.1 557H858.1V550H857V557H850V558H857V565H858.1V558H865.1V557Z" fill="#FF4AA9" fill-opacity="0.15"/>
<path d="M865.1 607H858.1V600H857V607H850V608H857V615H858.1V608H865.1V607Z" fill="#FF4AA9" fill-opacity="0.15"/>
<path d="M865.1 657H858.1V650H857V657H850V658H857V665H858.1V658H865.1V657Z" fill="#FF4AA9" fill-opacity="0.15"/>
<path d="M865.1 707H858.1V700H857V707H850V708H857V715H858.1V708H865.1V707Z" fill="#FF4AA9" fill-opacity="0.15"/>
<path d="M865.1 757H858.1V750H857V757H850V758H857V765H858.1V758H865.1V757Z" fill="#FF4AA9" fill-opacity="0.15"/>
<path d="M815.1 7H808.1V0H807V7H800V8H807V15H808.1V8H815.1V7Z" fill="#FF4AA9" fill-opacity="0.15"/>
<path d="M815.1 57H808.1V50H807V57H800V58H807V65H808.1V58H815.1V57Z" fill="#FF4AA9" fill-opacity="0.15"/>
<path d="M815.1 107H808.1V100H807V107H800V108H807V115H808.1V108H815.1V107Z" fill="#FF4AA9" fill-opacity="0.15"/>
<path d="M815.1 157H808.1V150H807V157H800V158H807V165H808.1V158H815.1V157Z" fill="#FF4AA9" fill-opacity="0.15"/>
<path d="M815.1 207H808.1V200H807V207H800V208H807V215H808.1V208H815.1V207Z" fill="#FF4AA9" fill-opacity="0.15"/>
<path d="M815.1 257H808.1V250H807V257H800V258H807V265H808.1V258H815.1V257Z" fill="#FF4AA9" fill-opacity="0.15"/>
<path d="M815.1 307H808.1V300H807V307H800V308H807V315H808.1V308H815.1V307Z" fill="#FF4AA9" fill-opacity="0.15"/>
<path d="M815.1 357H808.1V350H807V357H800V358H807V365H808.1V358H815.1V357Z" fill="#FF4AA9" fill-opacity="0.15"/>
<path d="M815.1 407H808.1V400H807V407H800V408H807V415H808.1V408H815.1V407Z" fill="#FF4AA9" fill-opacity="0.15"/>
<path d="M815.1 457H808.1V450H807V457H800V458H807V465H808.1V458H815.1V457Z" fill="#FF4AA9" fill-opacity="0.15"/>
<path d="M815.1 507H808.1V500H807V507H800V508H807V515H808.1V508H815.1V507Z" fill="#FF4AA9" fill-opacity="0.15"/>
<path d="M815.1 557H808.1V550H807V557H800V558H807V565H808.1V558H815.1V557Z" fill="#FF4AA9" fill-opacity="0.15"/>
<path d="M815.1 607H808.1V600H807V607H800V608H807V615H808.1V608H815.1V607Z" fill="#FF4AA9" fill-opacity="0.15"/>
<path d="M815.1 657H808.1V650H807V657H800V658H807V665H808.1V658H815.1V657Z" fill="#FF4AA9" fill-opacity="0.15"/>
<path d="M815.1 707H808.1V700H807V707H800V708H807V715H808.1V708H815.1V707Z" fill="#FF4AA9" fill-opacity="0.15"/>
<path d="M815.1 757H808.1V750H807V757H800V758H807V765H808.1V758H815.1V757Z" fill="#FF4AA9" fill-opacity="0.15"/>
<path d="M765.1 7H758.1V0H757V7H750V8H757V15H758.1V8H765.1V7Z" fill="#FF4AA9" fill-opacity="0.15"/>
<path d="M765.1 57H758.1V50H757V57H750V58H757V65H758.1V58H765.1V57Z" fill="#FF4AA9" fill-opacity="0.15"/>
<path d="M765.1 107H758.1V100H757V107H750V108H757V115H758.1V108H765.1V107Z" fill="#FF4AA9" fill-opacity="0.15"/>
<path d="M765.1 157H758.1V150H757V157H750V158H757V165H758.1V158H765.1V157Z" fill="#FF4AA9" fill-opacity="0.15"/>
<path d="M765.1 207H758.1V200H757V207H750V208H757V215H758.1V208H765.1V207Z" fill="#FF4AA9" fill-opacity="0.15"/>
<path d="M765.1 257H758.1V250H757V257H750V258H757V265H758.1V258H765.1V257Z" fill="#FF4AA9" fill-opacity="0.15"/>
<path d="M765.1 307H758.1V300H757V307H750V308H757V315H758.1V308H765.1V307Z" fill="#FF4AA9" fill-opacity="0.15"/>
<path d="M765.1 357H758.1V350H757V357H750V358H757V365H758.1V358H765.1V357Z" fill="#FF4AA9" fill-opacity="0.15"/>
<path d="M765.1 407H758.1V400H757V407H750V408H757V415H758.1V408H765.1V407Z" fill="#FF4AA9" fill-opacity="0.15"/>
<path d="M765.1 457H758.1V450H757V457H750V458H757V465H758.1V458H765.1V457Z" fill="#FF4AA9" fill-opacity="0.15"/>
<path d="M765.1 507H758.1V500H757V507H750V508H757V515H758.1V508H765.1V507Z" fill="#FF4AA9" fill-opacity="0.15"/>
<path d="M765.1 557H758.1V550H757V557H750V558H757V565H758.1V558H765.1V557Z" fill="#FF4AA9" fill-opacity="0.15"/>
<path d="M765.1 607H758.1V600H757V607H750V608H757V615H758.1V608H765.1V607Z" fill="#FF4AA9" fill-opacity="0.15"/>
<path d="M765.1 657H758.1V650H757V657H750V658H757V665H758.1V658H765.1V657Z" fill="#FF4AA9" fill-opacity="0.15"/>
<path d="M765.1 707H758.1V700H757V707H750V708H757V715H758.1V708H765.1V707Z" fill="#FF4AA9" fill-opacity="0.15"/>
<path d="M765.1 757H758.1V750H757V757H750V758H757V765H758.1V758H765.1V757Z" fill="#FF4AA9" fill-opacity="0.15"/>
<path d="M715.1 7H708.1V0H707V7H700V8H707V15H708.1V8H715.1V7Z" fill="#FF4AA9" fill-opacity="0.15"/>
<path d="M715.1 57H708.1V50H707V57H700V58H707V65H708.1V58H715.1V57Z" fill="#FF4AA9" fill-opacity="0.15"/>
<path d="M715.1 107H708.1V100H707V107H700V108H707V115H708.1V108H715.1V107Z" fill="#FF4AA9" fill-opacity="0.15"/>
<path d="M715.1 157H708.1V150H707V157H700V158H707V165H708.1V158H715.1V157Z" fill="#FF4AA9" fill-opacity="0.15"/>
<path d="M715.1 207H708.1V200H707V207H700V208H707V215H708.1V208H715.1V207Z" fill="#FF4AA9" fill-opacity="0.15"/>
<path d="M715.1 257H708.1V250H707V257H700V258H707V265H708.1V258H715.1V257Z" fill="#FF4AA9" fill-opacity="0.15"/>
<path d="M715.1 307H708.1V300H707V307H700V308H707V315H708.1V308H715.1V307Z" fill="#FF4AA9" fill-opacity="0.15"/>
<path d="M715.1 357H708.1V350H707V357H700V358H707V365H708.1V358H715.1V357Z" fill="#FF4AA9" fill-opacity="0.15"/>
<path d="M715.1 407H708.1V400H707V407H700V408H707V415H708.1V408H715.1V407Z" fill="#FF4AA9" fill-opacity="0.15"/>
<path d="M715.1 457H708.1V450H707V457H700V458H707V465H708.1V458H715.1V457Z" fill="#FF4AA9" fill-opacity="0.15"/>
<path d="M715.1 507H708.1V500H707V507H700V508H707V515H708.1V508H715.1V507Z" fill="#FF4AA9" fill-opacity="0.15"/>
<path d="M715.1 557H708.1V550H707V557H700V558H707V565H708.1V558H715.1V557Z" fill="#FF4AA9" fill-opacity="0.15"/>
<path d="M715.1 607H708.1V600H707V607H700V608H707V615H708.1V608H715.1V607Z" fill="#FF4AA9" fill-opacity="0.15"/>
<path d="M715.1 657H708.1V650H707V657H700V658H707V665H708.1V658H715.1V657Z" fill="#FF4AA9" fill-opacity="0.15"/>
<path d="M715.1 707H708.1V700H707V707H700V708H707V715H708.1V708H715.1V707Z" fill="#FF4AA9" fill-opacity="0.15"/>
<path d="M715.1 757H708.1V750H707V757H700V758H707V765H708.1V758H715.1V757Z" fill="#FF4AA9" fill-opacity="0.15"/>
<path d="M665.1 7H658.1V0H657V7H650V8H657V15H658.1V8H665.1V7Z" fill="#FF4AA9" fill-opacity="0.15"/>
<path d="M665.1 57H658.1V50H657V57H650V58H657V65H658.1V58H665.1V57Z" fill="#FF4AA9" fill-opacity="0.15"/>
<path d="M665.1 107H658.1V100H657V107H650V108H657V115H658.1V108H665.1V107Z" fill="#FF4AA9" fill-opacity="0.15"/>
<path d="M665.1 157H658.1V150H657V157H650V158H657V165H658.1V158H665.1V157Z" fill="#FF4AA9" fill-opacity="0.15"/>
<path d="M665.1 207H658.1V200H657V207H650V208H657V215H658.1V208H665.1V207Z" fill="#FF4AA9" fill-opacity="0.15"/>
<path d="M665.1 257H658.1V250H657V257H650V258H657V265H658.1V258H665.1V257Z" fill="#FF4AA9" fill-opacity="0.15"/>
<path d="M665.1 307H658.1V300H657V307H650V308H657V315H658.1V308H665.1V307Z" fill="#FF4AA9" fill-opacity="0.15"/>
<path d="M665.1 357H658.1V350H657V357H650V358H657V365H658.1V358H665.1V357Z" fill="#FF4AA9" fill-opacity="0.15"/>
<path d="M665.1 407H658.1V400H657V407H650V408H657V415H658.1V408H665.1V407Z" fill="#FF4AA9" fill-opacity="0.15"/>
<path d="M665.1 457H658.1V450H657V457H650V458H657V465H658.1V458H665.1V457Z" fill="#FF4AA9" fill-opacity="0.15"/>
<path d="M665.1 507H658.1V500H657V507H650V508H657V515H658.1V508H665.1V507Z" fill="#FF4AA9" fill-opacity="0.15"/>
<path d="M665.1 557H658.1V550H657V557H650V558H657V565H658.1V558H665.1V557Z" fill="#FF4AA9" fill-opacity="0.15"/>
<path d="M665.1 607H658.1V600H657V607H650V608H657V615H658.1V608H665.1V607Z" fill="#FF4AA9" fill-opacity="0.15"/>
<path d="M665.1 657H658.1V650H657V657H650V658H657V665H658.1V658H665.1V657Z" fill="#FF4AA9" fill-opacity="0.15"/>
<path d="M665.1 707H658.1V700H657V707H650V708H657V715H658.1V708H665.1V707Z" fill="#FF4AA9" fill-opacity="0.15"/>
<path d="M665.1 757H658.1V750H657V757H650V758H657V765H658.1V758H665.1V757Z" fill="#FF4AA9" fill-opacity="0.15"/>
<path d="M615.1 7H608.1V0H607V7H600V8H607V15H608.1V8H615.1V7Z" fill="#FF4AA9" fill-opacity="0.15"/>
<path d="M615.1 57H608.1V50H607V57H600V58H607V65H608.1V58H615.1V57Z" fill="#FF4AA9" fill-opacity="0.15"/>
<path d="M615.1 107H608.1V100H607V107H600V108H607V115H608.1V108H615.1V107Z" fill="#FF4AA9" fill-opacity="0.15"/>
<path d="M615.1 157H608.1V150H607V157H600V158H607V165H608.1V158H615.1V157Z" fill="#FF4AA9" fill-opacity="0.15"/>
<path d="M615.1 207H608.1V200H607V207H600V208H607V215H608.1V208H615.1V207Z" fill="#FF4AA9" fill-opacity="0.15"/>
<path d="M615.1 257H608.1V250H607V257H600V258H607V265H608.1V258H615.1V257Z" fill="#FF4AA9" fill-opacity="0.15"/>
<path d="M615.1 307H608.1V300H607V307H600V308H607V315H608.1V308H615.1V307Z" fill="#FF4AA9" fill-opacity="0.15"/>
<path d="M615.1 357H608.1V350H607V357H600V358H607V365H608.1V358H615.1V357Z" fill="#FF4AA9" fill-opacity="0.15"/>
<path d="M615.1 407H608.1V400H607V407H600V408H607V415H608.1V408H615.1V407Z" fill="#FF4AA9" fill-opacity="0.15"/>
<path d="M615.1 457H608.1V450H607V457H600V458H607V465H608.1V458H615.1V457Z" fill="#FF4AA9" fill-opacity="0.15"/>
<path d="M615.1 507H608.1V500H607V507H600V508H607V515H608.1V508H615.1V507Z" fill="#FF4AA9" fill-opacity="0.15"/>
<path d="M615.1 557H608.1V550H607V557H600V558H607V565H608.1V558H615.1V557Z" fill="#FF4AA9" fill-opacity="0.15"/>
<path d="M615.1 607H608.1V600H607V607H600V608H607V615H608.1V608H615.1V607Z" fill="#FF4AA9" fill-opacity="0.15"/>
<path d="M615.1 657H608.1V650H607V657H600V658H607V665H608.1V658H615.1V657Z" fill="#FF4AA9" fill-opacity="0.15"/>
<path d="M615.1 707H608.1V700H607V707H600V708H607V715H608.1V708H615.1V707Z" fill="#FF4AA9" fill-opacity="0.15"/>
<path d="M615.1 757H608.1V750H607V757H600V758H607V765H608.1V758H615.1V757Z" fill="#FF4AA9" fill-opacity="0.15"/>
<path d="M565.1 7H558.1V0H557V7H550V8H557V15H558.1V8H565.1V7Z" fill="#FF4AA9" fill-opacity="0.15"/>
<path d="M565.1 57H558.1V50H557V57H550V58H557V65H558.1V58H565.1V57Z" fill="#FF4AA9" fill-opacity="0.15"/>
<path d="M565.1 107H558.1V100H557V107H550V108H557V115H558.1V108H565.1V107Z" fill="#FF4AA9" fill-opacity="0.15"/>
<path d="M565.1 157H558.1V150H557V157H550V158H557V165H558.1V158H565.1V157Z" fill="#FF4AA9" fill-opacity="0.15"/>
<path d="M565.1 207H558.1V200H557V207H550V208H557V215H558.1V208H565.1V207Z" fill="#FF4AA9" fill-opacity="0.15"/>
<path d="M565.1 257H558.1V250H557V257H550V258H557V265H558.1V258H565.1V257Z" fill="#FF4AA9" fill-opacity="0.15"/>
<path d="M565.1 307H558.1V300H557V307H550V308H557V315H558.1V308H565.1V307Z" fill="#FF4AA9" fill-opacity="0.15"/>
<path d="M565.1 357H558.1V350H557V357H550V358H557V365H558.1V358H565.1V357Z" fill="#FF4AA9" fill-opacity="0.15"/>
<path d="M565.1 407H558.1V400H557V407H550V408H557V415H558.1V408H565.1V407Z" fill="#FF4AA9" fill-opacity="0.15"/>
<path d="M565.1 457H558.1V450H557V457H550V458H557V465H558.1V458H565.1V457Z" fill="#FF4AA9" fill-opacity="0.15"/>
<path d="M565.1 507H558.1V500H557V507H550V508H557V515H558.1V508H565.1V507Z" fill="#FF4AA9" fill-opacity="0.15"/>
<path d="M565.1 557H558.1V550H557V557H550V558H557V565H558.1V558H565.1V557Z" fill="#FF4AA9" fill-opacity="0.15"/>
<path d="M565.1 607H558.1V600H557V607H550V608H557V615H558.1V608H565.1V607Z" fill="#FF4AA9" fill-opacity="0.15"/>
<path d="M565.1 657H558.1V650H557V657H550V658H557V665H558.1V658H565.1V657Z" fill="#FF4AA9" fill-opacity="0.15"/>
<path d="M565.1 707H558.1V700H557V707H550V708H557V715H558.1V708H565.1V707Z" fill="#FF4AA9" fill-opacity="0.15"/>
<path d="M565.1 757H558.1V750H557V757H550V758H557V765H558.1V758H565.1V757Z" fill="#FF4AA9" fill-opacity="0.15"/>
<path d="M515.1 7H508.1V0H507V7H500V8H507V15H508.1V8H515.1V7Z" fill="#FF4AA9" fill-opacity="0.15"/>
<path d="M515.1 57H508.1V50H507V57H500V58H507V65H508.1V58H515.1V57Z" fill="#FF4AA9" fill-opacity="0.15"/>
<path d="M515.1 107H508.1V100H507V107H500V108H507V115H508.1V108H515.1V107Z" fill="#FF4AA9" fill-opacity="0.15"/>
<path d="M515.1 157H508.1V150H507V157H500V158H507V165H508.1V158H515.1V157Z" fill="#FF4AA9" fill-opacity="0.15"/>
<path d="M515.1 207H508.1V200H507V207H500V208H507V215H508.1V208H515.1V207Z" fill="#FF4AA9" fill-opacity="0.15"/>
<path d="M515.1 257H508.1V250H507V257H500V258H507V265H508.1V258H515.1V257Z" fill="#FF4AA9" fill-opacity="0.15"/>
<path d="M513.242 312.485L508.293 307.535L513.242 302.586L512.464 301.808L507.515 306.757L502.565 301.808L501.858 302.515L506.808 307.465L501.858 312.414L502.636 313.192L507.585 308.242L512.535 313.192L513.242 312.485Z" fill="#FF4AA9" fill-opacity="0.15"/>
<path d="M515.1 357H508.1V350H507V357H500V358H507V365H508.1V358H515.1V357Z" fill="#FF4AA9" fill-opacity="0.15"/>
<path d="M515.1 407H508.1V400H507V407H500V408H507V415H508.1V408H515.1V407Z" fill="#FF4AA9" fill-opacity="0.15"/>
<path d="M515.1 457H508.1V450H507V457H500V458H507V465H508.1V458H515.1V457Z" fill="#FF4AA9" fill-opacity="0.15"/>
<path d="M515.1 507H508.1V500H507V507H500V508H507V515H508.1V508H515.1V507Z" fill="#FF4AA9" fill-opacity="0.15"/>
<path d="M515.1 557H508.1V550H507V557H500V558H507V565H508.1V558H515.1V557Z" fill="#FF4AA9" fill-opacity="0.15"/>
<path d="M515.1 607H508.1V600H507V607H500V608H507V615H508.1V608H515.1V607Z" fill="#FF4AA9" fill-opacity="0.15"/>
<path d="M515.1 657H508.1V650H507V657H500V658H507V665H508.1V658H515.1V657Z" fill="#FF4AA9" fill-opacity="0.15"/>
<path d="M515.1 707H508.1V700H507V707H500V708H507V715H508.1V708H515.1V707Z" fill="#FF4AA9" fill-opacity="0.15"/>
<path d="M515.1 757H508.1V750H507V757H500V758H507V765H508.1V758H515.1V757Z" fill="#FF4AA9" fill-opacity="0.15"/>
<path d="M465.1 7H458.1V0H457V7H450V8H457V15H458.1V8H465.1V7Z" fill="#FF4AA9" fill-opacity="0.15"/>
<path d="M465.1 57H458.1V50H457V57H450V58H457V65H458.1V58H465.1V57Z" fill="#FF4AA9" fill-opacity="0.15"/>
<path d="M465.1 107H458.1V100H457V107H450V108H457V115H458.1V108H465.1V107Z" fill="#FF4AA9" fill-opacity="0.15"/>
<path d="M465.1 157H458.1V150H457V157H450V158H457V165H458.1V158H465.1V157Z" fill="#FF4AA9" fill-opacity="0.15"/>
<path d="M465.1 207H458.1V200H457V207H450V208H457V215H458.1V208H465.1V207Z" fill="#FF4AA9" fill-opacity="0.15"/>
<path d="M465.1 257H458.1V250H457V257H450V258H457V265H458.1V258H465.1V257Z" fill="#FF4AA9" fill-opacity="0.15"/>
<path d="M462.535 301.808L457.586 306.757L452.636 301.808L451.858 302.585L456.808 307.535L451.858 312.485L452.565 313.192L457.515 308.242L462.465 313.192L463.242 312.414L458.293 307.464L463.242 302.515L462.535 301.808Z" fill="#FF4AA9" fill-opacity="0.15"/>
<path d="M465.1 357H458.1V350H457V357H450V358H457V365H458.1V358H465.1V357Z" fill="#FF4AA9" fill-opacity="0.15"/>
<path d="M465.1 407H458.1V400H457V407H450V408H457V415H458.1V408H465.1V407Z" fill="#FF4AA9" fill-opacity="0.15"/>
<path d="M465.1 457H458.1V450H457V457H450V458H457V465H458.1V458H465.1V457Z" fill="#FF4AA9" fill-opacity="0.15"/>
<path d="M465.1 507H458.1V500H457V507H450V508H457V515H458.1V508H465.1V507Z" fill="#FF4AA9" fill-opacity="0.15"/>
<path d="M465.1 557H458.1V550H457V557H450V558H457V565H458.1V558H465.1V557Z" fill="#FF4AA9" fill-opacity="0.15"/>
<path d="M465.1 607H458.1V600H457V607H450V608H457V615H458.1V608H465.1V607Z" fill="#FF4AA9" fill-opacity="0.15"/>
<path d="M465.1 657H458.1V650H457V657H450V658H457V665H458.1V658H465.1V657Z" fill="#FF4AA9" fill-opacity="0.15"/>
<path d="M465.1 707H458.1V700H457V707H450V708H457V715H458.1V708H465.1V707Z" fill="#FF4AA9" fill-opacity="0.15"/>
<path d="M465.1 757H458.1V750H457V757H450V758H457V765H458.1V758H465.1V757Z" fill="#FF4AA9" fill-opacity="0.15"/>
<path d="M415.1 7H408.1V0H407V7H400V8H407V15H408.1V8H415.1V7Z" fill="#FF4AA9" fill-opacity="0.15"/>
<path d="M415.1 57H408.1V50H407V57H400V58H407V65H408.1V58H415.1V57Z" fill="#FF4AA9" fill-opacity="0.15"/>
<path d="M415.1 107H408.1V100H407V107H400V108H407V115H408.1V108H415.1V107Z" fill="#FF4AA9" fill-opacity="0.15"/>
<path d="M415.1 157H408.1V150H407V157H400V158H407V165H408.1V158H415.1V157Z" fill="#FF4AA9" fill-opacity="0.15"/>
<path d="M415.1 207H408.1V200H407V207H400V208H407V215H408.1V208H415.1V207Z" fill="#FF4AA9" fill-opacity="0.15"/>
<path d="M415.1 257H408.1V250H407V257H400V258H407V265H408.1V258H415.1V257Z" fill="#FF4AA9" fill-opacity="0.15"/>
<path d="M413.242 312.485L408.293 307.535L413.242 302.586L412.464 301.808L407.515 306.757L402.565 301.808L401.858 302.515L406.808 307.465L401.858 312.414L402.636 313.192L407.585 308.242L412.535 313.192L413.242 312.485Z" fill="#FF4AA9" fill-opacity="0.15"/>
<path d="M415.1 357H408.1V350H407V357H400V358H407V365H408.1V358H415.1V357Z" fill="#FF4AA9" fill-opacity="0.15"/>
<path d="M415.1 407H408.1V400H407V407H400V408H407V415H408.1V408H415.1V407Z" fill="#FF4AA9" fill-opacity="0.15"/>
<path d="M415.1 457H408.1V450H407V457H400V458H407V465H408.1V458H415.1V457Z" fill="#FF4AA9" fill-opacity="0.15"/>
<path d="M415.1 507H408.1V500H407V507H400V508H407V515H408.1V508H415.1V507Z" fill="#FF4AA9" fill-opacity="0.15"/>
<path d="M415.1 557H408.1V550H407V557H400V558H407V565H408.1V558H415.1V557Z" fill="#FF4AA9" fill-opacity="0.15"/>
<path d="M415.1 607H408.1V600H407V607H400V608H407V615H408.1V608H415.1V607Z" fill="#FF4AA9" fill-opacity="0.15"/>
<path d="M415.1 657H408.1V650H407V657H400V658H407V665H408.1V658H415.1V657Z" fill="#FF4AA9" fill-opacity="0.15"/>
<path d="M415.1 707H408.1V700H407V707H400V708H407V715H408.1V708H415.1V707Z" fill="#FF4AA9" fill-opacity="0.15"/>
<path d="M415.1 757H408.1V750H407V757H400V758H407V765H408.1V758H415.1V757Z" fill="#FF4AA9" fill-opacity="0.15"/>
<path d="M365.1 7H358.1V0H357V7H350V8H357V15H358.1V8H365.1V7Z" fill="#FF4AA9" fill-opacity="0.15"/>
<path d="M365.1 57H358.1V50H357V57H350V58H357V65H358.1V58H365.1V57Z" fill="#FF4AA9" fill-opacity="0.15"/>
<path d="M365.1 107H358.1V100H357V107H350V108H357V115H358.1V108H365.1V107Z" fill="#FF4AA9" fill-opacity="0.15"/>
<path d="M365.1 157H358.1V150H357V157H350V158H357V165H358.1V158H365.1V157Z" fill="#FF4AA9" fill-opacity="0.15"/>
<path d="M365.1 207H358.1V200H357V207H350V208H357V215H358.1V208H365.1V207Z" fill="#FF4AA9" fill-opacity="0.15"/>
<path d="M365.1 257H358.1V250H357V257H350V258H357V265H358.1V258H365.1V257Z" fill="#FF4AA9" fill-opacity="0.15"/>
<path d="M365.1 307H358.1V300H357V307H350V308H357V315H358.1V308H365.1V307Z" fill="#FF4AA9" fill-opacity="0.15"/>
<path d="M365.1 357H358.1V350H357V357H350V358H357V365H358.1V358H365.1V357Z" fill="#FF4AA9" fill-opacity="0.15"/>
<path d="M365.1 407H358.1V400H357V407H350V408H357V415H358.1V408H365.1V407Z" fill="#FF4AA9" fill-opacity="0.15"/>
<path d="M365.1 457H358.1V450H357V457H350V458H357V465H358.1V458H365.1V457Z" fill="#FF4AA9" fill-opacity="0.15"/>
<path d="M365.1 507H358.1V500H357V507H350V508H357V515H358.1V508H365.1V507Z" fill="#FF4AA9" fill-opacity="0.15"/>
<path d="M365.1 557H358.1V550H357V557H350V558H357V565H358.1V558H365.1V557Z" fill="#FF4AA9" fill-opacity="0.15"/>
<path d="M365.1 607H358.1V600H357V607H350V608H357V615H358.1V608H365.1V607Z" fill="#FF4AA9" fill-opacity="0.15"/>
<path d="M365.1 657H358.1V650H357V657H350V658H357V665H358.1V658H365.1V657Z" fill="#FF4AA9" fill-opacity="0.15"/>
<path d="M365.1 707H358.1V700H357V707H350V708H357V715H358.1V708H365.1V707Z" fill="#FF4AA9" fill-opacity="0.15"/>
<path d="M365.1 757H358.1V750H357V757H350V758H357V765H358.1V758H365.1V757Z" fill="#FF4AA9" fill-opacity="0.15"/>
<path d="M315.1 7H308.1V0H307V7H300V8H307V15H308.1V8H315.1V7Z" fill="#FF4AA9" fill-opacity="0.15"/>
<path d="M315.1 57H308.1V50H307V57H300V58H307V65H308.1V58H315.1V57Z" fill="#FF4AA9" fill-opacity="0.15"/>
<path d="M315.1 107H308.1V100H307V107H300V108H307V115H308.1V108H315.1V107Z" fill="#FF4AA9" fill-opacity="0.15"/>
<path d="M315.1 157H308.1V150H307V157H300V158H307V165H308.1V158H315.1V157Z" fill="#FF4AA9" fill-opacity="0.15"/>
<path d="M315.1 207H308.1V200H307V207H300V208H307V215H308.1V208H315.1V207Z" fill="#FF4AA9" fill-opacity="0.15"/>
<path d="M315.1 257H308.1V250H307V257H300V258H307V265H308.1V258H315.1V257Z" fill="#FF4AA9" fill-opacity="0.15"/>
<path d="M315.1 307H308.1V300H307V307H300V308H307V315H308.1V308H315.1V307Z" fill="#FF4AA9" fill-opacity="0.15"/>
<path d="M315.1 357H308.1V350H307V357H300V358H307V365H308.1V358H315.1V357Z" fill="#FF4AA9" fill-opacity="0.15"/>
<path d="M315.1 407H308.1V400H307V407H300V408H307V415H308.1V408H315.1V407Z" fill="#FF4AA9" fill-opacity="0.15"/>
<path d="M315.1 457H308.1V450H307V457H300V458H307V465H308.1V458H315.1V457Z" fill="#FF4AA9" fill-opacity="0.15"/>
<path d="M315.1 507H308.1V500H307V507H300V508H307V515H308.1V508H315.1V507Z" fill="#FF4AA9" fill-opacity="0.15"/>
<path d="M315.1 557H308.1V550H307V557H300V558H307V565H308.1V558H315.1V557Z" fill="#FF4AA9" fill-opacity="0.15"/>
<path d="M315.1 607H308.1V600H307V607H300V608H307V615H308.1V608H315.1V607Z" fill="#FF4AA9" fill-opacity="0.15"/>
<path d="M315.1 657H308.1V650H307V657H300V658H307V665H308.1V658H315.1V657Z" fill="#FF4AA9" fill-opacity="0.15"/>
<path d="M315.1 707H308.1V700H307V707H300V708H307V715H308.1V708H315.1V707Z" fill="#FF4AA9" fill-opacity="0.15"/>
<path d="M315.1 757H308.1V750H307V757H300V758H307V765H308.1V758H315.1V757Z" fill="#FF4AA9" fill-opacity="0.15"/>
<path d="M265.1 7H258.1V0H257V7H250V8H257V15H258.1V8H265.1V7Z" fill="#FF4AA9" fill-opacity="0.15"/>
<path d="M265.1 57H258.1V50H257V57H250V58H257V65H258.1V58H265.1V57Z" fill="#FF4AA9" fill-opacity="0.15"/>
<path d="M265.1 107H258.1V100H257V107H250V108H257V115H258.1V108H265.1V107Z" fill="#FF4AA9" fill-opacity="0.15"/>
<path d="M265.1 157H258.1V150H257V157H250V158H257V165H258.1V158H265.1V157Z" fill="#FF4AA9" fill-opacity="0.15"/>
<path d="M265.1 207H258.1V200H257V207H250V208H257V215H258.1V208H265.1V207Z" fill="#FF4AA9" fill-opacity="0.15"/>
<path d="M265.1 257H258.1V250H257V257H250V258H257V265H258.1V258H265.1V257Z" fill="#FF4AA9" fill-opacity="0.15"/>
<path d="M265.1 307H258.1V300H257V307H250V308H257V315H258.1V308H265.1V307Z" fill="#FF4AA9" fill-opacity="0.15"/>
<path d="M265.1 357H258.1V350H257V357H250V358H257V365H258.1V358H265.1V357Z" fill="#FF4AA9" fill-opacity="0.15"/>
<path d="M265.1 407H258.1V400H257V407H250V408H257V415H258.1V408H265.1V407Z" fill="#FF4AA9" fill-opacity="0.15"/>
<path d="M265.1 457H258.1V450H257V457H250V458H257V465H258.1V458H265.1V457Z" fill="#FF4AA9" fill-opacity="0.15"/>
<path d="M265.1 507H258.1V500H257V507H250V508H257V515H258.1V508H265.1V507Z" fill="#FF4AA9" fill-opacity="0.15"/>
<path d="M265.1 557H258.1V550H257V557H250V558H257V565H258.1V558H265.1V557Z" fill="#FF4AA9" fill-opacity="0.15"/>
<path d="M265.1 607H258.1V600H257V607H250V608H257V615H258.1V608H265.1V607Z" fill="#FF4AA9" fill-opacity="0.15"/>
<path d="M265.1 657H258.1V650H257V657H250V658H257V665H258.1V658H265.1V657Z" fill="#FF4AA9" fill-opacity="0.15"/>
<path d="M265.1 707H258.1V700H257V707H250V708H257V715H258.1V708H265.1V707Z" fill="#FF4AA9" fill-opacity="0.15"/>
<path d="M265.1 757H258.1V750H257V757H250V758H257V765H258.1V758H265.1V757Z" fill="#FF4AA9" fill-opacity="0.15"/>
<path d="M215.1 7H208.1V0H207V7H200V8H207V15H208.1V8H215.1V7Z" fill="#FF4AA9" fill-opacity="0.15"/>
<path d="M215.1 57H208.1V50H207V57H200V58H207V65H208.1V58H215.1V57Z" fill="#FF4AA9" fill-opacity="0.15"/>
<path d="M215.1 107H208.1V100H207V107H200V108H207V115H208.1V108H215.1V107Z" fill="#FF4AA9" fill-opacity="0.15"/>
<path d="M215.1 157H208.1V150H207V157H200V158H207V165H208.1V158H215.1V157Z" fill="#FF4AA9" fill-opacity="0.15"/>
<path d="M215.1 207H208.1V200H207V207H200V208H207V215H208.1V208H215.1V207Z" fill="#FF4AA9" fill-opacity="0.15"/>
<path d="M215.1 257H208.1V250H207V257H200V258H207V265H208.1V258H215.1V257Z" fill="#FF4AA9" fill-opacity="0.15"/>
<path d="M215.1 307H208.1V300H207V307H200V308H207V315H208.1V308H215.1V307Z" fill="#FF4AA9" fill-opacity="0.15"/>
<path d="M215.1 357H208.1V350H207V357H200V358H207V365H208.1V358H215.1V357Z" fill="#FF4AA9" fill-opacity="0.15"/>
<path d="M215.1 407H208.1V400H207V407H200V408H207V415H208.1V408H215.1V407Z" fill="#FF4AA9" fill-opacity="0.15"/>
<path d="M215.1 457H208.1V450H207V457H200V458H207V465H208.1V458H215.1V457Z" fill="#FF4AA9" fill-opacity="0.15"/>
<path d="M215.1 507H208.1V500H207V507H200V508H207V515H208.1V508H215.1V507Z" fill="#FF4AA9" fill-opacity="0.15"/>
<path d="M215.1 557H208.1V550H207V557H200V558H207V565H208.1V558H215.1V557Z" fill="#FF4AA9" fill-opacity="0.15"/>
<path d="M215.1 607H208.1V600H207V607H200V608H207V615H208.1V608H215.1V607Z" fill="#FF4AA9" fill-opacity="0.15"/>
<path d="M215.1 657H208.1V650H207V657H200V658H207V665H208.1V658H215.1V657Z" fill="#FF4AA9" fill-opacity="0.15"/>
<path d="M215.1 707H208.1V700H207V707H200V708H207V715H208.1V708H215.1V707Z" fill="#FF4AA9" fill-opacity="0.15"/>
<path d="M215.1 757H208.1V750H207V757H200V758H207V765H208.1V758H215.1V757Z" fill="#FF4AA9" fill-opacity="0.15"/>
<path d="M165.1 7H158.1V0H157V7H150V8H157V15H158.1V8H165.1V7Z" fill="#FF4AA9" fill-opacity="0.15"/>
<path d="M165.1 57H158.1V50H157V57H150V58H157V65H158.1V58H165.1V57Z" fill="#FF4AA9" fill-opacity="0.15"/>
<path d="M165.1 107H158.1V100H157V107H150V108H157V115H158.1V108H165.1V107Z" fill="#FF4AA9" fill-opacity="0.15"/>
<path d="M165.1 157H158.1V150H157V157H150V158H157V165H158.1V158H165.1V157Z" fill="#FF4AA9" fill-opacity="0.15"/>
<path d="M165.1 207H158.1V200H157V207H150V208H157V215H158.1V208H165.1V207Z" fill="#FF4AA9" fill-opacity="0.15"/>
<path d="M165.1 257H158.1V250H157V257H150V258H157V265H158.1V258H165.1V257Z" fill="#FF4AA9" fill-opacity="0.15"/>
<path d="M165.1 307H158.1V300H157V307H150V308H157V315H158.1V308H165.1V307Z" fill="#FF4AA9" fill-opacity="0.15"/>
<path d="M165.1 357H158.1V350H157V357H150V358H157V365H158.1V358H165.1V357Z" fill="#FF4AA9" fill-opacity="0.15"/>
<path d="M165.1 407H158.1V400H157V407H150V408H157V415H158.1V408H165.1V407Z" fill="#FF4AA9" fill-opacity="0.15"/>
<path d="M165.1 457H158.1V450H157V457H150V458H157V465H158.1V458H165.1V457Z" fill="#FF4AA9" fill-opacity="0.15"/>
<path d="M165.1 507H158.1V500H157V507H150V508H157V515H158.1V508H165.1V507Z" fill="#FF4AA9" fill-opacity="0.15"/>
<path d="M165.1 557H158.1V550H157V557H150V558H157V565H158.1V558H165.1V557Z" fill="#FF4AA9" fill-opacity="0.15"/>
<path d="M165.1 607H158.1V600H157V607H150V608H157V615H158.1V608H165.1V607Z" fill="#FF4AA9" fill-opacity="0.15"/>
<path d="M165.1 657H158.1V650H157V657H150V658H157V665H158.1V658H165.1V657Z" fill="#FF4AA9" fill-opacity="0.15"/>
<path d="M165.1 707H158.1V700H157V707H150V708H157V715H158.1V708H165.1V707Z" fill="#FF4AA9" fill-opacity="0.15"/>
<path d="M165.1 757H158.1V750H157V757H150V758H157V765H158.1V758H165.1V757Z" fill="#FF4AA9" fill-opacity="0.15"/>
<path d="M115.1 7H108.1V0H107V7H100V8H107V15H108.1V8H115.1V7Z" fill="#FF4AA9" fill-opacity="0.15"/>
<path d="M115.1 57H108.1V50H107V57H100V58H107V65H108.1V58H115.1V57Z" fill="#FF4AA9" fill-opacity="0.15"/>
<path d="M115.1 107H108.1V100H107V107H100V108H107V115H108.1V108H115.1V107Z" fill="#FF4AA9" fill-opacity="0.15"/>
<path d="M115.1 157H108.1V150H107V157H100V158H107V165H108.1V158H115.1V157Z" fill="#FF4AA9" fill-opacity="0.15"/>
<path d="M115.1 207H108.1V200H107V207H100V208H107V215H108.1V208H115.1V207Z" fill="#FF4AA9" fill-opacity="0.15"/>
<path d="M115.1 257H108.1V250H107V257H100V258H107V265H108.1V258H115.1V257Z" fill="#FF4AA9" fill-opacity="0.15"/>
<path d="M115.1 307H108.1V300H107V307H100V308H107V315H108.1V308H115.1V307Z" fill="#FF4AA9" fill-opacity="0.15"/>
<path d="M115.1 357H108.1V350H107V357H100V358H107V365H108.1V358H115.1V357Z" fill="#FF4AA9" fill-opacity="0.15"/>
<path d="M115.1 407H108.1V400H107V407H100V408H107V415H108.1V408H115.1V407Z" fill="#FF4AA9" fill-opacity="0.15"/>
<path d="M115.1 457H108.1V450H107V457H100V458H107V465H108.1V458H115.1V457Z" fill="#FF4AA9" fill-opacity="0.15"/>
<path d="M115.1 507H108.1V500H107V507H100V508H107V515H108.1V508H115.1V507Z" fill="#FF4AA9" fill-opacity="0.15"/>
<path d="M115.1 557H108.1V550H107V557H100V558H107V565H108.1V558H115.1V557Z" fill="#FF4AA9" fill-opacity="0.15"/>
<path d="M115.1 607H108.1V600H107V607H100V608H107V615H108.1V608H115.1V607Z" fill="#FF4AA9" fill-opacity="0.15"/>
<path d="M115.1 657H108.1V650H107V657H100V658H107V665H108.1V658H115.1V657Z" fill="#FF4AA9" fill-opacity="0.15"/>
<path d="M115.1 707H108.1V700H107V707H100V708H107V715H108.1V708H115.1V707Z" fill="#FF4AA9" fill-opacity="0.15"/>
<path d="M115.1 757H108.1V750H107V757H100V758H107V765H108.1V758H115.1V757Z" fill="#FF4AA9" fill-opacity="0.15"/>
<path d="M65.1001 7H58.1001V0H57V7H50V8H57V15H58.1001V8H65.1001V7Z" fill="#FF4AA9" fill-opacity="0.15"/>
<path d="M65.1001 57H58.1001V50H57V57H50V58H57V65H58.1001V58H65.1001V57Z" fill="#FF4AA9" fill-opacity="0.15"/>
<path d="M65.1001 107H58.1001V100H57V107H50V108H57V115H58.1001V108H65.1001V107Z" fill="#FF4AA9" fill-opacity="0.15"/>
<path d="M65.1001 157H58.1001V150H57V157H50V158H57V165H58.1001V158H65.1001V157Z" fill="#FF4AA9" fill-opacity="0.15"/>
<path d="M65.1001 207H58.1001V200H57V207H50V208H57V215H58.1001V208H65.1001V207Z" fill="#FF4AA9" fill-opacity="0.15"/>
<path d="M65.1001 257H58.1001V250H57V257H50V258H57V265H58.1001V258H65.1001V257Z" fill="#FF4AA9" fill-opacity="0.15"/>
<path d="M65.1001 307H58.1001V300H57V307H50V308H57V315H58.1001V308H65.1001V307Z" fill="#FF4AA9" fill-opacity="0.15"/>
<path d="M65.1001 357H58.1001V350H57V357H50V358H57V365H58.1001V358H65.1001V357Z" fill="#FF4AA9" fill-opacity="0.15"/>
<path d="M65.1001 407H58.1001V400H57V407H50V408H57V415H58.1001V408H65.1001V407Z" fill="#FF4AA9" fill-opacity="0.15"/>
<path d="M65.1001 457H58.1001V450H57V457H50V458H57V465H58.1001V458H65.1001V457Z" fill="#FF4AA9" fill-opacity="0.15"/>
<path d="M65.1001 507H58.1001V500H57V507H50V508H57V515H58.1001V508H65.1001V507Z" fill="#FF4AA9" fill-opacity="0.15"/>
<path d="M65.1001 557H58.1001V550H57V557H50V558H57V565H58.1001V558H65.1001V557Z" fill="#FF4AA9" fill-opacity="0.15"/>
<path d="M65.1001 607H58.1001V600H57V607H50V608H57V615H58.1001V608H65.1001V607Z" fill="#FF4AA9" fill-opacity="0.15"/>
<path d="M65.1001 657H58.1001V650H57V657H50V658H57V665H58.1001V658H65.1001V657Z" fill="#FF4AA9" fill-opacity="0.15"/>
<path d="M65.1001 707H58.1001V700H57V707H50V708H57V715H58.1001V708H65.1001V707Z" fill="#FF4AA9" fill-opacity="0.15"/>
<path d="M65.1001 757H58.1001V750H57V757H50V758H57V765H58.1001V758H65.1001V757Z" fill="#FF4AA9" fill-opacity="0.15"/>
<path d="M15.1001 7H8.1001V0H7V7H0V8H7V15H8.1001V8H15.1001V7Z" fill="#FF4AA9" fill-opacity="0.15"/>
<path d="M15.1001 57H8.1001V50H7V57H0V58H7V65H8.1001V58H15.1001V57Z" fill="#FF4AA9" fill-opacity="0.15"/>
<path d="M15.1001 107H8.1001V100H7V107H0V108H7V115H8.1001V108H15.1001V107Z" fill="#FF4AA9" fill-opacity="0.15"/>
<path d="M15.1001 157H8.1001V150H7V157H0V158H7V165H8.1001V158H15.1001V157Z" fill="#FF4AA9" fill-opacity="0.15"/>
<path d="M15.1001 207H8.1001V200H7V207H0V208H7V215H8.1001V208H15.1001V207Z" fill="#FF4AA9" fill-opacity="0.15"/>
<path d="M15.1001 257H8.1001V250H7V257H0V258H7V265H8.1001V258H15.1001V257Z" fill="#FF4AA9" fill-opacity="0.15"/>
<path d="M15.1001 307H8.1001V300H7V307H0V308H7V315H8.1001V308H15.1001V307Z" fill="#FF4AA9" fill-opacity="0.15"/>
<path d="M15.1001 357H8.1001V350H7V357H0V358H7V365H8.1001V358H15.1001V357Z" fill="#FF4AA9" fill-opacity="0.15"/>
<path d="M15.1001 407H8.1001V400H7V407H0V408H7V415H8.1001V408H15.1001V407Z" fill="#FF4AA9" fill-opacity="0.15"/>
<path d="M15.1001 457H8.1001V450H7V457H0V458H7V465H8.1001V458H15.1001V457Z" fill="#FF4AA9" fill-opacity="0.15"/>
<path d="M15.1001 507H8.1001V500H7V507H0V508H7V515H8.1001V508H15.1001V507Z" fill="#FF4AA9" fill-opacity="0.15"/>
<path d="M15.1001 557H8.1001V550H7V557H0V558H7V565H8.1001V558H15.1001V557Z" fill="#FF4AA9" fill-opacity="0.15"/>
<path d="M15.1001 607H8.1001V600H7V607H0V608H7V615H8.1001V608H15.1001V607Z" fill="#FF4AA9" fill-opacity="0.15"/>
<path d="M15.1001 657H8.1001V650H7V657H0V658H7V665H8.1001V658H15.1001V657Z" fill="#FF4AA9" fill-opacity="0.15"/>
<path d="M15.1001 707H8.1001V700H7V707H0V708H7V715H8.1001V708H15.1001V707Z" fill="#FF4AA9" fill-opacity="0.15"/>
<path d="M15.1001 757H8.1001V750H7V757H0V758H7V765H8.1001V758H15.1001V757Z" fill="#FF4AA9" fill-opacity="0.15"/>
</svg>
