<svg fill="none" height="248" viewBox="0 0 331 248" width="331" xmlns="http://www.w3.org/2000/svg" xmlns:xlink="http://www.w3.org/1999/xlink"><filter id="a" color-interpolation-filters="sRGB" filterUnits="userSpaceOnUse" height="223.506" width="306.407" x="12" y="12"><feFlood flood-opacity="0" result="BackgroundImageFix"/><feBlend in="SourceGraphic" in2="BackgroundImageFix" mode="normal" result="shape"/><feGaussianBlur result="effect1_foregroundBlur_534_5036" stdDeviation="2"/></filter><filter id="b" color-interpolation-filters="sRGB" filterUnits="userSpaceOnUse" height="247.506" width="330.407" x="0" y="0"><feFlood flood-opacity="0" result="BackgroundImageFix"/><feBlend in="SourceGraphic" in2="BackgroundImageFix" mode="normal" result="shape"/><feGaussianBlur result="effect1_foregroundBlur_534_5036" stdDeviation="8"/></filter><g stroke="#f6d535" stroke-linecap="round" stroke-width="2"><g filter="url(#a)"><path d="m233.761 217.899c-4.064-.65-8.207-.406-12.313-.406-4.59 0-9.158-.407-13.737-.407-7.858 0-15.693.407-23.565.407"/><path d="m107.284 19.4401c-4.971 0-10.078-.8498-14.9568-1.7171-1.5825-.2813-3.585-.723-5.1739-.723-1.768 0-3.3024 1.09-4.9931 1.22-2.5058.1928-5.6111 2.557-7.8173 3.6602-3.625 1.8125-6.1504 4.5072-8.3144 7.9076-2.1267 3.3421-3.786 6.8235-4.496 10.7996-.6951 3.8924.6337 7.1219 1.4459 10.777.5466 2.4597 4.795 3.078 6.6877 2.2368.979-.4351 2.3833-1.1859 3.1404-1.9431 1.1834-1.1833 4.9157 1.3663 6.3262 1.8527 2.3217.8006 4.0597 1.9608 6.5972.9941 1.4867-.5663 3.502-.0742 5.0609-.5197.7775-.2221 1.565-.5793 2.3497-.8811 1.5113-.5813 2.4063-1.7422 3.7731-2.3497 1.2728-.5657 2.8326-.5393 3.9534-1.22 2.652-1.6098 6.046-1.9005 8.834-3.4342 2.287-1.2574 3.453-2.3478 5.061-4.4509 1.029-1.3448 9.417-15.2957 5.332-15.2957-3.992 0-5.636-2.6058-8.314-5.0609-.937-.8591-1.617-2.14-2.553-2.9823-.477-.4291-2.522-.0904-3.163-.0904"/><path d="m114.604 44.2476c.508 2.6058 1.22 5.0597 1.22 7.7269 0 2.8864-.407 5.6572-.407 8.5402 0 2.2711.651 4.6981 1.13 6.9136.337 1.5586.819 4.7547.475 6.3035-1.78 8.0092-11.416 12.8104-19.0918 12.8104"/><path d="m99.5571 85.3218c2.0129 2.5621 4.3879 5.8616 5.4899 8.9469.466 1.3053 1.328 2.0679 1.921 3.2535.604 1.2085 1.154 2.5638.723.4066"/><path d="m106.471 83.6956c-.465-2.501-.566-5.1763-.407-7.7269.017-.2737 2.118 1.1148 2.531 1.3104.996.4727 2.03 1.2167 2.756 1.943"/><path d="m113.791 59.2944c-3.065-1.1961-2.034-.9034-2.034-3.6601"/><path d="m104.437 58.481c1.617 2.8289 3.186 8.4422-1.017 9.3762-3.154.7008-5.8966-5.0895-5.8966-7.7495"/><path d="m102.404 58.0747c.946.1845 1.88.4067 2.847.4067"/><path d="m65.396 54.8213c.9893 6.3067 1.4155 12.9071 3.1631 19.0236.541 1.8935.497 4.3013.497 6.2809 0 1.4952.8134 2.9103.8134 4.3831"/><path d="m27.168 104.029c4.7636-3.334 8.2002-8.2991 13.1041-11.3868 1.8508-1.1653 3.7966-1.8569 5.8065-2.6434 1.716-.6715 4.2778-.8676 5.8064-1.8301 2.2423-1.4118 4.4414-1.22 7.1395-1.22 1.5444 0 2.9695.2513 4.4961.3841 1.2207.1061 1.2665.8986 2.3723 1.333 1.9393.7619 3.7108 1.3312 5.6257 2.1689 2.2395.9798 3.7548 3.0268 5.8517 4.225 2.8591 1.6338 5.9948 2.4627 9.3762 2.4627 1.8663 0 3.6253 1.22 5.5806 1.22 2.0175 0 3.8471.4067 5.9194.4067 4.3145 0 8.5985-1.5257 13.0135-.723 4.786.8702 9.519 1.8429 14.347 2.5529 3.115.458 5.558.966 8.36 2.259 1.973.911 3.757 2.231 5.738 3.164.933.438 1.83.429 2.734.881 3.853 1.926 7.464 2.535 11.703 3.434 2.719.576 5.605.987 8.224 1.943 5.896 2.151 11.757 3.994 17.668 6.032 4.656 1.606 9.675 3.806 14.686 4.044 1.271.061 2.865.226 4.067-.203.159-.057 1.249-.755 1.355-.542.304.608-1.462 3.373-1.762 4.089-.691 1.652-1.986 3.522-3.253 4.79-1.773 1.773-3.396 3.576-5.197 5.377-2.636 2.636-5.747 2.757-9.444 2.757-5.016 0-10.031 0-15.047 0-4.75 0-9.591.813-14.234.813"/><path d="m144.699 139.003c1.675 4.504.664 9.493-.497 14.008-.386 1.499-1.163 2.912-1.718 4.338-.772 1.987-.632 4.964-.632 7.094 0 9.767-1.22 19.456-1.22 29.259v23.881c0 3.869.813 7.482.813 11.297"/><path d="m27.168 128.837c1.4192 5.677 3.5619 11.039 4.9705 16.674.7707 3.082 1.5363 6.163 1.5363 9.353 0 3.321.7919 6.341 2.0334 9.444 1.8025 4.507 2.8468 9.863 2.8468 14.731 0 4.352.5692 8.743 1.4234 13.014.8421 4.211.9479 8.004 1.0167 12.336.1272 8.015-.1133 16.424 2.44 24.084"/><path d="m32.4548 143.884c0 3.931.4036 8.988-1.3104 12.607-.8674 1.831-2.0561 5.14-3.9764 6.1"/><path d="m32.4551 157.304c.8438 4.431 0 8.578 0 12.924 0 1.661.1643 3.75 2.056 3.75 1.8223 0 3.5606.161 5.2642-.407"/><path d="m27.168 186.585c3.4054 1.412 6.3938 2.44 10.167 2.44"/><path d="m25.948 104.843c-2.1704 1.323-4.3562 1.99-5.8969 4.044-1.564 2.085-1.3011 5.493-.2033 7.749 1.5011 3.086 4.5134 5.069 5.6935 8.315.9022 2.481 1.2201 4.5 1.2201 7.139"/><path d="m20.2545 119.483c-.0654 5.099-.1917 10.398-.9038 15.454-.6647 4.72-1.6617 9.452-1.943 14.234-.2923 4.969-.4067 9.89-.4067 14.866 0 3.057-.0822 7.107 1.2201 9.941 1.3754 2.994 3.5608 6.453 5.8742 8.767 2.0929 2.093 2.8286 4.437 5.9195 5.467"/><path d="m164.626 110.536c0-10.029 1.901-19.6805-2.938-28.8742-4.153-7.8914-.148-16.4349 5.784-22.3674 1.995-1.9949 4.507-3.3081 6.823-4.8801 2.98-2.0216 6.619-2.2699 9.806-3.8635 2.569-1.2845 5.901.2147 8.676.5196 2.148.2362 4.339-.1479 6.461.3163 3.093.6766 5.736 2.655 8.902 3.0276 2.293.2697 5.137 4.3249 6.1 6.1001 1.021 1.8801 2.44 3.2317 2.44 5.4902 0 .8561-.459 3.7653.226 4.4509 1.086 1.0857 2.144 3.6473 3.435 4.2927"/><path d="m215.461 64.9878c-5.628 1.1511-10.742.4067-16.268.4067"/><path d="m214.648 73.5282c-3.251-.0739-6.57-.8134-9.761-.8134"/><path d="m213.834 53.6011c6.336 1.3576 11.851 2.9029 16.177 8.1336 5.434 6.5717 6.817 14.6103 8.02 22.7966.85 5.7778 3.925 10.6741 6.507 15.8377.843 1.685 1.408 3.57 2.327 5.197.646 1.141 1.681 2.266 1.966 3.547.251 1.13 1.367 3.304 2.011 4.27"/><path d="m222.374 64.9878c3.475 2.4823 9.141 5.218 13.42 5.6935"/><path d="m223.188 71.4946c2.585 2.5849 4.893 5.719 6.507 8.947"/><path d="m171.539 114.603c1.481-1.955 3.14-3.79 4.564-5.784 1.68-2.352 2.449-4.933 3.773-7.433 1.349-2.5488 1.214-5.24 1.83-7.9755.318-1.4113.712-2.8444.836-4.2701.15-1.7238.145-3.5864.407-5.2868.231-1.5067.082-4.1671.881-5.445.252-.4033 1.066 1.6392 1.152 1.7848.486.8197 1.216 1.378 1.808 2.1012 1.087 1.3294 1.855 2.01 3.366 2.9372 2.858 1.7536 3.308 4.1216 5.58 6.3939.322.3217.512.6076.701 1.0167.495 1.072-1.055-2.1247-1.401-3.2535-.789-2.5732-.723-5.0251-.723-7.6817 0-2.2292 1.441 1.0882 1.943 1.9882.823 1.4758 2.079 2.5436 3.141 3.8409 1.573 1.9233 4.916 3.0823 6.958 4.496 1.351.9352 2.905 1.5535 3.999 2.8468 1.047 1.2374 2.066 2.947 3.389 3.8634 2.366 1.6375 1.08-4.0568 1.808-5.6935.821-1.8475 4.541-.4214 5.784.4067 3.7 2.4671 6.726 4.8999 7.975 9.1953.861 2.96 2.084 6.919 4.361 9.196 1.729 1.729 3.612 2.458 5.693 3.795 3.727 2.396 8.482 2.899 12.291.994"/><path d="m231.321 100.776c2.779 0 5.393-.133 8.134-.407"/><path d="m223.594 94.269c0 6.5-.407 13.075-.407 19.521 0 2.334-.137 3.302-1.129 5.286-.797 1.595-2.377 2.794-2.937 4.474"/><path d="m222.374 110.943c2.149-1.693 3.276-3.962 4.88-6.1"/><path d="m224.814 110.943c1.957 2.474 3.796 4.612 6.417 6.326.959.627 2.367.667 2.937 1.807"/><path d="m187.807 95.8954c1.116-1.5355 2.115-2.9562 3.253-4.4735"/><path d="m192.687 94.6758-2.034.4067"/><path d="m182.113 98.7422c.713 5.2638.917 8.6888 4.631 12.4038 2.015 2.015 1.099 4.824 4.316 5.897"/><path d="m189.84 102.81c0 1.927-.996 7.342 1.22 8.449 2.447 1.224.406 3.935.406 6.191"/><path d="m193.907 110.943c1.11 1.11 2.106 2.875 3.479 3.66 1.227.701 2.585 1.089 3.841 1.717 1.868.934 5.908 3.144 7.637.316 1.164-1.905 2.678-6.713-1.13-6.913-2.834-.15-5.789-.407-8.54-.407"/><path d="m204.48 98.7422c.425-.0829 5.735-.5652 5.604-.8134-.579-1.0921-3.294-1.8951-4.383-2.44"/><path d="m199.194 125.583c3.107 1.492 6.425 1.555 9.76.814 4.54-1.009 9.025-1.305 13.669-1.604 3.87-.25 7.585-.452 11.455-.113 1.208.105 3.942.151 5.015-.52 1.152-.72 2.857.141 4.112-.294 1.909-.66 3.854-1.451 5.784-2.146 7.241-2.607 11.384-9.464 17.623-13.624 2.274-1.516 5.152-2.925 7.004-4.88 2.417-2.552 3.398-6.4547 4.067-9.7604.421-2.0802.552-4.9435 1.627-6.8231.662-1.1598 1.336-2.8509 1.626-4.1572.278-1.2516 1.152-2.5206 1.627-3.7505.417-1.0805.965-3.3056 1.695-4.1572 1.569-1.8308 6.032 3.3455 6.032 5.0835 0 2.4296-.817 4.8878-1.83 7.1169-.158.3467-.738 2.2253-.339 1.7171 1.528-1.9443 3.5-4.3706 5.422-5.9194 2.232-1.7979 3.836-3.8515 5.784-5.8743.974-1.011 1.564-2.3319 2.553-3.3212.538-.5374.273 3.1995.204 3.4116-.516 1.5774-1.184 3.4124-2.237 4.6994-1.674 2.046.082 1.4899 1.514.497 1.76-1.2211 3.284-1.8608 5.196-2.666 1.492-.6281 1.264.9742 1.198 1.9656-.129 1.9266-1.754 4.5262-3.028 6.0551-.463.5556 1.248.031 1.288.0225 1.586-.334 3.274-.4819 4.835-.9037 1.15-.311 1.627-1.7479 1.378.4971-.33 2.9666-3.51 4.6888-4.022 7.5009-.49 2.6977 5.653-.3096 5.174 1.446-.486 1.782-3.224 3.4871-4.586 4.4963-1.914 1.417-3.957 3.505-6.213 4.36-2.052.778-4.383.643-6.53 1.085-1.189.245-2.446.588-3.637.632-3.153.117-6.355 4.365-8.134 6.507-5.026 6.054-10.923 11.25-15.544 17.668-2.294 3.186-5.465 6.987-8.744 9.173-4.055 2.704-9.124 3.64-13.985 3.434-3.75-.158-7.555-.587-11.297-.587-4.177 0-7.728-1.447-11.703-2.44-3.878-.97-8.007-2.44-12.02-2.44-6.504 0-12.99.406-19.52.406"/><path d="m145.105 154.864c5.205 2.603 10.839 5.315 16.38 7.072 2.642.838 5.221 1.468 8.021 1.468 2.961 0 3.622-6.081 3.66-8.133.027-1.487.434-3.534 2.033-4.067"/><path d="m144.699 169.504c4.255 4.898 8.899 8.022 14.64 10.574 1.641.729 4.409.768 6.191.768 3.445 0 7.356-.854 10.732-1.604 4.239-.942 6.729-2.637 8.608-6.394.088-.177 1.97 4.826 2.123 5.784.511 3.191.167 6.389.61 9.58 1.153 8.299.204 16.503.204 24.807 0 4.344-.814 8.765-.814 13.014"/><path d="m223.188 177.231c.339 1.622.927 3.237 1.13 4.881.266 2.163-.102 4.355.316 6.506.72 3.706 1.832 7.161 2.824 10.8 1.467 5.379 2.206 10.707 3.954 15.951 1.11 3.329 1.969 6.748 3.163 10.031.621 1.709.793 4.008 2.44 5.106"/><path d="m178.046 150.798c-.491 2.64-.999 6.221.723 8.54 1.444 1.943 3.483 3.446 4.971 5.513 3.121 4.335 11.444 6.224 15.431 2.236 1.211-1.21 4.206-3.764 1.469-4.676-1.633-.545.518.348.903.587 1.084.673 2.053.924 3.254 1.311 5.661 1.819 13.207 1.502 18.888-.181 2.399-.711 2.454-2.762 3.57-4.7 1.334-2.317 1.947-5.162 2.846-7.636.075-.206.518-1.944.814-1.265 1.277 2.931.83 6.975 1.129 10.121.348 3.648-.374 7.44.294 11.049.715 3.862.753 8.064 2.643 11.635 1.204 2.273 5.749 3.66 8.134 3.66"/><path d="m244.742 146.73c.936 6.199 1.376 12.503 3.75 18.391 1.64 4.067 3.473 7.689 5.603 11.523 1.976 3.556 6.464 8.318 10.416 9.534 3.298 1.015.563 1.22-1.469 1.22-1.826 0-4.028-.302-5.716-1.061-.556-.251-2.052-1.248-1.649-.791.677.767 1.483 1.549 2.259 2.214 1.949 1.671.563 1.808-1.559 1.446-2.236-.382-3.41-1.198-5.151-2.395-2.284-1.571-.975.533-.813 2.146.155 1.556-3.904-.353-4.632-.949-1.306-1.068-1.903-2.668-3.479-3.456"/><path d="m233.761 217.899c-4.064-.65-8.207-.406-12.313-.406-4.59 0-9.158-.407-13.737-.407-7.858 0-15.693.407-23.565.407"/><path d="m107.284 19.4401c-4.971 0-10.078-.8498-14.9568-1.7171-1.5825-.2813-3.585-.723-5.1739-.723-1.768 0-3.3024 1.09-4.9931 1.22-2.5058.1928-5.6111 2.557-7.8173 3.6602-3.625 1.8125-6.1504 4.5072-8.3144 7.9076-2.1267 3.3421-3.786 6.8235-4.496 10.7996-.6951 3.8924.6337 7.1219 1.4459 10.777.5466 2.4597 4.795 3.078 6.6877 2.2368.979-.4351 2.3833-1.1859 3.1404-1.9431 1.1834-1.1833 4.9157 1.3663 6.3262 1.8527 2.3217.8006 4.0597 1.9608 6.5972.9941 1.4867-.5663 3.502-.0742 5.0609-.5197.7775-.2221 1.565-.5793 2.3497-.8811 1.5113-.5813 2.4063-1.7422 3.7731-2.3497 1.2728-.5657 2.8326-.5393 3.9534-1.22 2.652-1.6098 6.046-1.9005 8.834-3.4342 2.287-1.2574 3.453-2.3478 5.061-4.4509 1.029-1.3448 9.417-15.2957 5.332-15.2957-3.992 0-5.636-2.6058-8.314-5.0609-.937-.8591-1.617-2.14-2.553-2.9823-.477-.4291-2.522-.0904-3.163-.0904"/><path d="m114.604 44.2476c.508 2.6058 1.22 5.0597 1.22 7.7269 0 2.8864-.407 5.6572-.407 8.5402 0 2.2711.651 4.6981 1.13 6.9136.337 1.5586.819 4.7547.475 6.3035-1.78 8.0092-11.416 12.8104-19.0918 12.8104"/><path d="m99.5571 85.3218c2.0129 2.5621 4.3879 5.8616 5.4899 8.9469.466 1.3053 1.328 2.0679 1.921 3.2535.604 1.2085 1.154 2.5638.723.4066"/><path d="m106.471 83.6956c-.465-2.501-.566-5.1763-.407-7.7269.017-.2737 2.118 1.1148 2.531 1.3104.996.4727 2.03 1.2167 2.756 1.943"/><path d="m113.791 59.2944c-3.065-1.1961-2.034-.9034-2.034-3.6601"/><path d="m104.437 58.481c1.617 2.8289 3.186 8.4422-1.017 9.3762-3.154.7008-5.8966-5.0895-5.8966-7.7495"/><path d="m102.404 58.0747c.946.1845 1.88.4067 2.847.4067"/><path d="m65.396 54.8213c.9893 6.3067 1.4155 12.9071 3.1631 19.0236.541 1.8935.497 4.3013.497 6.2809 0 1.4952.8134 2.9103.8134 4.3831"/><path d="m27.168 104.029c4.7636-3.334 8.2002-8.2991 13.1041-11.3868 1.8508-1.1653 3.7966-1.8569 5.8065-2.6434 1.716-.6715 4.2778-.8676 5.8064-1.8301 2.2423-1.4118 4.4414-1.22 7.1395-1.22 1.5444 0 2.9695.2513 4.4961.3841 1.2207.1061 1.2665.8986 2.3723 1.333 1.9393.7619 3.7108 1.3312 5.6257 2.1689 2.2395.9798 3.7548 3.0268 5.8517 4.225 2.8591 1.6338 5.9948 2.4627 9.3762 2.4627 1.8663 0 3.6253 1.22 5.5806 1.22 2.0175 0 3.8471.4067 5.9194.4067 4.3145 0 8.5985-1.5257 13.0135-.723 4.786.8702 9.519 1.8429 14.347 2.5529 3.115.458 5.558.966 8.36 2.259 1.973.911 3.757 2.231 5.738 3.164.933.438 1.83.429 2.734.881 3.853 1.926 7.464 2.535 11.703 3.434 2.719.576 5.605.987 8.224 1.943 5.896 2.151 11.757 3.994 17.668 6.032 4.656 1.606 9.675 3.806 14.686 4.044 1.271.061 2.865.226 4.067-.203.159-.057 1.249-.755 1.355-.542.304.608-1.462 3.373-1.762 4.089-.691 1.652-1.986 3.522-3.253 4.79-1.773 1.773-3.396 3.576-5.197 5.377-2.636 2.636-5.747 2.757-9.444 2.757-5.016 0-10.031 0-15.047 0-4.75 0-9.591.813-14.234.813"/><path d="m144.699 139.003c1.675 4.504.664 9.493-.497 14.008-.386 1.499-1.163 2.912-1.718 4.338-.772 1.987-.632 4.964-.632 7.094 0 9.767-1.22 19.456-1.22 29.259v23.881c0 3.869.813 7.482.813 11.297"/><path d="m27.168 128.837c1.4192 5.677 3.5619 11.039 4.9705 16.674.7707 3.082 1.5363 6.163 1.5363 9.353 0 3.321.7919 6.341 2.0334 9.444 1.8025 4.507 2.8468 9.863 2.8468 14.731 0 4.352.5692 8.743 1.4234 13.014.8421 4.211.9479 8.004 1.0167 12.336.1272 8.015-.1133 16.424 2.44 24.084"/><path d="m32.4548 143.884c0 3.931.4036 8.988-1.3104 12.607-.8674 1.831-2.0561 5.14-3.9764 6.1"/><path d="m32.4551 157.304c.8438 4.431 0 8.578 0 12.924 0 1.661.1643 3.75 2.056 3.75 1.8223 0 3.5606.161 5.2642-.407"/><path d="m27.168 186.585c3.4054 1.412 6.3938 2.44 10.167 2.44"/><path d="m25.948 104.843c-2.1704 1.323-4.3562 1.99-5.8969 4.044-1.564 2.085-1.3011 5.493-.2033 7.749 1.5011 3.086 4.5134 5.069 5.6935 8.315.9022 2.481 1.2201 4.5 1.2201 7.139"/><path d="m20.2545 119.483c-.0654 5.099-.1917 10.398-.9038 15.454-.6647 4.72-1.6617 9.452-1.943 14.234-.2923 4.969-.4067 9.89-.4067 14.866 0 3.057-.0822 7.107 1.2201 9.941 1.3754 2.994 3.5608 6.453 5.8742 8.767 2.0929 2.093 2.8286 4.437 5.9195 5.467"/><path d="m164.626 110.536c0-10.029 1.901-19.6805-2.938-28.8742-4.153-7.8914-.148-16.4349 5.784-22.3674 1.995-1.9949 4.507-3.3081 6.823-4.8801 2.98-2.0216 6.619-2.2699 9.806-3.8635 2.569-1.2845 5.901.2147 8.676.5196 2.148.2362 4.339-.1479 6.461.3163 3.093.6766 5.736 2.655 8.902 3.0276 2.293.2697 5.137 4.3249 6.1 6.1001 1.021 1.8801 2.44 3.2317 2.44 5.4902 0 .8561-.459 3.7653.226 4.4509 1.086 1.0857 2.144 3.6473 3.435 4.2927"/><path d="m215.461 64.9878c-5.628 1.1511-10.742.4067-16.268.4067"/><path d="m214.648 73.5282c-3.251-.0739-6.57-.8134-9.761-.8134"/><path d="m213.834 53.6011c6.336 1.3576 11.851 2.9029 16.177 8.1336 5.434 6.5717 6.817 14.6103 8.02 22.7966.85 5.7778 3.925 10.6741 6.507 15.8377.843 1.685 1.408 3.57 2.327 5.197.646 1.141 1.681 2.266 1.966 3.547.251 1.13 1.367 3.304 2.011 4.27"/><path d="m222.374 64.9878c3.475 2.4823 9.141 5.218 13.42 5.6935"/><path d="m223.188 71.4946c2.585 2.5849 4.893 5.719 6.507 8.947"/><path d="m171.539 114.603c1.481-1.955 3.14-3.79 4.564-5.784 1.68-2.352 2.449-4.933 3.773-7.433 1.349-2.5488 1.214-5.24 1.83-7.9755.318-1.4113.712-2.8444.836-4.2701.15-1.7238.145-3.5864.407-5.2868.231-1.5067.082-4.1671.881-5.445.252-.4033 1.066 1.6392 1.152 1.7848.486.8197 1.216 1.378 1.808 2.1012 1.087 1.3294 1.855 2.01 3.366 2.9372 2.858 1.7536 3.308 4.1216 5.58 6.3939.322.3217.512.6076.701 1.0167.495 1.072-1.055-2.1247-1.401-3.2535-.789-2.5732-.723-5.0251-.723-7.6817 0-2.2292 1.441 1.0882 1.943 1.9882.823 1.4758 2.079 2.5436 3.141 3.8409 1.573 1.9233 4.916 3.0823 6.958 4.496 1.351.9352 2.905 1.5535 3.999 2.8468 1.047 1.2374 2.066 2.947 3.389 3.8634 2.366 1.6375 1.08-4.0568 1.808-5.6935.821-1.8475 4.541-.4214 5.784.4067 3.7 2.4671 6.726 4.8999 7.975 9.1953.861 2.96 2.084 6.919 4.361 9.196 1.729 1.729 3.612 2.458 5.693 3.795 3.727 2.396 8.482 2.899 12.291.994"/><path d="m231.321 100.776c2.779 0 5.393-.133 8.134-.407"/><path d="m223.594 94.269c0 6.5-.407 13.075-.407 19.521 0 2.334-.137 3.302-1.129 5.286-.797 1.595-2.377 2.794-2.937 4.474"/><path d="m222.374 110.943c2.149-1.693 3.276-3.962 4.88-6.1"/><path d="m224.814 110.943c1.957 2.474 3.796 4.612 6.417 6.326.959.627 2.367.667 2.937 1.807"/><path d="m187.807 95.8954c1.116-1.5355 2.115-2.9562 3.253-4.4735"/><path d="m192.687 94.6758-2.034.4067"/><path d="m182.113 98.7422c.713 5.2638.917 8.6888 4.631 12.4038 2.015 2.015 1.099 4.824 4.316 5.897"/><path d="m189.84 102.81c0 1.927-.996 7.342 1.22 8.449 2.447 1.224.406 3.935.406 6.191"/><path d="m193.907 110.943c1.11 1.11 2.106 2.875 3.479 3.66 1.227.701 2.585 1.089 3.841 1.717 1.868.934 5.908 3.144 7.637.316 1.164-1.905 2.678-6.713-1.13-6.913-2.834-.15-5.789-.407-8.54-.407"/><path d="m204.48 98.7422c.425-.0829 5.735-.5652 5.604-.8134-.579-1.0921-3.294-1.8951-4.383-2.44"/><path d="m199.194 125.583c3.107 1.492 6.425 1.555 9.76.814 4.54-1.009 9.025-1.305 13.669-1.604 3.87-.25 7.585-.452 11.455-.113 1.208.105 3.942.151 5.015-.52 1.152-.72 2.857.141 4.112-.294 1.909-.66 3.854-1.451 5.784-2.146 7.241-2.607 11.384-9.464 17.623-13.624 2.274-1.516 5.152-2.925 7.004-4.88 2.417-2.552 3.398-6.4547 4.067-9.7604.421-2.0802.552-4.9435 1.627-6.8231.662-1.1598 1.336-2.8509 1.626-4.1572.278-1.2516 1.152-2.5206 1.627-3.7505.417-1.0805.965-3.3056 1.695-4.1572 1.569-1.8308 6.032 3.3455 6.032 5.0835 0 2.4296-.817 4.8878-1.83 7.1169-.158.3467-.738 2.2253-.339 1.7171 1.528-1.9443 3.5-4.3706 5.422-5.9194 2.232-1.7979 3.836-3.8515 5.784-5.8743.974-1.011 1.564-2.3319 2.553-3.3212.538-.5374.273 3.1995.204 3.4116-.516 1.5774-1.184 3.4124-2.237 4.6994-1.674 2.046.082 1.4899 1.514.497 1.76-1.2211 3.284-1.8608 5.196-2.666 1.492-.6281 1.264.9742 1.198 1.9656-.129 1.9266-1.754 4.5262-3.028 6.0551-.463.5556 1.248.031 1.288.0225 1.586-.334 3.274-.4819 4.835-.9037 1.15-.311 1.627-1.7479 1.378.4971-.33 2.9666-3.51 4.6888-4.022 7.5009-.49 2.6977 5.653-.3096 5.174 1.446-.486 1.782-3.224 3.4871-4.586 4.4963-1.914 1.417-3.957 3.505-6.213 4.36-2.052.778-4.383.643-6.53 1.085-1.189.245-2.446.588-3.637.632-3.153.117-6.355 4.365-8.134 6.507-5.026 6.054-10.923 11.25-15.544 17.668-2.294 3.186-5.465 6.987-8.744 9.173-4.055 2.704-9.124 3.64-13.985 3.434-3.75-.158-7.555-.587-11.297-.587-4.177 0-7.728-1.447-11.703-2.44-3.878-.97-8.007-2.44-12.02-2.44-6.504 0-12.99.406-19.52.406"/><path d="m145.105 154.864c5.205 2.603 10.839 5.315 16.38 7.072 2.642.838 5.221 1.468 8.021 1.468 2.961 0 3.622-6.081 3.66-8.133.027-1.487.434-3.534 2.033-4.067"/><path d="m144.699 169.504c4.255 4.898 8.899 8.022 14.64 10.574 1.641.729 4.409.768 6.191.768 3.445 0 7.356-.854 10.732-1.604 4.239-.942 6.729-2.637 8.608-6.394.088-.177 1.97 4.826 2.123 5.784.511 3.191.167 6.389.61 9.58 1.153 8.299.204 16.503.204 24.807 0 4.344-.814 8.765-.814 13.014"/><path d="m223.188 177.231c.339 1.622.927 3.237 1.13 4.881.266 2.163-.102 4.355.316 6.506.72 3.706 1.832 7.161 2.824 10.8 1.467 5.379 2.206 10.707 3.954 15.951 1.11 3.329 1.969 6.748 3.163 10.031.621 1.709.793 4.008 2.44 5.106"/><path d="m178.046 150.798c-.491 2.64-.999 6.221.723 8.54 1.444 1.943 3.483 3.446 4.971 5.513 3.121 4.335 11.444 6.224 15.431 2.236 1.211-1.21 4.206-3.764 1.469-4.676-1.633-.545.518.348.903.587 1.084.673 2.053.924 3.254 1.311 5.661 1.819 13.207 1.502 18.888-.181 2.399-.711 2.454-2.762 3.57-4.7 1.334-2.317 1.947-5.162 2.846-7.636.075-.206.518-1.944.814-1.265 1.277 2.931.83 6.975 1.129 10.121.348 3.648-.374 7.44.294 11.049.715 3.862.753 8.064 2.643 11.635 1.204 2.273 5.749 3.66 8.134 3.66"/><path d="m244.742 146.73c.936 6.199 1.376 12.503 3.75 18.391 1.64 4.067 3.473 7.689 5.603 11.523 1.976 3.556 6.464 8.318 10.416 9.534 3.298 1.015.563 1.22-1.469 1.22-1.826 0-4.028-.302-5.716-1.061-.556-.251-2.052-1.248-1.649-.791.677.767 1.483 1.549 2.259 2.214 1.949 1.671.563 1.808-1.559 1.446-2.236-.382-3.41-1.198-5.151-2.395-2.284-1.571-.975.533-.813 2.146.155 1.556-3.904-.353-4.632-.949-1.306-1.068-1.903-2.668-3.479-3.456"/><path d="m233.761 217.899c-4.064-.65-8.207-.406-12.313-.406-4.59 0-9.158-.407-13.737-.407-7.858 0-15.693.407-23.565.407"/><path d="m107.284 19.4401c-4.971 0-10.078-.8498-14.9568-1.7171-1.5825-.2813-3.585-.723-5.1739-.723-1.768 0-3.3024 1.09-4.9931 1.22-2.5058.1928-5.6111 2.557-7.8173 3.6602-3.625 1.8125-6.1504 4.5072-8.3144 7.9076-2.1267 3.3421-3.786 6.8235-4.496 10.7996-.6951 3.8924.6337 7.1219 1.4459 10.777.5466 2.4597 4.795 3.078 6.6877 2.2368.979-.4351 2.3833-1.1859 3.1404-1.9431 1.1834-1.1833 4.9157 1.3663 6.3262 1.8527 2.3217.8006 4.0597 1.9608 6.5972.9941 1.4867-.5663 3.502-.0742 5.0609-.5197.7775-.2221 1.565-.5793 2.3497-.8811 1.5113-.5813 2.4063-1.7422 3.7731-2.3497 1.2728-.5657 2.8326-.5393 3.9534-1.22 2.652-1.6098 6.046-1.9005 8.834-3.4342 2.287-1.2574 3.453-2.3478 5.061-4.4509 1.029-1.3448 9.417-15.2957 5.332-15.2957-3.992 0-5.636-2.6058-8.314-5.0609-.937-.8591-1.617-2.14-2.553-2.9823-.477-.4291-2.522-.0904-3.163-.0904"/><path d="m114.604 44.2476c.508 2.6058 1.22 5.0597 1.22 7.7269 0 2.8864-.407 5.6572-.407 8.5402 0 2.2711.651 4.6981 1.13 6.9136.337 1.5586.819 4.7547.475 6.3035-1.78 8.0092-11.416 12.8104-19.0918 12.8104"/><path d="m99.5571 85.3218c2.0129 2.5621 4.3879 5.8616 5.4899 8.9469.466 1.3053 1.328 2.0679 1.921 3.2535.604 1.2085 1.154 2.5638.723.4066"/><path d="m106.471 83.6956c-.465-2.501-.566-5.1763-.407-7.7269.017-.2737 2.118 1.1148 2.531 1.3104.996.4727 2.03 1.2167 2.756 1.943"/><path d="m113.791 59.2944c-3.065-1.1961-2.034-.9034-2.034-3.6601"/><path d="m104.437 58.481c1.617 2.8289 3.186 8.4422-1.017 9.3762-3.154.7008-5.8966-5.0895-5.8966-7.7495"/><path d="m102.404 58.0747c.946.1845 1.88.4067 2.847.4067"/><path d="m65.396 54.8213c.9893 6.3067 1.4155 12.9071 3.1631 19.0236.541 1.8935.497 4.3013.497 6.2809 0 1.4952.8134 2.9103.8134 4.3831"/><path d="m27.168 104.029c4.7636-3.334 8.2002-8.2991 13.1041-11.3868 1.8508-1.1653 3.7966-1.8569 5.8065-2.6434 1.716-.6715 4.2778-.8676 5.8064-1.8301 2.2423-1.4118 4.4414-1.22 7.1395-1.22 1.5444 0 2.9695.2513 4.4961.3841 1.2207.1061 1.2665.8986 2.3723 1.333 1.9393.7619 3.7108 1.3312 5.6257 2.1689 2.2395.9798 3.7548 3.0268 5.8517 4.225 2.8591 1.6338 5.9948 2.4627 9.3762 2.4627 1.8663 0 3.6253 1.22 5.5806 1.22 2.0175 0 3.8471.4067 5.9194.4067 4.3145 0 8.5985-1.5257 13.0135-.723 4.786.8702 9.519 1.8429 14.347 2.5529 3.115.458 5.558.966 8.36 2.259 1.973.911 3.757 2.231 5.738 3.164.933.438 1.83.429 2.734.881 3.853 1.926 7.464 2.535 11.703 3.434 2.719.576 5.605.987 8.224 1.943 5.896 2.151 11.757 3.994 17.668 6.032 4.656 1.606 9.675 3.806 14.686 4.044 1.271.061 2.865.226 4.067-.203.159-.057 1.249-.755 1.355-.542.304.608-1.462 3.373-1.762 4.089-.691 1.652-1.986 3.522-3.253 4.79-1.773 1.773-3.396 3.576-5.197 5.377-2.636 2.636-5.747 2.757-9.444 2.757-5.016 0-10.031 0-15.047 0-4.75 0-9.591.813-14.234.813"/><path d="m144.699 139.003c1.675 4.504.664 9.493-.497 14.008-.386 1.499-1.163 2.912-1.718 4.338-.772 1.987-.632 4.964-.632 7.094 0 9.767-1.22 19.456-1.22 29.259v23.881c0 3.869.813 7.482.813 11.297"/><path d="m27.168 128.837c1.4192 5.677 3.5619 11.039 4.9705 16.674.7707 3.082 1.5363 6.163 1.5363 9.353 0 3.321.7919 6.341 2.0334 9.444 1.8025 4.507 2.8468 9.863 2.8468 14.731 0 4.352.5692 8.743 1.4234 13.014.8421 4.211.9479 8.004 1.0167 12.336.1272 8.015-.1133 16.424 2.44 24.084"/><path d="m32.4548 143.884c0 3.931.4036 8.988-1.3104 12.607-.8674 1.831-2.0561 5.14-3.9764 6.1"/><path d="m32.4551 157.304c.8438 4.431 0 8.578 0 12.924 0 1.661.1643 3.75 2.056 3.75 1.8223 0 3.5606.161 5.2642-.407"/><path d="m27.168 186.585c3.4054 1.412 6.3938 2.44 10.167 2.44"/><path d="m25.948 104.843c-2.1704 1.323-4.3562 1.99-5.8969 4.044-1.564 2.085-1.3011 5.493-.2033 7.749 1.5011 3.086 4.5134 5.069 5.6935 8.315.9022 2.481 1.2201 4.5 1.2201 7.139"/><path d="m20.2545 119.483c-.0654 5.099-.1917 10.398-.9038 15.454-.6647 4.72-1.6617 9.452-1.943 14.234-.2923 4.969-.4067 9.89-.4067 14.866 0 3.057-.0822 7.107 1.2201 9.941 1.3754 2.994 3.5608 6.453 5.8742 8.767 2.0929 2.093 2.8286 4.437 5.9195 5.467"/><path d="m164.626 110.536c0-10.029 1.901-19.6805-2.938-28.8742-4.153-7.8914-.148-16.4349 5.784-22.3674 1.995-1.9949 4.507-3.3081 6.823-4.8801 2.98-2.0216 6.619-2.2699 9.806-3.8635 2.569-1.2845 5.901.2147 8.676.5196 2.148.2362 4.339-.1479 6.461.3163 3.093.6766 5.736 2.655 8.902 3.0276 2.293.2697 5.137 4.3249 6.1 6.1001 1.021 1.8801 2.44 3.2317 2.44 5.4902 0 .8561-.459 3.7653.226 4.4509 1.086 1.0857 2.144 3.6473 3.435 4.2927"/><path d="m215.461 64.9878c-5.628 1.1511-10.742.4067-16.268.4067"/><path d="m214.648 73.5282c-3.251-.0739-6.57-.8134-9.761-.8134"/><path d="m213.834 53.6011c6.336 1.3576 11.851 2.9029 16.177 8.1336 5.434 6.5717 6.817 14.6103 8.02 22.7966.85 5.7778 3.925 10.6741 6.507 15.8377.843 1.685 1.408 3.57 2.327 5.197.646 1.141 1.681 2.266 1.966 3.547.251 1.13 1.367 3.304 2.011 4.27"/><path d="m222.374 64.9878c3.475 2.4823 9.141 5.218 13.42 5.6935"/><path d="m223.188 71.4946c2.585 2.5849 4.893 5.719 6.507 8.947"/><path d="m171.539 114.603c1.481-1.955 3.14-3.79 4.564-5.784 1.68-2.352 2.449-4.933 3.773-7.433 1.349-2.5488 1.214-5.24 1.83-7.9755.318-1.4113.712-2.8444.836-4.2701.15-1.7238.145-3.5864.407-5.2868.231-1.5067.082-4.1671.881-5.445.252-.4033 1.066 1.6392 1.152 1.7848.486.8197 1.216 1.378 1.808 2.1012 1.087 1.3294 1.855 2.01 3.366 2.9372 2.858 1.7536 3.308 4.1216 5.58 6.3939.322.3217.512.6076.701 1.0167.495 1.072-1.055-2.1247-1.401-3.2535-.789-2.5732-.723-5.0251-.723-7.6817 0-2.2292 1.441 1.0882 1.943 1.9882.823 1.4758 2.079 2.5436 3.141 3.8409 1.573 1.9233 4.916 3.0823 6.958 4.496 1.351.9352 2.905 1.5535 3.999 2.8468 1.047 1.2374 2.066 2.947 3.389 3.8634 2.366 1.6375 1.08-4.0568 1.808-5.6935.821-1.8475 4.541-.4214 5.784.4067 3.7 2.4671 6.726 4.8999 7.975 9.1953.861 2.96 2.084 6.919 4.361 9.196 1.729 1.729 3.612 2.458 5.693 3.795 3.727 2.396 8.482 2.899 12.291.994"/><path d="m231.321 100.776c2.779 0 5.393-.133 8.134-.407"/><path d="m223.594 94.269c0 6.5-.407 13.075-.407 19.521 0 2.334-.137 3.302-1.129 5.286-.797 1.595-2.377 2.794-2.937 4.474"/><path d="m222.374 110.943c2.149-1.693 3.276-3.962 4.88-6.1"/><path d="m224.814 110.943c1.957 2.474 3.796 4.612 6.417 6.326.959.627 2.367.667 2.937 1.807"/><path d="m187.807 95.8954c1.116-1.5355 2.115-2.9562 3.253-4.4735"/><path d="m192.687 94.6758-2.034.4067"/><path d="m182.113 98.7422c.713 5.2638.917 8.6888 4.631 12.4038 2.015 2.015 1.099 4.824 4.316 5.897"/><path d="m189.84 102.81c0 1.927-.996 7.342 1.22 8.449 2.447 1.224.406 3.935.406 6.191"/><path d="m193.907 110.943c1.11 1.11 2.106 2.875 3.479 3.66 1.227.701 2.585 1.089 3.841 1.717 1.868.934 5.908 3.144 7.637.316 1.164-1.905 2.678-6.713-1.13-6.913-2.834-.15-5.789-.407-8.54-.407"/><path d="m204.48 98.7422c.425-.0829 5.735-.5652 5.604-.8134-.579-1.0921-3.294-1.8951-4.383-2.44"/><path d="m199.194 125.583c3.107 1.492 6.425 1.555 9.76.814 4.54-1.009 9.025-1.305 13.669-1.604 3.87-.25 7.585-.452 11.455-.113 1.208.105 3.942.151 5.015-.52 1.152-.72 2.857.141 4.112-.294 1.909-.66 3.854-1.451 5.784-2.146 7.241-2.607 11.384-9.464 17.623-13.624 2.274-1.516 5.152-2.925 7.004-4.88 2.417-2.552 3.398-6.4547 4.067-9.7604.421-2.0802.552-4.9435 1.627-6.8231.662-1.1598 1.336-2.8509 1.626-4.1572.278-1.2516 1.152-2.5206 1.627-3.7505.417-1.0805.965-3.3056 1.695-4.1572 1.569-1.8308 6.032 3.3455 6.032 5.0835 0 2.4296-.817 4.8878-1.83 7.1169-.158.3467-.738 2.2253-.339 1.7171 1.528-1.9443 3.5-4.3706 5.422-5.9194 2.232-1.7979 3.836-3.8515 5.784-5.8743.974-1.011 1.564-2.3319 2.553-3.3212.538-.5374.273 3.1995.204 3.4116-.516 1.5774-1.184 3.4124-2.237 4.6994-1.674 2.046.082 1.4899 1.514.497 1.76-1.2211 3.284-1.8608 5.196-2.666 1.492-.6281 1.264.9742 1.198 1.9656-.129 1.9266-1.754 4.5262-3.028 6.0551-.463.5556 1.248.031 1.288.0225 1.586-.334 3.274-.4819 4.835-.9037 1.15-.311 1.627-1.7479 1.378.4971-.33 2.9666-3.51 4.6888-4.022 7.5009-.49 2.6977 5.653-.3096 5.174 1.446-.486 1.782-3.224 3.4871-4.586 4.4963-1.914 1.417-3.957 3.505-6.213 4.36-2.052.778-4.383.643-6.53 1.085-1.189.245-2.446.588-3.637.632-3.153.117-6.355 4.365-8.134 6.507-5.026 6.054-10.923 11.25-15.544 17.668-2.294 3.186-5.465 6.987-8.744 9.173-4.055 2.704-9.124 3.64-13.985 3.434-3.75-.158-7.555-.587-11.297-.587-4.177 0-7.728-1.447-11.703-2.44-3.878-.97-8.007-2.44-12.02-2.44-6.504 0-12.99.406-19.52.406"/><path d="m145.105 154.864c5.205 2.603 10.839 5.315 16.38 7.072 2.642.838 5.221 1.468 8.021 1.468 2.961 0 3.622-6.081 3.66-8.133.027-1.487.434-3.534 2.033-4.067"/><path d="m144.699 169.504c4.255 4.898 8.899 8.022 14.64 10.574 1.641.729 4.409.768 6.191.768 3.445 0 7.356-.854 10.732-1.604 4.239-.942 6.729-2.637 8.608-6.394.088-.177 1.97 4.826 2.123 5.784.511 3.191.167 6.389.61 9.58 1.153 8.299.204 16.503.204 24.807 0 4.344-.814 8.765-.814 13.014"/><path d="m223.188 177.231c.339 1.622.927 3.237 1.13 4.881.266 2.163-.102 4.355.316 6.506.72 3.706 1.832 7.161 2.824 10.8 1.467 5.379 2.206 10.707 3.954 15.951 1.11 3.329 1.969 6.748 3.163 10.031.621 1.709.793 4.008 2.44 5.106"/><path d="m178.046 150.798c-.491 2.64-.999 6.221.723 8.54 1.444 1.943 3.483 3.446 4.971 5.513 3.121 4.335 11.444 6.224 15.431 2.236 1.211-1.21 4.206-3.764 1.469-4.676-1.633-.545.518.348.903.587 1.084.673 2.053.924 3.254 1.311 5.661 1.819 13.207 1.502 18.888-.181 2.399-.711 2.454-2.762 3.57-4.7 1.334-2.317 1.947-5.162 2.846-7.636.075-.206.518-1.944.814-1.265 1.277 2.931.83 6.975 1.129 10.121.348 3.648-.374 7.44.294 11.049.715 3.862.753 8.064 2.643 11.635 1.204 2.273 5.749 3.66 8.134 3.66"/><path d="m244.742 146.73c.936 6.199 1.376 12.503 3.75 18.391 1.64 4.067 3.473 7.689 5.603 11.523 1.976 3.556 6.464 8.318 10.416 9.534 3.298 1.015.563 1.22-1.469 1.22-1.826 0-4.028-.302-5.716-1.061-.556-.251-2.052-1.248-1.649-.791.677.767 1.483 1.549 2.259 2.214 1.949 1.671.563 1.808-1.559 1.446-2.236-.382-3.41-1.198-5.151-2.395-2.284-1.571-.975.533-.813 2.146.155 1.556-3.904-.353-4.632-.949-1.306-1.068-1.903-2.668-3.479-3.456"/></g><g filter="url(#b)"><path d="m233.761 217.899c-4.064-.65-8.207-.406-12.313-.406-4.59 0-9.158-.407-13.737-.407-7.858 0-15.693.407-23.565.407"/><path d="m107.284 19.4401c-4.971 0-10.078-.8498-14.9568-1.7171-1.5825-.2813-3.585-.723-5.1739-.723-1.768 0-3.3024 1.09-4.9931 1.22-2.5058.1928-5.6111 2.557-7.8173 3.6602-3.625 1.8125-6.1504 4.5072-8.3144 7.9076-2.1267 3.3421-3.786 6.8235-4.496 10.7996-.6951 3.8924.6337 7.1219 1.4459 10.777.5466 2.4597 4.795 3.078 6.6877 2.2368.979-.4351 2.3833-1.1859 3.1404-1.9431 1.1834-1.1833 4.9157 1.3663 6.3262 1.8527 2.3217.8006 4.0597 1.9608 6.5972.9941 1.4867-.5663 3.502-.0742 5.0609-.5197.7775-.2221 1.565-.5793 2.3497-.8811 1.5113-.5813 2.4063-1.7422 3.7731-2.3497 1.2728-.5657 2.8326-.5393 3.9534-1.22 2.652-1.6098 6.046-1.9005 8.834-3.4342 2.287-1.2574 3.453-2.3478 5.061-4.4509 1.029-1.3448 9.417-15.2957 5.332-15.2957-3.992 0-5.636-2.6058-8.314-5.0609-.937-.8591-1.617-2.14-2.553-2.9823-.477-.4291-2.522-.0904-3.163-.0904"/><path d="m114.604 44.2476c.508 2.6058 1.22 5.0597 1.22 7.7269 0 2.8864-.407 5.6572-.407 8.5402 0 2.2711.651 4.6981 1.13 6.9136.337 1.5586.819 4.7547.475 6.3035-1.78 8.0092-11.416 12.8104-19.0918 12.8104"/><path d="m99.5571 85.3218c2.0129 2.5621 4.3879 5.8616 5.4899 8.9469.466 1.3053 1.328 2.0679 1.921 3.2535.604 1.2085 1.154 2.5638.723.4066"/><path d="m106.471 83.6956c-.465-2.501-.566-5.1763-.407-7.7269.017-.2737 2.118 1.1148 2.531 1.3104.996.4727 2.03 1.2167 2.756 1.943"/><path d="m113.791 59.2944c-3.065-1.1961-2.034-.9034-2.034-3.6601"/><path d="m104.437 58.481c1.617 2.8289 3.186 8.4422-1.017 9.3762-3.154.7008-5.8966-5.0895-5.8966-7.7495"/><path d="m102.404 58.0747c.946.1845 1.88.4067 2.847.4067"/><path d="m65.396 54.8213c.9893 6.3067 1.4155 12.9071 3.1631 19.0236.541 1.8935.497 4.3013.497 6.2809 0 1.4952.8134 2.9103.8134 4.3831"/><path d="m27.168 104.029c4.7636-3.334 8.2002-8.2991 13.1041-11.3868 1.8508-1.1653 3.7966-1.8569 5.8065-2.6434 1.716-.6715 4.2778-.8676 5.8064-1.8301 2.2423-1.4118 4.4414-1.22 7.1395-1.22 1.5444 0 2.9695.2513 4.4961.3841 1.2207.1061 1.2665.8986 2.3723 1.333 1.9393.7619 3.7108 1.3312 5.6257 2.1689 2.2395.9798 3.7548 3.0268 5.8517 4.225 2.8591 1.6338 5.9948 2.4627 9.3762 2.4627 1.8663 0 3.6253 1.22 5.5806 1.22 2.0175 0 3.8471.4067 5.9194.4067 4.3145 0 8.5985-1.5257 13.0135-.723 4.786.8702 9.519 1.8429 14.347 2.5529 3.115.458 5.558.966 8.36 2.259 1.973.911 3.757 2.231 5.738 3.164.933.438 1.83.429 2.734.881 3.853 1.926 7.464 2.535 11.703 3.434 2.719.576 5.605.987 8.224 1.943 5.896 2.151 11.757 3.994 17.668 6.032 4.656 1.606 9.675 3.806 14.686 4.044 1.271.061 2.865.226 4.067-.203.159-.057 1.249-.755 1.355-.542.304.608-1.462 3.373-1.762 4.089-.691 1.652-1.986 3.522-3.253 4.79-1.773 1.773-3.396 3.576-5.197 5.377-2.636 2.636-5.747 2.757-9.444 2.757-5.016 0-10.031 0-15.047 0-4.75 0-9.591.813-14.234.813"/><path d="m144.699 139.003c1.675 4.504.664 9.493-.497 14.008-.386 1.499-1.163 2.912-1.718 4.338-.772 1.987-.632 4.964-.632 7.094 0 9.767-1.22 19.456-1.22 29.259v23.881c0 3.869.813 7.482.813 11.297"/><path d="m27.168 128.837c1.4192 5.677 3.5619 11.039 4.9705 16.674.7707 3.082 1.5363 6.163 1.5363 9.353 0 3.321.7919 6.341 2.0334 9.444 1.8025 4.507 2.8468 9.863 2.8468 14.731 0 4.352.5692 8.743 1.4234 13.014.8421 4.211.9479 8.004 1.0167 12.336.1272 8.015-.1133 16.424 2.44 24.084"/><path d="m32.4548 143.884c0 3.931.4036 8.988-1.3104 12.607-.8674 1.831-2.0561 5.14-3.9764 6.1"/><path d="m32.4551 157.304c.8438 4.431 0 8.578 0 12.924 0 1.661.1643 3.75 2.056 3.75 1.8223 0 3.5606.161 5.2642-.407"/><path d="m27.168 186.585c3.4054 1.412 6.3938 2.44 10.167 2.44"/><path d="m25.948 104.843c-2.1704 1.323-4.3562 1.99-5.8969 4.044-1.564 2.085-1.3011 5.493-.2033 7.749 1.5011 3.086 4.5134 5.069 5.6935 8.315.9022 2.481 1.2201 4.5 1.2201 7.139"/><path d="m20.2545 119.483c-.0654 5.099-.1917 10.398-.9038 15.454-.6647 4.72-1.6617 9.452-1.943 14.234-.2923 4.969-.4067 9.89-.4067 14.866 0 3.057-.0822 7.107 1.2201 9.941 1.3754 2.994 3.5608 6.453 5.8742 8.767 2.0929 2.093 2.8286 4.437 5.9195 5.467"/><path d="m164.626 110.536c0-10.029 1.901-19.6805-2.938-28.8742-4.153-7.8914-.148-16.4349 5.784-22.3674 1.995-1.9949 4.507-3.3081 6.823-4.8801 2.98-2.0216 6.619-2.2699 9.806-3.8635 2.569-1.2845 5.901.2147 8.676.5196 2.148.2362 4.339-.1479 6.461.3163 3.093.6766 5.736 2.655 8.902 3.0276 2.293.2697 5.137 4.3249 6.1 6.1001 1.021 1.8801 2.44 3.2317 2.44 5.4902 0 .8561-.459 3.7653.226 4.4509 1.086 1.0857 2.144 3.6473 3.435 4.2927"/><path d="m215.461 64.9878c-5.628 1.1511-10.742.4067-16.268.4067"/><path d="m214.648 73.5282c-3.251-.0739-6.57-.8134-9.761-.8134"/><path d="m213.834 53.6011c6.336 1.3576 11.851 2.9029 16.177 8.1336 5.434 6.5717 6.817 14.6103 8.02 22.7966.85 5.7778 3.925 10.6741 6.507 15.8377.843 1.685 1.408 3.57 2.327 5.197.646 1.141 1.681 2.266 1.966 3.547.251 1.13 1.367 3.304 2.011 4.27"/><path d="m222.374 64.9878c3.475 2.4823 9.141 5.218 13.42 5.6935"/><path d="m223.188 71.4946c2.585 2.5849 4.893 5.719 6.507 8.947"/><path d="m171.539 114.603c1.481-1.955 3.14-3.79 4.564-5.784 1.68-2.352 2.449-4.933 3.773-7.433 1.349-2.5488 1.214-5.24 1.83-7.9755.318-1.4113.712-2.8444.836-4.2701.15-1.7238.145-3.5864.407-5.2868.231-1.5067.082-4.1671.881-5.445.252-.4033 1.066 1.6392 1.152 1.7848.486.8197 1.216 1.378 1.808 2.1012 1.087 1.3294 1.855 2.01 3.366 2.9372 2.858 1.7536 3.308 4.1216 5.58 6.3939.322.3217.512.6076.701 1.0167.495 1.072-1.055-2.1247-1.401-3.2535-.789-2.5732-.723-5.0251-.723-7.6817 0-2.2292 1.441 1.0882 1.943 1.9882.823 1.4758 2.079 2.5436 3.141 3.8409 1.573 1.9233 4.916 3.0823 6.958 4.496 1.351.9352 2.905 1.5535 3.999 2.8468 1.047 1.2374 2.066 2.947 3.389 3.8634 2.366 1.6375 1.08-4.0568 1.808-5.6935.821-1.8475 4.541-.4214 5.784.4067 3.7 2.4671 6.726 4.8999 7.975 9.1953.861 2.96 2.084 6.919 4.361 9.196 1.729 1.729 3.612 2.458 5.693 3.795 3.727 2.396 8.482 2.899 12.291.994"/><path d="m231.321 100.776c2.779 0 5.393-.133 8.134-.407"/><path d="m223.594 94.269c0 6.5-.407 13.075-.407 19.521 0 2.334-.137 3.302-1.129 5.286-.797 1.595-2.377 2.794-2.937 4.474"/><path d="m222.374 110.943c2.149-1.693 3.276-3.962 4.88-6.1"/><path d="m224.814 110.943c1.957 2.474 3.796 4.612 6.417 6.326.959.627 2.367.667 2.937 1.807"/><path d="m187.807 95.8954c1.116-1.5355 2.115-2.9562 3.253-4.4735"/><path d="m192.687 94.6758-2.034.4067"/><path d="m182.113 98.7422c.713 5.2638.917 8.6888 4.631 12.4038 2.015 2.015 1.099 4.824 4.316 5.897"/><path d="m189.84 102.81c0 1.927-.996 7.342 1.22 8.449 2.447 1.224.406 3.935.406 6.191"/><path d="m193.907 110.943c1.11 1.11 2.106 2.875 3.479 3.66 1.227.701 2.585 1.089 3.841 1.717 1.868.934 5.908 3.144 7.637.316 1.164-1.905 2.678-6.713-1.13-6.913-2.834-.15-5.789-.407-8.54-.407"/><path d="m204.48 98.7422c.425-.0829 5.735-.5652 5.604-.8134-.579-1.0921-3.294-1.8951-4.383-2.44"/><path d="m199.194 125.583c3.107 1.492 6.425 1.555 9.76.814 4.54-1.009 9.025-1.305 13.669-1.604 3.87-.25 7.585-.452 11.455-.113 1.208.105 3.942.151 5.015-.52 1.152-.72 2.857.141 4.112-.294 1.909-.66 3.854-1.451 5.784-2.146 7.241-2.607 11.384-9.464 17.623-13.624 2.274-1.516 5.152-2.925 7.004-4.88 2.417-2.552 3.398-6.4547 4.067-9.7604.421-2.0802.552-4.9435 1.627-6.8231.662-1.1598 1.336-2.8509 1.626-4.1572.278-1.2516 1.152-2.5206 1.627-3.7505.417-1.0805.965-3.3056 1.695-4.1572 1.569-1.8308 6.032 3.3455 6.032 5.0835 0 2.4296-.817 4.8878-1.83 7.1169-.158.3467-.738 2.2253-.339 1.7171 1.528-1.9443 3.5-4.3706 5.422-5.9194 2.232-1.7979 3.836-3.8515 5.784-5.8743.974-1.011 1.564-2.3319 2.553-3.3212.538-.5374.273 3.1995.204 3.4116-.516 1.5774-1.184 3.4124-2.237 4.6994-1.674 2.046.082 1.4899 1.514.497 1.76-1.2211 3.284-1.8608 5.196-2.666 1.492-.6281 1.264.9742 1.198 1.9656-.129 1.9266-1.754 4.5262-3.028 6.0551-.463.5556 1.248.031 1.288.0225 1.586-.334 3.274-.4819 4.835-.9037 1.15-.311 1.627-1.7479 1.378.4971-.33 2.9666-3.51 4.6888-4.022 7.5009-.49 2.6977 5.653-.3096 5.174 1.446-.486 1.782-3.224 3.4871-4.586 4.4963-1.914 1.417-3.957 3.505-6.213 4.36-2.052.778-4.383.643-6.53 1.085-1.189.245-2.446.588-3.637.632-3.153.117-6.355 4.365-8.134 6.507-5.026 6.054-10.923 11.25-15.544 17.668-2.294 3.186-5.465 6.987-8.744 9.173-4.055 2.704-9.124 3.64-13.985 3.434-3.75-.158-7.555-.587-11.297-.587-4.177 0-7.728-1.447-11.703-2.44-3.878-.97-8.007-2.44-12.02-2.44-6.504 0-12.99.406-19.52.406"/><path d="m145.105 154.864c5.205 2.603 10.839 5.315 16.38 7.072 2.642.838 5.221 1.468 8.021 1.468 2.961 0 3.622-6.081 3.66-8.133.027-1.487.434-3.534 2.033-4.067"/><path d="m144.699 169.504c4.255 4.898 8.899 8.022 14.64 10.574 1.641.729 4.409.768 6.191.768 3.445 0 7.356-.854 10.732-1.604 4.239-.942 6.729-2.637 8.608-6.394.088-.177 1.97 4.826 2.123 5.784.511 3.191.167 6.389.61 9.58 1.153 8.299.204 16.503.204 24.807 0 4.344-.814 8.765-.814 13.014"/><path d="m223.188 177.231c.339 1.622.927 3.237 1.13 4.881.266 2.163-.102 4.355.316 6.506.72 3.706 1.832 7.161 2.824 10.8 1.467 5.379 2.206 10.707 3.954 15.951 1.11 3.329 1.969 6.748 3.163 10.031.621 1.709.793 4.008 2.44 5.106"/><path d="m178.046 150.798c-.491 2.64-.999 6.221.723 8.54 1.444 1.943 3.483 3.446 4.971 5.513 3.121 4.335 11.444 6.224 15.431 2.236 1.211-1.21 4.206-3.764 1.469-4.676-1.633-.545.518.348.903.587 1.084.673 2.053.924 3.254 1.311 5.661 1.819 13.207 1.502 18.888-.181 2.399-.711 2.454-2.762 3.57-4.7 1.334-2.317 1.947-5.162 2.846-7.636.075-.206.518-1.944.814-1.265 1.277 2.931.83 6.975 1.129 10.121.348 3.648-.374 7.44.294 11.049.715 3.862.753 8.064 2.643 11.635 1.204 2.273 5.749 3.66 8.134 3.66"/><path d="m244.742 146.73c.936 6.199 1.376 12.503 3.75 18.391 1.64 4.067 3.473 7.689 5.603 11.523 1.976 3.556 6.464 8.318 10.416 9.534 3.298 1.015.563 1.22-1.469 1.22-1.826 0-4.028-.302-5.716-1.061-.556-.251-2.052-1.248-1.649-.791.677.767 1.483 1.549 2.259 2.214 1.949 1.671.563 1.808-1.559 1.446-2.236-.382-3.41-1.198-5.151-2.395-2.284-1.571-.975.533-.813 2.146.155 1.556-3.904-.353-4.632-.949-1.306-1.068-1.903-2.668-3.479-3.456"/><path d="m233.761 217.899c-4.064-.65-8.207-.406-12.313-.406-4.59 0-9.158-.407-13.737-.407-7.858 0-15.693.407-23.565.407"/><path d="m107.284 19.4401c-4.971 0-10.078-.8498-14.9568-1.7171-1.5825-.2813-3.585-.723-5.1739-.723-1.768 0-3.3024 1.09-4.9931 1.22-2.5058.1928-5.6111 2.557-7.8173 3.6602-3.625 1.8125-6.1504 4.5072-8.3144 7.9076-2.1267 3.3421-3.786 6.8235-4.496 10.7996-.6951 3.8924.6337 7.1219 1.4459 10.777.5466 2.4597 4.795 3.078 6.6877 2.2368.979-.4351 2.3833-1.1859 3.1404-1.9431 1.1834-1.1833 4.9157 1.3663 6.3262 1.8527 2.3217.8006 4.0597 1.9608 6.5972.9941 1.4867-.5663 3.502-.0742 5.0609-.5197.7775-.2221 1.565-.5793 2.3497-.8811 1.5113-.5813 2.4063-1.7422 3.7731-2.3497 1.2728-.5657 2.8326-.5393 3.9534-1.22 2.652-1.6098 6.046-1.9005 8.834-3.4342 2.287-1.2574 3.453-2.3478 5.061-4.4509 1.029-1.3448 9.417-15.2957 5.332-15.2957-3.992 0-5.636-2.6058-8.314-5.0609-.937-.8591-1.617-2.14-2.553-2.9823-.477-.4291-2.522-.0904-3.163-.0904"/><path d="m114.604 44.2476c.508 2.6058 1.22 5.0597 1.22 7.7269 0 2.8864-.407 5.6572-.407 8.5402 0 2.2711.651 4.6981 1.13 6.9136.337 1.5586.819 4.7547.475 6.3035-1.78 8.0092-11.416 12.8104-19.0918 12.8104"/><path d="m99.5571 85.3218c2.0129 2.5621 4.3879 5.8616 5.4899 8.9469.466 1.3053 1.328 2.0679 1.921 3.2535.604 1.2085 1.154 2.5638.723.4066"/><path d="m106.471 83.6956c-.465-2.501-.566-5.1763-.407-7.7269.017-.2737 2.118 1.1148 2.531 1.3104.996.4727 2.03 1.2167 2.756 1.943"/><path d="m113.791 59.2944c-3.065-1.1961-2.034-.9034-2.034-3.6601"/><path d="m104.437 58.481c1.617 2.8289 3.186 8.4422-1.017 9.3762-3.154.7008-5.8966-5.0895-5.8966-7.7495"/><path d="m102.404 58.0747c.946.1845 1.88.4067 2.847.4067"/><path d="m65.396 54.8213c.9893 6.3067 1.4155 12.9071 3.1631 19.0236.541 1.8935.497 4.3013.497 6.2809 0 1.4952.8134 2.9103.8134 4.3831"/><path d="m27.168 104.029c4.7636-3.334 8.2002-8.2991 13.1041-11.3868 1.8508-1.1653 3.7966-1.8569 5.8065-2.6434 1.716-.6715 4.2778-.8676 5.8064-1.8301 2.2423-1.4118 4.4414-1.22 7.1395-1.22 1.5444 0 2.9695.2513 4.4961.3841 1.2207.1061 1.2665.8986 2.3723 1.333 1.9393.7619 3.7108 1.3312 5.6257 2.1689 2.2395.9798 3.7548 3.0268 5.8517 4.225 2.8591 1.6338 5.9948 2.4627 9.3762 2.4627 1.8663 0 3.6253 1.22 5.5806 1.22 2.0175 0 3.8471.4067 5.9194.4067 4.3145 0 8.5985-1.5257 13.0135-.723 4.786.8702 9.519 1.8429 14.347 2.5529 3.115.458 5.558.966 8.36 2.259 1.973.911 3.757 2.231 5.738 3.164.933.438 1.83.429 2.734.881 3.853 1.926 7.464 2.535 11.703 3.434 2.719.576 5.605.987 8.224 1.943 5.896 2.151 11.757 3.994 17.668 6.032 4.656 1.606 9.675 3.806 14.686 4.044 1.271.061 2.865.226 4.067-.203.159-.057 1.249-.755 1.355-.542.304.608-1.462 3.373-1.762 4.089-.691 1.652-1.986 3.522-3.253 4.79-1.773 1.773-3.396 3.576-5.197 5.377-2.636 2.636-5.747 2.757-9.444 2.757-5.016 0-10.031 0-15.047 0-4.75 0-9.591.813-14.234.813"/><path d="m144.699 139.003c1.675 4.504.664 9.493-.497 14.008-.386 1.499-1.163 2.912-1.718 4.338-.772 1.987-.632 4.964-.632 7.094 0 9.767-1.22 19.456-1.22 29.259v23.881c0 3.869.813 7.482.813 11.297"/><path d="m27.168 128.837c1.4192 5.677 3.5619 11.039 4.9705 16.674.7707 3.082 1.5363 6.163 1.5363 9.353 0 3.321.7919 6.341 2.0334 9.444 1.8025 4.507 2.8468 9.863 2.8468 14.731 0 4.352.5692 8.743 1.4234 13.014.8421 4.211.9479 8.004 1.0167 12.336.1272 8.015-.1133 16.424 2.44 24.084"/><path d="m32.4548 143.884c0 3.931.4036 8.988-1.3104 12.607-.8674 1.831-2.0561 5.14-3.9764 6.1"/><path d="m32.4551 157.304c.8438 4.431 0 8.578 0 12.924 0 1.661.1643 3.75 2.056 3.75 1.8223 0 3.5606.161 5.2642-.407"/><path d="m27.168 186.585c3.4054 1.412 6.3938 2.44 10.167 2.44"/><path d="m25.948 104.843c-2.1704 1.323-4.3562 1.99-5.8969 4.044-1.564 2.085-1.3011 5.493-.2033 7.749 1.5011 3.086 4.5134 5.069 5.6935 8.315.9022 2.481 1.2201 4.5 1.2201 7.139"/><path d="m20.2545 119.483c-.0654 5.099-.1917 10.398-.9038 15.454-.6647 4.72-1.6617 9.452-1.943 14.234-.2923 4.969-.4067 9.89-.4067 14.866 0 3.057-.0822 7.107 1.2201 9.941 1.3754 2.994 3.5608 6.453 5.8742 8.767 2.0929 2.093 2.8286 4.437 5.9195 5.467"/><path d="m164.626 110.536c0-10.029 1.901-19.6805-2.938-28.8742-4.153-7.8914-.148-16.4349 5.784-22.3674 1.995-1.9949 4.507-3.3081 6.823-4.8801 2.98-2.0216 6.619-2.2699 9.806-3.8635 2.569-1.2845 5.901.2147 8.676.5196 2.148.2362 4.339-.1479 6.461.3163 3.093.6766 5.736 2.655 8.902 3.0276 2.293.2697 5.137 4.3249 6.1 6.1001 1.021 1.8801 2.44 3.2317 2.44 5.4902 0 .8561-.459 3.7653.226 4.4509 1.086 1.0857 2.144 3.6473 3.435 4.2927"/><path d="m215.461 64.9878c-5.628 1.1511-10.742.4067-16.268.4067"/><path d="m214.648 73.5282c-3.251-.0739-6.57-.8134-9.761-.8134"/><path d="m213.834 53.6011c6.336 1.3576 11.851 2.9029 16.177 8.1336 5.434 6.5717 6.817 14.6103 8.02 22.7966.85 5.7778 3.925 10.6741 6.507 15.8377.843 1.685 1.408 3.57 2.327 5.197.646 1.141 1.681 2.266 1.966 3.547.251 1.13 1.367 3.304 2.011 4.27"/><path d="m222.374 64.9878c3.475 2.4823 9.141 5.218 13.42 5.6935"/><path d="m223.188 71.4946c2.585 2.5849 4.893 5.719 6.507 8.947"/><path d="m171.539 114.603c1.481-1.955 3.14-3.79 4.564-5.784 1.68-2.352 2.449-4.933 3.773-7.433 1.349-2.5488 1.214-5.24 1.83-7.9755.318-1.4113.712-2.8444.836-4.2701.15-1.7238.145-3.5864.407-5.2868.231-1.5067.082-4.1671.881-5.445.252-.4033 1.066 1.6392 1.152 1.7848.486.8197 1.216 1.378 1.808 2.1012 1.087 1.3294 1.855 2.01 3.366 2.9372 2.858 1.7536 3.308 4.1216 5.58 6.3939.322.3217.512.6076.701 1.0167.495 1.072-1.055-2.1247-1.401-3.2535-.789-2.5732-.723-5.0251-.723-7.6817 0-2.2292 1.441 1.0882 1.943 1.9882.823 1.4758 2.079 2.5436 3.141 3.8409 1.573 1.9233 4.916 3.0823 6.958 4.496 1.351.9352 2.905 1.5535 3.999 2.8468 1.047 1.2374 2.066 2.947 3.389 3.8634 2.366 1.6375 1.08-4.0568 1.808-5.6935.821-1.8475 4.541-.4214 5.784.4067 3.7 2.4671 6.726 4.8999 7.975 9.1953.861 2.96 2.084 6.919 4.361 9.196 1.729 1.729 3.612 2.458 5.693 3.795 3.727 2.396 8.482 2.899 12.291.994"/><path d="m231.321 100.776c2.779 0 5.393-.133 8.134-.407"/><path d="m223.594 94.269c0 6.5-.407 13.075-.407 19.521 0 2.334-.137 3.302-1.129 5.286-.797 1.595-2.377 2.794-2.937 4.474"/><path d="m222.374 110.943c2.149-1.693 3.276-3.962 4.88-6.1"/><path d="m224.814 110.943c1.957 2.474 3.796 4.612 6.417 6.326.959.627 2.367.667 2.937 1.807"/><path d="m187.807 95.8954c1.116-1.5355 2.115-2.9562 3.253-4.4735"/><path d="m192.687 94.6758-2.034.4067"/><path d="m182.113 98.7422c.713 5.2638.917 8.6888 4.631 12.4038 2.015 2.015 1.099 4.824 4.316 5.897"/><path d="m189.84 102.81c0 1.927-.996 7.342 1.22 8.449 2.447 1.224.406 3.935.406 6.191"/><path d="m193.907 110.943c1.11 1.11 2.106 2.875 3.479 3.66 1.227.701 2.585 1.089 3.841 1.717 1.868.934 5.908 3.144 7.637.316 1.164-1.905 2.678-6.713-1.13-6.913-2.834-.15-5.789-.407-8.54-.407"/><path d="m204.48 98.7422c.425-.0829 5.735-.5652 5.604-.8134-.579-1.0921-3.294-1.8951-4.383-2.44"/><path d="m199.194 125.583c3.107 1.492 6.425 1.555 9.76.814 4.54-1.009 9.025-1.305 13.669-1.604 3.87-.25 7.585-.452 11.455-.113 1.208.105 3.942.151 5.015-.52 1.152-.72 2.857.141 4.112-.294 1.909-.66 3.854-1.451 5.784-2.146 7.241-2.607 11.384-9.464 17.623-13.624 2.274-1.516 5.152-2.925 7.004-4.88 2.417-2.552 3.398-6.4547 4.067-9.7604.421-2.0802.552-4.9435 1.627-6.8231.662-1.1598 1.336-2.8509 1.626-4.1572.278-1.2516 1.152-2.5206 1.627-3.7505.417-1.0805.965-3.3056 1.695-4.1572 1.569-1.8308 6.032 3.3455 6.032 5.0835 0 2.4296-.817 4.8878-1.83 7.1169-.158.3467-.738 2.2253-.339 1.7171 1.528-1.9443 3.5-4.3706 5.422-5.9194 2.232-1.7979 3.836-3.8515 5.784-5.8743.974-1.011 1.564-2.3319 2.553-3.3212.538-.5374.273 3.1995.204 3.4116-.516 1.5774-1.184 3.4124-2.237 4.6994-1.674 2.046.082 1.4899 1.514.497 1.76-1.2211 3.284-1.8608 5.196-2.666 1.492-.6281 1.264.9742 1.198 1.9656-.129 1.9266-1.754 4.5262-3.028 6.0551-.463.5556 1.248.031 1.288.0225 1.586-.334 3.274-.4819 4.835-.9037 1.15-.311 1.627-1.7479 1.378.4971-.33 2.9666-3.51 4.6888-4.022 7.5009-.49 2.6977 5.653-.3096 5.174 1.446-.486 1.782-3.224 3.4871-4.586 4.4963-1.914 1.417-3.957 3.505-6.213 4.36-2.052.778-4.383.643-6.53 1.085-1.189.245-2.446.588-3.637.632-3.153.117-6.355 4.365-8.134 6.507-5.026 6.054-10.923 11.25-15.544 17.668-2.294 3.186-5.465 6.987-8.744 9.173-4.055 2.704-9.124 3.64-13.985 3.434-3.75-.158-7.555-.587-11.297-.587-4.177 0-7.728-1.447-11.703-2.44-3.878-.97-8.007-2.44-12.02-2.44-6.504 0-12.99.406-19.52.406"/><path d="m145.105 154.864c5.205 2.603 10.839 5.315 16.38 7.072 2.642.838 5.221 1.468 8.021 1.468 2.961 0 3.622-6.081 3.66-8.133.027-1.487.434-3.534 2.033-4.067"/><path d="m144.699 169.504c4.255 4.898 8.899 8.022 14.64 10.574 1.641.729 4.409.768 6.191.768 3.445 0 7.356-.854 10.732-1.604 4.239-.942 6.729-2.637 8.608-6.394.088-.177 1.97 4.826 2.123 5.784.511 3.191.167 6.389.61 9.58 1.153 8.299.204 16.503.204 24.807 0 4.344-.814 8.765-.814 13.014"/><path d="m223.188 177.231c.339 1.622.927 3.237 1.13 4.881.266 2.163-.102 4.355.316 6.506.72 3.706 1.832 7.161 2.824 10.8 1.467 5.379 2.206 10.707 3.954 15.951 1.11 3.329 1.969 6.748 3.163 10.031.621 1.709.793 4.008 2.44 5.106"/><path d="m178.046 150.798c-.491 2.64-.999 6.221.723 8.54 1.444 1.943 3.483 3.446 4.971 5.513 3.121 4.335 11.444 6.224 15.431 2.236 1.211-1.21 4.206-3.764 1.469-4.676-1.633-.545.518.348.903.587 1.084.673 2.053.924 3.254 1.311 5.661 1.819 13.207 1.502 18.888-.181 2.399-.711 2.454-2.762 3.57-4.7 1.334-2.317 1.947-5.162 2.846-7.636.075-.206.518-1.944.814-1.265 1.277 2.931.83 6.975 1.129 10.121.348 3.648-.374 7.44.294 11.049.715 3.862.753 8.064 2.643 11.635 1.204 2.273 5.749 3.66 8.134 3.66"/><path d="m244.742 146.73c.936 6.199 1.376 12.503 3.75 18.391 1.64 4.067 3.473 7.689 5.603 11.523 1.976 3.556 6.464 8.318 10.416 9.534 3.298 1.015.563 1.22-1.469 1.22-1.826 0-4.028-.302-5.716-1.061-.556-.251-2.052-1.248-1.649-.791.677.767 1.483 1.549 2.259 2.214 1.949 1.671.563 1.808-1.559 1.446-2.236-.382-3.41-1.198-5.151-2.395-2.284-1.571-.975.533-.813 2.146.155 1.556-3.904-.353-4.632-.949-1.306-1.068-1.903-2.668-3.479-3.456"/><path d="m233.761 217.899c-4.064-.65-8.207-.406-12.313-.406-4.59 0-9.158-.407-13.737-.407-7.858 0-15.693.407-23.565.407"/><path d="m107.284 19.4401c-4.971 0-10.078-.8498-14.9568-1.7171-1.5825-.2813-3.585-.723-5.1739-.723-1.768 0-3.3024 1.09-4.9931 1.22-2.5058.1928-5.6111 2.557-7.8173 3.6602-3.625 1.8125-6.1504 4.5072-8.3144 7.9076-2.1267 3.3421-3.786 6.8235-4.496 10.7996-.6951 3.8924.6337 7.1219 1.4459 10.777.5466 2.4597 4.795 3.078 6.6877 2.2368.979-.4351 2.3833-1.1859 3.1404-1.9431 1.1834-1.1833 4.9157 1.3663 6.3262 1.8527 2.3217.8006 4.0597 1.9608 6.5972.9941 1.4867-.5663 3.502-.0742 5.0609-.5197.7775-.2221 1.565-.5793 2.3497-.8811 1.5113-.5813 2.4063-1.7422 3.7731-2.3497 1.2728-.5657 2.8326-.5393 3.9534-1.22 2.652-1.6098 6.046-1.9005 8.834-3.4342 2.287-1.2574 3.453-2.3478 5.061-4.4509 1.029-1.3448 9.417-15.2957 5.332-15.2957-3.992 0-5.636-2.6058-8.314-5.0609-.937-.8591-1.617-2.14-2.553-2.9823-.477-.4291-2.522-.0904-3.163-.0904"/><path d="m114.604 44.2476c.508 2.6058 1.22 5.0597 1.22 7.7269 0 2.8864-.407 5.6572-.407 8.5402 0 2.2711.651 4.6981 1.13 6.9136.337 1.5586.819 4.7547.475 6.3035-1.78 8.0092-11.416 12.8104-19.0918 12.8104"/><path d="m99.5571 85.3218c2.0129 2.5621 4.3879 5.8616 5.4899 8.9469.466 1.3053 1.328 2.0679 1.921 3.2535.604 1.2085 1.154 2.5638.723.4066"/><path d="m106.471 83.6956c-.465-2.501-.566-5.1763-.407-7.7269.017-.2737 2.118 1.1148 2.531 1.3104.996.4727 2.03 1.2167 2.756 1.943"/><path d="m113.791 59.2944c-3.065-1.1961-2.034-.9034-2.034-3.6601"/><path d="m104.437 58.481c1.617 2.8289 3.186 8.4422-1.017 9.3762-3.154.7008-5.8966-5.0895-5.8966-7.7495"/><path d="m102.404 58.0747c.946.1845 1.88.4067 2.847.4067"/><path d="m65.396 54.8213c.9893 6.3067 1.4155 12.9071 3.1631 19.0236.541 1.8935.497 4.3013.497 6.2809 0 1.4952.8134 2.9103.8134 4.3831"/><path d="m27.168 104.029c4.7636-3.334 8.2002-8.2991 13.1041-11.3868 1.8508-1.1653 3.7966-1.8569 5.8065-2.6434 1.716-.6715 4.2778-.8676 5.8064-1.8301 2.2423-1.4118 4.4414-1.22 7.1395-1.22 1.5444 0 2.9695.2513 4.4961.3841 1.2207.1061 1.2665.8986 2.3723 1.333 1.9393.7619 3.7108 1.3312 5.6257 2.1689 2.2395.9798 3.7548 3.0268 5.8517 4.225 2.8591 1.6338 5.9948 2.4627 9.3762 2.4627 1.8663 0 3.6253 1.22 5.5806 1.22 2.0175 0 3.8471.4067 5.9194.4067 4.3145 0 8.5985-1.5257 13.0135-.723 4.786.8702 9.519 1.8429 14.347 2.5529 3.115.458 5.558.966 8.36 2.259 1.973.911 3.757 2.231 5.738 3.164.933.438 1.83.429 2.734.881 3.853 1.926 7.464 2.535 11.703 3.434 2.719.576 5.605.987 8.224 1.943 5.896 2.151 11.757 3.994 17.668 6.032 4.656 1.606 9.675 3.806 14.686 4.044 1.271.061 2.865.226 4.067-.203.159-.057 1.249-.755 1.355-.542.304.608-1.462 3.373-1.762 4.089-.691 1.652-1.986 3.522-3.253 4.79-1.773 1.773-3.396 3.576-5.197 5.377-2.636 2.636-5.747 2.757-9.444 2.757-5.016 0-10.031 0-15.047 0-4.75 0-9.591.813-14.234.813"/><path d="m144.699 139.003c1.675 4.504.664 9.493-.497 14.008-.386 1.499-1.163 2.912-1.718 4.338-.772 1.987-.632 4.964-.632 7.094 0 9.767-1.22 19.456-1.22 29.259v23.881c0 3.869.813 7.482.813 11.297"/><path d="m27.168 128.837c1.4192 5.677 3.5619 11.039 4.9705 16.674.7707 3.082 1.5363 6.163 1.5363 9.353 0 3.321.7919 6.341 2.0334 9.444 1.8025 4.507 2.8468 9.863 2.8468 14.731 0 4.352.5692 8.743 1.4234 13.014.8421 4.211.9479 8.004 1.0167 12.336.1272 8.015-.1133 16.424 2.44 24.084"/><path d="m32.4548 143.884c0 3.931.4036 8.988-1.3104 12.607-.8674 1.831-2.0561 5.14-3.9764 6.1"/><path d="m32.4551 157.304c.8438 4.431 0 8.578 0 12.924 0 1.661.1643 3.75 2.056 3.75 1.8223 0 3.5606.161 5.2642-.407"/><path d="m27.168 186.585c3.4054 1.412 6.3938 2.44 10.167 2.44"/><path d="m25.948 104.843c-2.1704 1.323-4.3562 1.99-5.8969 4.044-1.564 2.085-1.3011 5.493-.2033 7.749 1.5011 3.086 4.5134 5.069 5.6935 8.315.9022 2.481 1.2201 4.5 1.2201 7.139"/><path d="m20.2545 119.483c-.0654 5.099-.1917 10.398-.9038 15.454-.6647 4.72-1.6617 9.452-1.943 14.234-.2923 4.969-.4067 9.89-.4067 14.866 0 3.057-.0822 7.107 1.2201 9.941 1.3754 2.994 3.5608 6.453 5.8742 8.767 2.0929 2.093 2.8286 4.437 5.9195 5.467"/><path d="m164.626 110.536c0-10.029 1.901-19.6805-2.938-28.8742-4.153-7.8914-.148-16.4349 5.784-22.3674 1.995-1.9949 4.507-3.3081 6.823-4.8801 2.98-2.0216 6.619-2.2699 9.806-3.8635 2.569-1.2845 5.901.2147 8.676.5196 2.148.2362 4.339-.1479 6.461.3163 3.093.6766 5.736 2.655 8.902 3.0276 2.293.2697 5.137 4.3249 6.1 6.1001 1.021 1.8801 2.44 3.2317 2.44 5.4902 0 .8561-.459 3.7653.226 4.4509 1.086 1.0857 2.144 3.6473 3.435 4.2927"/><path d="m215.461 64.9878c-5.628 1.1511-10.742.4067-16.268.4067"/><path d="m214.648 73.5282c-3.251-.0739-6.57-.8134-9.761-.8134"/><path d="m213.834 53.6011c6.336 1.3576 11.851 2.9029 16.177 8.1336 5.434 6.5717 6.817 14.6103 8.02 22.7966.85 5.7778 3.925 10.6741 6.507 15.8377.843 1.685 1.408 3.57 2.327 5.197.646 1.141 1.681 2.266 1.966 3.547.251 1.13 1.367 3.304 2.011 4.27"/><path d="m222.374 64.9878c3.475 2.4823 9.141 5.218 13.42 5.6935"/><path d="m223.188 71.4946c2.585 2.5849 4.893 5.719 6.507 8.947"/><path d="m171.539 114.603c1.481-1.955 3.14-3.79 4.564-5.784 1.68-2.352 2.449-4.933 3.773-7.433 1.349-2.5488 1.214-5.24 1.83-7.9755.318-1.4113.712-2.8444.836-4.2701.15-1.7238.145-3.5864.407-5.2868.231-1.5067.082-4.1671.881-5.445.252-.4033 1.066 1.6392 1.152 1.7848.486.8197 1.216 1.378 1.808 2.1012 1.087 1.3294 1.855 2.01 3.366 2.9372 2.858 1.7536 3.308 4.1216 5.58 6.3939.322.3217.512.6076.701 1.0167.495 1.072-1.055-2.1247-1.401-3.2535-.789-2.5732-.723-5.0251-.723-7.6817 0-2.2292 1.441 1.0882 1.943 1.9882.823 1.4758 2.079 2.5436 3.141 3.8409 1.573 1.9233 4.916 3.0823 6.958 4.496 1.351.9352 2.905 1.5535 3.999 2.8468 1.047 1.2374 2.066 2.947 3.389 3.8634 2.366 1.6375 1.08-4.0568 1.808-5.6935.821-1.8475 4.541-.4214 5.784.4067 3.7 2.4671 6.726 4.8999 7.975 9.1953.861 2.96 2.084 6.919 4.361 9.196 1.729 1.729 3.612 2.458 5.693 3.795 3.727 2.396 8.482 2.899 12.291.994"/><path d="m231.321 100.776c2.779 0 5.393-.133 8.134-.407"/><path d="m223.594 94.269c0 6.5-.407 13.075-.407 19.521 0 2.334-.137 3.302-1.129 5.286-.797 1.595-2.377 2.794-2.937 4.474"/><path d="m222.374 110.943c2.149-1.693 3.276-3.962 4.88-6.1"/><path d="m224.814 110.943c1.957 2.474 3.796 4.612 6.417 6.326.959.627 2.367.667 2.937 1.807"/><path d="m187.807 95.8954c1.116-1.5355 2.115-2.9562 3.253-4.4735"/><path d="m192.687 94.6758-2.034.4067"/><path d="m182.113 98.7422c.713 5.2638.917 8.6888 4.631 12.4038 2.015 2.015 1.099 4.824 4.316 5.897"/><path d="m189.84 102.81c0 1.927-.996 7.342 1.22 8.449 2.447 1.224.406 3.935.406 6.191"/><path d="m193.907 110.943c1.11 1.11 2.106 2.875 3.479 3.66 1.227.701 2.585 1.089 3.841 1.717 1.868.934 5.908 3.144 7.637.316 1.164-1.905 2.678-6.713-1.13-6.913-2.834-.15-5.789-.407-8.54-.407"/><path d="m204.48 98.7422c.425-.0829 5.735-.5652 5.604-.8134-.579-1.0921-3.294-1.8951-4.383-2.44"/><path d="m199.194 125.583c3.107 1.492 6.425 1.555 9.76.814 4.54-1.009 9.025-1.305 13.669-1.604 3.87-.25 7.585-.452 11.455-.113 1.208.105 3.942.151 5.015-.52 1.152-.72 2.857.141 4.112-.294 1.909-.66 3.854-1.451 5.784-2.146 7.241-2.607 11.384-9.464 17.623-13.624 2.274-1.516 5.152-2.925 7.004-4.88 2.417-2.552 3.398-6.4547 4.067-9.7604.421-2.0802.552-4.9435 1.627-6.8231.662-1.1598 1.336-2.8509 1.626-4.1572.278-1.2516 1.152-2.5206 1.627-3.7505.417-1.0805.965-3.3056 1.695-4.1572 1.569-1.8308 6.032 3.3455 6.032 5.0835 0 2.4296-.817 4.8878-1.83 7.1169-.158.3467-.738 2.2253-.339 1.7171 1.528-1.9443 3.5-4.3706 5.422-5.9194 2.232-1.7979 3.836-3.8515 5.784-5.8743.974-1.011 1.564-2.3319 2.553-3.3212.538-.5374.273 3.1995.204 3.4116-.516 1.5774-1.184 3.4124-2.237 4.6994-1.674 2.046.082 1.4899 1.514.497 1.76-1.2211 3.284-1.8608 5.196-2.666 1.492-.6281 1.264.9742 1.198 1.9656-.129 1.9266-1.754 4.5262-3.028 6.0551-.463.5556 1.248.031 1.288.0225 1.586-.334 3.274-.4819 4.835-.9037 1.15-.311 1.627-1.7479 1.378.4971-.33 2.9666-3.51 4.6888-4.022 7.5009-.49 2.6977 5.653-.3096 5.174 1.446-.486 1.782-3.224 3.4871-4.586 4.4963-1.914 1.417-3.957 3.505-6.213 4.36-2.052.778-4.383.643-6.53 1.085-1.189.245-2.446.588-3.637.632-3.153.117-6.355 4.365-8.134 6.507-5.026 6.054-10.923 11.25-15.544 17.668-2.294 3.186-5.465 6.987-8.744 9.173-4.055 2.704-9.124 3.64-13.985 3.434-3.75-.158-7.555-.587-11.297-.587-4.177 0-7.728-1.447-11.703-2.44-3.878-.97-8.007-2.44-12.02-2.44-6.504 0-12.99.406-19.52.406"/><path d="m145.105 154.864c5.205 2.603 10.839 5.315 16.38 7.072 2.642.838 5.221 1.468 8.021 1.468 2.961 0 3.622-6.081 3.66-8.133.027-1.487.434-3.534 2.033-4.067"/><path d="m144.699 169.504c4.255 4.898 8.899 8.022 14.64 10.574 1.641.729 4.409.768 6.191.768 3.445 0 7.356-.854 10.732-1.604 4.239-.942 6.729-2.637 8.608-6.394.088-.177 1.97 4.826 2.123 5.784.511 3.191.167 6.389.61 9.58 1.153 8.299.204 16.503.204 24.807 0 4.344-.814 8.765-.814 13.014"/><path d="m223.188 177.231c.339 1.622.927 3.237 1.13 4.881.266 2.163-.102 4.355.316 6.506.72 3.706 1.832 7.161 2.824 10.8 1.467 5.379 2.206 10.707 3.954 15.951 1.11 3.329 1.969 6.748 3.163 10.031.621 1.709.793 4.008 2.44 5.106"/><path d="m178.046 150.798c-.491 2.64-.999 6.221.723 8.54 1.444 1.943 3.483 3.446 4.971 5.513 3.121 4.335 11.444 6.224 15.431 2.236 1.211-1.21 4.206-3.764 1.469-4.676-1.633-.545.518.348.903.587 1.084.673 2.053.924 3.254 1.311 5.661 1.819 13.207 1.502 18.888-.181 2.399-.711 2.454-2.762 3.57-4.7 1.334-2.317 1.947-5.162 2.846-7.636.075-.206.518-1.944.814-1.265 1.277 2.931.83 6.975 1.129 10.121.348 3.648-.374 7.44.294 11.049.715 3.862.753 8.064 2.643 11.635 1.204 2.273 5.749 3.66 8.134 3.66"/><path d="m244.742 146.73c.936 6.199 1.376 12.503 3.75 18.391 1.64 4.067 3.473 7.689 5.603 11.523 1.976 3.556 6.464 8.318 10.416 9.534 3.298 1.015.563 1.22-1.469 1.22-1.826 0-4.028-.302-5.716-1.061-.556-.251-2.052-1.248-1.649-.791.677.767 1.483 1.549 2.259 2.214 1.949 1.671.563 1.808-1.559 1.446-2.236-.382-3.41-1.198-5.151-2.395-2.284-1.571-.975.533-.813 2.146.155 1.556-3.904-.353-4.632-.949-1.306-1.068-1.903-2.668-3.479-3.456"/></g><path d="m233.761 217.899c-4.064-.65-8.207-.406-12.313-.406-4.59 0-9.158-.407-13.737-.407-7.858 0-15.693.407-23.565.407"/><path d="m107.284 19.4401c-4.971 0-10.078-.8498-14.9568-1.7171-1.5825-.2813-3.585-.723-5.1739-.723-1.768 0-3.3024 1.09-4.9931 1.22-2.5058.1928-5.6111 2.557-7.8173 3.6602-3.625 1.8125-6.1504 4.5072-8.3144 7.9076-2.1267 3.3421-3.786 6.8235-4.496 10.7996-.6951 3.8924.6337 7.1219 1.4459 10.777.5466 2.4597 4.795 3.078 6.6877 2.2368.979-.4351 2.3833-1.1859 3.1404-1.9431 1.1834-1.1833 4.9157 1.3663 6.3262 1.8527 2.3217.8006 4.0597 1.9608 6.5972.9941 1.4867-.5663 3.502-.0742 5.0609-.5197.7775-.2221 1.565-.5793 2.3497-.8811 1.5113-.5813 2.4063-1.7422 3.7731-2.3497 1.2728-.5657 2.8326-.5393 3.9534-1.22 2.652-1.6098 6.046-1.9005 8.834-3.4342 2.287-1.2574 3.453-2.3478 5.061-4.4509 1.029-1.3448 9.417-15.2957 5.332-15.2957-3.992 0-5.636-2.6058-8.314-5.0609-.937-.8591-1.617-2.14-2.553-2.9823-.477-.4291-2.522-.0904-3.163-.0904"/><path d="m114.604 44.2476c.508 2.6058 1.22 5.0597 1.22 7.7269 0 2.8864-.407 5.6572-.407 8.5402 0 2.2711.651 4.6981 1.13 6.9136.337 1.5586.819 4.7547.475 6.3035-1.78 8.0092-11.416 12.8104-19.0918 12.8104"/><path d="m99.5571 85.3218c2.0129 2.5621 4.3879 5.8616 5.4899 8.9469.466 1.3053 1.328 2.0679 1.921 3.2535.604 1.2085 1.154 2.5638.723.4066"/><path d="m106.471 83.6956c-.465-2.501-.566-5.1763-.407-7.7269.017-.2737 2.118 1.1148 2.531 1.3104.996.4727 2.03 1.2167 2.756 1.943"/><path d="m113.791 59.2944c-3.065-1.1961-2.034-.9034-2.034-3.6601"/><path d="m104.437 58.481c1.617 2.8289 3.186 8.4422-1.017 9.3762-3.154.7008-5.8966-5.0895-5.8966-7.7495"/><path d="m102.404 58.0747c.946.1845 1.88.4067 2.847.4067"/><path d="m65.396 54.8213c.9893 6.3067 1.4155 12.9071 3.1631 19.0236.541 1.8935.497 4.3013.497 6.2809 0 1.4952.8134 2.9103.8134 4.3831"/><path d="m27.168 104.029c4.7636-3.334 8.2002-8.2991 13.1041-11.3868 1.8508-1.1653 3.7966-1.8569 5.8065-2.6434 1.716-.6715 4.2778-.8676 5.8064-1.8301 2.2423-1.4118 4.4414-1.22 7.1395-1.22 1.5444 0 2.9695.2513 4.4961.3841 1.2207.1061 1.2665.8986 2.3723 1.333 1.9393.7619 3.7108 1.3312 5.6257 2.1689 2.2395.9798 3.7548 3.0268 5.8517 4.225 2.8591 1.6338 5.9948 2.4627 9.3762 2.4627 1.8663 0 3.6253 1.22 5.5806 1.22 2.0175 0 3.8471.4067 5.9194.4067 4.3145 0 8.5985-1.5257 13.0135-.723 4.786.8702 9.519 1.8429 14.347 2.5529 3.115.458 5.558.966 8.36 2.259 1.973.911 3.757 2.231 5.738 3.164.933.438 1.83.429 2.734.881 3.853 1.926 7.464 2.535 11.703 3.434 2.719.576 5.605.987 8.224 1.943 5.896 2.151 11.757 3.994 17.668 6.032 4.656 1.606 9.675 3.806 14.686 4.044 1.271.061 2.865.226 4.067-.203.159-.057 1.249-.755 1.355-.542.304.608-1.462 3.373-1.762 4.089-.691 1.652-1.986 3.522-3.253 4.79-1.773 1.773-3.396 3.576-5.197 5.377-2.636 2.636-5.747 2.757-9.444 2.757-5.016 0-10.031 0-15.047 0-4.75 0-9.591.813-14.234.813"/><path d="m144.699 139.003c1.675 4.504.664 9.493-.497 14.008-.386 1.499-1.163 2.912-1.718 4.338-.772 1.987-.632 4.964-.632 7.094 0 9.767-1.22 19.456-1.22 29.259v23.881c0 3.869.813 7.482.813 11.297"/><path d="m27.168 128.837c1.4192 5.677 3.5619 11.039 4.9705 16.674.7707 3.082 1.5363 6.163 1.5363 9.353 0 3.321.7919 6.341 2.0334 9.444 1.8025 4.507 2.8468 9.863 2.8468 14.731 0 4.352.5692 8.743 1.4234 13.014.8421 4.211.9479 8.004 1.0167 12.336.1272 8.015-.1133 16.424 2.44 24.084"/><path d="m32.4548 143.884c0 3.931.4036 8.988-1.3104 12.607-.8674 1.831-2.0561 5.14-3.9764 6.1"/><path d="m32.4551 157.304c.8438 4.431 0 8.578 0 12.924 0 1.661.1643 3.75 2.056 3.75 1.8223 0 3.5606.161 5.2642-.407"/><path d="m27.168 186.585c3.4054 1.412 6.3938 2.44 10.167 2.44"/><path d="m25.948 104.843c-2.1704 1.323-4.3562 1.99-5.8969 4.044-1.564 2.085-1.3011 5.493-.2033 7.749 1.5011 3.086 4.5134 5.069 5.6935 8.315.9022 2.481 1.2201 4.5 1.2201 7.139"/><path d="m20.2545 119.483c-.0654 5.099-.1917 10.398-.9038 15.454-.6647 4.72-1.6617 9.452-1.943 14.234-.2923 4.969-.4067 9.89-.4067 14.866 0 3.057-.0822 7.107 1.2201 9.941 1.3754 2.994 3.5608 6.453 5.8742 8.767 2.0929 2.093 2.8286 4.437 5.9195 5.467"/><path d="m164.626 110.536c0-10.029 1.901-19.6805-2.938-28.8742-4.153-7.8914-.148-16.4349 5.784-22.3674 1.995-1.9949 4.507-3.3081 6.823-4.8801 2.98-2.0216 6.619-2.2699 9.806-3.8635 2.569-1.2845 5.901.2147 8.676.5196 2.148.2362 4.339-.1479 6.461.3163 3.093.6766 5.736 2.655 8.902 3.0276 2.293.2697 5.137 4.3249 6.1 6.1001 1.021 1.8801 2.44 3.2317 2.44 5.4902 0 .8561-.459 3.7653.226 4.4509 1.086 1.0857 2.144 3.6473 3.435 4.2927"/><path d="m215.461 64.9878c-5.628 1.1511-10.742.4067-16.268.4067"/><path d="m214.648 73.5282c-3.251-.0739-6.57-.8134-9.761-.8134"/><path d="m213.834 53.6011c6.336 1.3576 11.851 2.9029 16.177 8.1336 5.434 6.5717 6.817 14.6103 8.02 22.7966.85 5.7778 3.925 10.6741 6.507 15.8377.843 1.685 1.408 3.57 2.327 5.197.646 1.141 1.681 2.266 1.966 3.547.251 1.13 1.367 3.304 2.011 4.27"/><path d="m222.374 64.9878c3.475 2.4823 9.141 5.218 13.42 5.6935"/><path d="m223.188 71.4946c2.585 2.5849 4.893 5.719 6.507 8.947"/><path d="m171.539 114.603c1.481-1.955 3.14-3.79 4.564-5.784 1.68-2.352 2.449-4.933 3.773-7.433 1.349-2.5488 1.214-5.24 1.83-7.9755.318-1.4113.712-2.8444.836-4.2701.15-1.7238.145-3.5864.407-5.2868.231-1.5067.082-4.1671.881-5.445.252-.4033 1.066 1.6392 1.152 1.7848.486.8197 1.216 1.378 1.808 2.1012 1.087 1.3294 1.855 2.01 3.366 2.9372 2.858 1.7536 3.308 4.1216 5.58 6.3939.322.3217.512.6076.701 1.0167.495 1.072-1.055-2.1247-1.401-3.2535-.789-2.5732-.723-5.0251-.723-7.6817 0-2.2292 1.441 1.0882 1.943 1.9882.823 1.4758 2.079 2.5436 3.141 3.8409 1.573 1.9233 4.916 3.0823 6.958 4.496 1.351.9352 2.905 1.5535 3.999 2.8468 1.047 1.2374 2.066 2.947 3.389 3.8634 2.366 1.6375 1.08-4.0568 1.808-5.6935.821-1.8475 4.541-.4214 5.784.4067 3.7 2.4671 6.726 4.8999 7.975 9.1953.861 2.96 2.084 6.919 4.361 9.196 1.729 1.729 3.612 2.458 5.693 3.795 3.727 2.396 8.482 2.899 12.291.994"/><path d="m231.321 100.776c2.779 0 5.393-.133 8.134-.407"/><path d="m223.594 94.269c0 6.5-.407 13.075-.407 19.521 0 2.334-.137 3.302-1.129 5.286-.797 1.595-2.377 2.794-2.937 4.474"/><path d="m222.374 110.943c2.149-1.693 3.276-3.962 4.88-6.1"/><path d="m224.814 110.943c1.957 2.474 3.796 4.612 6.417 6.326.959.627 2.367.667 2.937 1.807"/><path d="m187.807 95.8954c1.116-1.5355 2.115-2.9562 3.253-4.4735"/><path d="m192.687 94.6758-2.034.4067"/><path d="m182.113 98.7422c.713 5.2638.917 8.6888 4.631 12.4038 2.015 2.015 1.099 4.824 4.316 5.897"/><path d="m189.84 102.81c0 1.927-.996 7.342 1.22 8.449 2.447 1.224.406 3.935.406 6.191"/><path d="m193.907 110.943c1.11 1.11 2.106 2.875 3.479 3.66 1.227.701 2.585 1.089 3.841 1.717 1.868.934 5.908 3.144 7.637.316 1.164-1.905 2.678-6.713-1.13-6.913-2.834-.15-5.789-.407-8.54-.407"/><path d="m204.48 98.7422c.425-.0829 5.735-.5652 5.604-.8134-.579-1.0921-3.294-1.8951-4.383-2.44"/><path d="m199.194 125.583c3.107 1.492 6.425 1.555 9.76.814 4.54-1.009 9.025-1.305 13.669-1.604 3.87-.25 7.585-.452 11.455-.113 1.208.105 3.942.151 5.015-.52 1.152-.72 2.857.141 4.112-.294 1.909-.66 3.854-1.451 5.784-2.146 7.241-2.607 11.384-9.464 17.623-13.624 2.274-1.516 5.152-2.925 7.004-4.88 2.417-2.552 3.398-6.4547 4.067-9.7604.421-2.0802.552-4.9435 1.627-6.8231.662-1.1598 1.336-2.8509 1.626-4.1572.278-1.2516 1.152-2.5206 1.627-3.7505.417-1.0805.965-3.3056 1.695-4.1572 1.569-1.8308 6.032 3.3455 6.032 5.0835 0 2.4296-.817 4.8878-1.83 7.1169-.158.3467-.738 2.2253-.339 1.7171 1.528-1.9443 3.5-4.3706 5.422-5.9194 2.232-1.7979 3.836-3.8515 5.784-5.8743.974-1.011 1.564-2.3319 2.553-3.3212.538-.5374.273 3.1995.204 3.4116-.516 1.5774-1.184 3.4124-2.237 4.6994-1.674 2.046.082 1.4899 1.514.497 1.76-1.2211 3.284-1.8608 5.196-2.666 1.492-.6281 1.264.9742 1.198 1.9656-.129 1.9266-1.754 4.5262-3.028 6.0551-.463.5556 1.248.031 1.288.0225 1.586-.334 3.274-.4819 4.835-.9037 1.15-.311 1.627-1.7479 1.378.4971-.33 2.9666-3.51 4.6888-4.022 7.5009-.49 2.6977 5.653-.3096 5.174 1.446-.486 1.782-3.224 3.4871-4.586 4.4963-1.914 1.417-3.957 3.505-6.213 4.36-2.052.778-4.383.643-6.53 1.085-1.189.245-2.446.588-3.637.632-3.153.117-6.355 4.365-8.134 6.507-5.026 6.054-10.923 11.25-15.544 17.668-2.294 3.186-5.465 6.987-8.744 9.173-4.055 2.704-9.124 3.64-13.985 3.434-3.75-.158-7.555-.587-11.297-.587-4.177 0-7.728-1.447-11.703-2.44-3.878-.97-8.007-2.44-12.02-2.44-6.504 0-12.99.406-19.52.406"/><path d="m145.105 154.864c5.205 2.603 10.839 5.315 16.38 7.072 2.642.838 5.221 1.468 8.021 1.468 2.961 0 3.622-6.081 3.66-8.133.027-1.487.434-3.534 2.033-4.067"/><path d="m144.699 169.504c4.255 4.898 8.899 8.022 14.64 10.574 1.641.729 4.409.768 6.191.768 3.445 0 7.356-.854 10.732-1.604 4.239-.942 6.729-2.637 8.608-6.394.088-.177 1.97 4.826 2.123 5.784.511 3.191.167 6.389.61 9.58 1.153 8.299.204 16.503.204 24.807 0 4.344-.814 8.765-.814 13.014"/><path d="m223.188 177.231c.339 1.622.927 3.237 1.13 4.881.266 2.163-.102 4.355.316 6.506.72 3.706 1.832 7.161 2.824 10.8 1.467 5.379 2.206 10.707 3.954 15.951 1.11 3.329 1.969 6.748 3.163 10.031.621 1.709.793 4.008 2.44 5.106"/><path d="m178.046 150.798c-.491 2.64-.999 6.221.723 8.54 1.444 1.943 3.483 3.446 4.971 5.513 3.121 4.335 11.444 6.224 15.431 2.236 1.211-1.21 4.206-3.764 1.469-4.676-1.633-.545.518.348.903.587 1.084.673 2.053.924 3.254 1.311 5.661 1.819 13.207 1.502 18.888-.181 2.399-.711 2.454-2.762 3.57-4.7 1.334-2.317 1.947-5.162 2.846-7.636.075-.206.518-1.944.814-1.265 1.277 2.931.83 6.975 1.129 10.121.348 3.648-.374 7.44.294 11.049.715 3.862.753 8.064 2.643 11.635 1.204 2.273 5.749 3.66 8.134 3.66"/><path d="m244.742 146.73c.936 6.199 1.376 12.503 3.75 18.391 1.64 4.067 3.473 7.689 5.603 11.523 1.976 3.556 6.464 8.318 10.416 9.534 3.298 1.015.563 1.22-1.469 1.22-1.826 0-4.028-.302-5.716-1.061-.556-.251-2.052-1.248-1.649-.791.677.767 1.483 1.549 2.259 2.214 1.949 1.671.563 1.808-1.559 1.446-2.236-.382-3.41-1.198-5.151-2.395-2.284-1.571-.975.533-.813 2.146.155 1.556-3.904-.353-4.632-.949-1.306-1.068-1.903-2.668-3.479-3.456"/><path d="m233.761 217.899c-4.064-.65-8.207-.406-12.313-.406-4.59 0-9.158-.407-13.737-.407-7.858 0-15.693.407-23.565.407"/><path d="m107.284 19.4401c-4.971 0-10.078-.8498-14.9568-1.7171-1.5825-.2813-3.585-.723-5.1739-.723-1.768 0-3.3024 1.09-4.9931 1.22-2.5058.1928-5.6111 2.557-7.8173 3.6602-3.625 1.8125-6.1504 4.5072-8.3144 7.9076-2.1267 3.3421-3.786 6.8235-4.496 10.7996-.6951 3.8924.6337 7.1219 1.4459 10.777.5466 2.4597 4.795 3.078 6.6877 2.2368.979-.4351 2.3833-1.1859 3.1404-1.9431 1.1834-1.1833 4.9157 1.3663 6.3262 1.8527 2.3217.8006 4.0597 1.9608 6.5972.9941 1.4867-.5663 3.502-.0742 5.0609-.5197.7775-.2221 1.565-.5793 2.3497-.8811 1.5113-.5813 2.4063-1.7422 3.7731-2.3497 1.2728-.5657 2.8326-.5393 3.9534-1.22 2.652-1.6098 6.046-1.9005 8.834-3.4342 2.287-1.2574 3.453-2.3478 5.061-4.4509 1.029-1.3448 9.417-15.2957 5.332-15.2957-3.992 0-5.636-2.6058-8.314-5.0609-.937-.8591-1.617-2.14-2.553-2.9823-.477-.4291-2.522-.0904-3.163-.0904"/><path d="m114.604 44.2476c.508 2.6058 1.22 5.0597 1.22 7.7269 0 2.8864-.407 5.6572-.407 8.5402 0 2.2711.651 4.6981 1.13 6.9136.337 1.5586.819 4.7547.475 6.3035-1.78 8.0092-11.416 12.8104-19.0918 12.8104"/><path d="m99.5571 85.3218c2.0129 2.5621 4.3879 5.8616 5.4899 8.9469.466 1.3053 1.328 2.0679 1.921 3.2535.604 1.2085 1.154 2.5638.723.4066"/><path d="m106.471 83.6956c-.465-2.501-.566-5.1763-.407-7.7269.017-.2737 2.118 1.1148 2.531 1.3104.996.4727 2.03 1.2167 2.756 1.943"/><path d="m113.791 59.2944c-3.065-1.1961-2.034-.9034-2.034-3.6601"/><path d="m104.437 58.481c1.617 2.8289 3.186 8.4422-1.017 9.3762-3.154.7008-5.8966-5.0895-5.8966-7.7495"/><path d="m102.404 58.0747c.946.1845 1.88.4067 2.847.4067"/><path d="m65.396 54.8213c.9893 6.3067 1.4155 12.9071 3.1631 19.0236.541 1.8935.497 4.3013.497 6.2809 0 1.4952.8134 2.9103.8134 4.3831"/><path d="m27.168 104.029c4.7636-3.334 8.2002-8.2991 13.1041-11.3868 1.8508-1.1653 3.7966-1.8569 5.8065-2.6434 1.716-.6715 4.2778-.8676 5.8064-1.8301 2.2423-1.4118 4.4414-1.22 7.1395-1.22 1.5444 0 2.9695.2513 4.4961.3841 1.2207.1061 1.2665.8986 2.3723 1.333 1.9393.7619 3.7108 1.3312 5.6257 2.1689 2.2395.9798 3.7548 3.0268 5.8517 4.225 2.8591 1.6338 5.9948 2.4627 9.3762 2.4627 1.8663 0 3.6253 1.22 5.5806 1.22 2.0175 0 3.8471.4067 5.9194.4067 4.3145 0 8.5985-1.5257 13.0135-.723 4.786.8702 9.519 1.8429 14.347 2.5529 3.115.458 5.558.966 8.36 2.259 1.973.911 3.757 2.231 5.738 3.164.933.438 1.83.429 2.734.881 3.853 1.926 7.464 2.535 11.703 3.434 2.719.576 5.605.987 8.224 1.943 5.896 2.151 11.757 3.994 17.668 6.032 4.656 1.606 9.675 3.806 14.686 4.044 1.271.061 2.865.226 4.067-.203.159-.057 1.249-.755 1.355-.542.304.608-1.462 3.373-1.762 4.089-.691 1.652-1.986 3.522-3.253 4.79-1.773 1.773-3.396 3.576-5.197 5.377-2.636 2.636-5.747 2.757-9.444 2.757-5.016 0-10.031 0-15.047 0-4.75 0-9.591.813-14.234.813"/><path d="m144.699 139.003c1.675 4.504.664 9.493-.497 14.008-.386 1.499-1.163 2.912-1.718 4.338-.772 1.987-.632 4.964-.632 7.094 0 9.767-1.22 19.456-1.22 29.259v23.881c0 3.869.813 7.482.813 11.297"/><path d="m27.168 128.837c1.4192 5.677 3.5619 11.039 4.9705 16.674.7707 3.082 1.5363 6.163 1.5363 9.353 0 3.321.7919 6.341 2.0334 9.444 1.8025 4.507 2.8468 9.863 2.8468 14.731 0 4.352.5692 8.743 1.4234 13.014.8421 4.211.9479 8.004 1.0167 12.336.1272 8.015-.1133 16.424 2.44 24.084"/><path d="m32.4548 143.884c0 3.931.4036 8.988-1.3104 12.607-.8674 1.831-2.0561 5.14-3.9764 6.1"/><path d="m32.4551 157.304c.8438 4.431 0 8.578 0 12.924 0 1.661.1643 3.75 2.056 3.75 1.8223 0 3.5606.161 5.2642-.407"/><path d="m27.168 186.585c3.4054 1.412 6.3938 2.44 10.167 2.44"/><path d="m25.948 104.843c-2.1704 1.323-4.3562 1.99-5.8969 4.044-1.564 2.085-1.3011 5.493-.2033 7.749 1.5011 3.086 4.5134 5.069 5.6935 8.315.9022 2.481 1.2201 4.5 1.2201 7.139"/><path d="m20.2545 119.483c-.0654 5.099-.1917 10.398-.9038 15.454-.6647 4.72-1.6617 9.452-1.943 14.234-.2923 4.969-.4067 9.89-.4067 14.866 0 3.057-.0822 7.107 1.2201 9.941 1.3754 2.994 3.5608 6.453 5.8742 8.767 2.0929 2.093 2.8286 4.437 5.9195 5.467"/><path d="m164.626 110.536c0-10.029 1.901-19.6805-2.938-28.8742-4.153-7.8914-.148-16.4349 5.784-22.3674 1.995-1.9949 4.507-3.3081 6.823-4.8801 2.98-2.0216 6.619-2.2699 9.806-3.8635 2.569-1.2845 5.901.2147 8.676.5196 2.148.2362 4.339-.1479 6.461.3163 3.093.6766 5.736 2.655 8.902 3.0276 2.293.2697 5.137 4.3249 6.1 6.1001 1.021 1.8801 2.44 3.2317 2.44 5.4902 0 .8561-.459 3.7653.226 4.4509 1.086 1.0857 2.144 3.6473 3.435 4.2927"/><path d="m215.461 64.9878c-5.628 1.1511-10.742.4067-16.268.4067"/><path d="m214.648 73.5282c-3.251-.0739-6.57-.8134-9.761-.8134"/><path d="m213.834 53.6011c6.336 1.3576 11.851 2.9029 16.177 8.1336 5.434 6.5717 6.817 14.6103 8.02 22.7966.85 5.7778 3.925 10.6741 6.507 15.8377.843 1.685 1.408 3.57 2.327 5.197.646 1.141 1.681 2.266 1.966 3.547.251 1.13 1.367 3.304 2.011 4.27"/><path d="m222.374 64.9878c3.475 2.4823 9.141 5.218 13.42 5.6935"/><path d="m223.188 71.4946c2.585 2.5849 4.893 5.719 6.507 8.947"/><path d="m171.539 114.603c1.481-1.955 3.14-3.79 4.564-5.784 1.68-2.352 2.449-4.933 3.773-7.433 1.349-2.5488 1.214-5.24 1.83-7.9755.318-1.4113.712-2.8444.836-4.2701.15-1.7238.145-3.5864.407-5.2868.231-1.5067.082-4.1671.881-5.445.252-.4033 1.066 1.6392 1.152 1.7848.486.8197 1.216 1.378 1.808 2.1012 1.087 1.3294 1.855 2.01 3.366 2.9372 2.858 1.7536 3.308 4.1216 5.58 6.3939.322.3217.512.6076.701 1.0167.495 1.072-1.055-2.1247-1.401-3.2535-.789-2.5732-.723-5.0251-.723-7.6817 0-2.2292 1.441 1.0882 1.943 1.9882.823 1.4758 2.079 2.5436 3.141 3.8409 1.573 1.9233 4.916 3.0823 6.958 4.496 1.351.9352 2.905 1.5535 3.999 2.8468 1.047 1.2374 2.066 2.947 3.389 3.8634 2.366 1.6375 1.08-4.0568 1.808-5.6935.821-1.8475 4.541-.4214 5.784.4067 3.7 2.4671 6.726 4.8999 7.975 9.1953.861 2.96 2.084 6.919 4.361 9.196 1.729 1.729 3.612 2.458 5.693 3.795 3.727 2.396 8.482 2.899 12.291.994"/><path d="m231.321 100.776c2.779 0 5.393-.133 8.134-.407"/><path d="m223.594 94.269c0 6.5-.407 13.075-.407 19.521 0 2.334-.137 3.302-1.129 5.286-.797 1.595-2.377 2.794-2.937 4.474"/><path d="m222.374 110.943c2.149-1.693 3.276-3.962 4.88-6.1"/><path d="m224.814 110.943c1.957 2.474 3.796 4.612 6.417 6.326.959.627 2.367.667 2.937 1.807"/><path d="m187.807 95.8954c1.116-1.5355 2.115-2.9562 3.253-4.4735"/><path d="m192.687 94.6758-2.034.4067"/><path d="m182.113 98.7422c.713 5.2638.917 8.6888 4.631 12.4038 2.015 2.015 1.099 4.824 4.316 5.897"/><path d="m189.84 102.81c0 1.927-.996 7.342 1.22 8.449 2.447 1.224.406 3.935.406 6.191"/><path d="m193.907 110.943c1.11 1.11 2.106 2.875 3.479 3.66 1.227.701 2.585 1.089 3.841 1.717 1.868.934 5.908 3.144 7.637.316 1.164-1.905 2.678-6.713-1.13-6.913-2.834-.15-5.789-.407-8.54-.407"/><path d="m204.48 98.7422c.425-.0829 5.735-.5652 5.604-.8134-.579-1.0921-3.294-1.8951-4.383-2.44"/><path d="m199.194 125.583c3.107 1.492 6.425 1.555 9.76.814 4.54-1.009 9.025-1.305 13.669-1.604 3.87-.25 7.585-.452 11.455-.113 1.208.105 3.942.151 5.015-.52 1.152-.72 2.857.141 4.112-.294 1.909-.66 3.854-1.451 5.784-2.146 7.241-2.607 11.384-9.464 17.623-13.624 2.274-1.516 5.152-2.925 7.004-4.88 2.417-2.552 3.398-6.4547 4.067-9.7604.421-2.0802.552-4.9435 1.627-6.8231.662-1.1598 1.336-2.8509 1.626-4.1572.278-1.2516 1.152-2.5206 1.627-3.7505.417-1.0805.965-3.3056 1.695-4.1572 1.569-1.8308 6.032 3.3455 6.032 5.0835 0 2.4296-.817 4.8878-1.83 7.1169-.158.3467-.738 2.2253-.339 1.7171 1.528-1.9443 3.5-4.3706 5.422-5.9194 2.232-1.7979 3.836-3.8515 5.784-5.8743.974-1.011 1.564-2.3319 2.553-3.3212.538-.5374.273 3.1995.204 3.4116-.516 1.5774-1.184 3.4124-2.237 4.6994-1.674 2.046.082 1.4899 1.514.497 1.76-1.2211 3.284-1.8608 5.196-2.666 1.492-.6281 1.264.9742 1.198 1.9656-.129 1.9266-1.754 4.5262-3.028 6.0551-.463.5556 1.248.031 1.288.0225 1.586-.334 3.274-.4819 4.835-.9037 1.15-.311 1.627-1.7479 1.378.4971-.33 2.9666-3.51 4.6888-4.022 7.5009-.49 2.6977 5.653-.3096 5.174 1.446-.486 1.782-3.224 3.4871-4.586 4.4963-1.914 1.417-3.957 3.505-6.213 4.36-2.052.778-4.383.643-6.53 1.085-1.189.245-2.446.588-3.637.632-3.153.117-6.355 4.365-8.134 6.507-5.026 6.054-10.923 11.25-15.544 17.668-2.294 3.186-5.465 6.987-8.744 9.173-4.055 2.704-9.124 3.64-13.985 3.434-3.75-.158-7.555-.587-11.297-.587-4.177 0-7.728-1.447-11.703-2.44-3.878-.97-8.007-2.44-12.02-2.44-6.504 0-12.99.406-19.52.406"/><path d="m145.105 154.864c5.205 2.603 10.839 5.315 16.38 7.072 2.642.838 5.221 1.468 8.021 1.468 2.961 0 3.622-6.081 3.66-8.133.027-1.487.434-3.534 2.033-4.067"/><path d="m144.699 169.504c4.255 4.898 8.899 8.022 14.64 10.574 1.641.729 4.409.768 6.191.768 3.445 0 7.356-.854 10.732-1.604 4.239-.942 6.729-2.637 8.608-6.394.088-.177 1.97 4.826 2.123 5.784.511 3.191.167 6.389.61 9.58 1.153 8.299.204 16.503.204 24.807 0 4.344-.814 8.765-.814 13.014"/><path d="m223.188 177.231c.339 1.622.927 3.237 1.13 4.881.266 2.163-.102 4.355.316 6.506.72 3.706 1.832 7.161 2.824 10.8 1.467 5.379 2.206 10.707 3.954 15.951 1.11 3.329 1.969 6.748 3.163 10.031.621 1.709.793 4.008 2.44 5.106"/><path d="m178.046 150.798c-.491 2.64-.999 6.221.723 8.54 1.444 1.943 3.483 3.446 4.971 5.513 3.121 4.335 11.444 6.224 15.431 2.236 1.211-1.21 4.206-3.764 1.469-4.676-1.633-.545.518.348.903.587 1.084.673 2.053.924 3.254 1.311 5.661 1.819 13.207 1.502 18.888-.181 2.399-.711 2.454-2.762 3.57-4.7 1.334-2.317 1.947-5.162 2.846-7.636.075-.206.518-1.944.814-1.265 1.277 2.931.83 6.975 1.129 10.121.348 3.648-.374 7.44.294 11.049.715 3.862.753 8.064 2.643 11.635 1.204 2.273 5.749 3.66 8.134 3.66"/><path d="m244.742 146.73c.936 6.199 1.376 12.503 3.75 18.391 1.64 4.067 3.473 7.689 5.603 11.523 1.976 3.556 6.464 8.318 10.416 9.534 3.298 1.015.563 1.22-1.469 1.22-1.826 0-4.028-.302-5.716-1.061-.556-.251-2.052-1.248-1.649-.791.677.767 1.483 1.549 2.259 2.214 1.949 1.671.563 1.808-1.559 1.446-2.236-.382-3.41-1.198-5.151-2.395-2.284-1.571-.975.533-.813 2.146.155 1.556-3.904-.353-4.632-.949-1.306-1.068-1.903-2.668-3.479-3.456"/><path d="m233.761 217.899c-4.064-.65-8.207-.406-12.313-.406-4.59 0-9.158-.407-13.737-.407-7.858 0-15.693.407-23.565.407"/><path d="m107.284 19.4401c-4.971 0-10.078-.8498-14.9568-1.7171-1.5825-.2813-3.585-.723-5.1739-.723-1.768 0-3.3024 1.09-4.9931 1.22-2.5058.1928-5.6111 2.557-7.8173 3.6602-3.625 1.8125-6.1504 4.5072-8.3144 7.9076-2.1267 3.3421-3.786 6.8235-4.496 10.7996-.6951 3.8924.6337 7.1219 1.4459 10.777.5466 2.4597 4.795 3.078 6.6877 2.2368.979-.4351 2.3833-1.1859 3.1404-1.9431 1.1834-1.1833 4.9157 1.3663 6.3262 1.8527 2.3217.8006 4.0597 1.9608 6.5972.9941 1.4867-.5663 3.502-.0742 5.0609-.5197.7775-.2221 1.565-.5793 2.3497-.8811 1.5113-.5813 2.4063-1.7422 3.7731-2.3497 1.2728-.5657 2.8326-.5393 3.9534-1.22 2.652-1.6098 6.046-1.9005 8.834-3.4342 2.287-1.2574 3.453-2.3478 5.061-4.4509 1.029-1.3448 9.417-15.2957 5.332-15.2957-3.992 0-5.636-2.6058-8.314-5.0609-.937-.8591-1.617-2.14-2.553-2.9823-.477-.4291-2.522-.0904-3.163-.0904"/><path d="m114.604 44.2476c.508 2.6058 1.22 5.0597 1.22 7.7269 0 2.8864-.407 5.6572-.407 8.5402 0 2.2711.651 4.6981 1.13 6.9136.337 1.5586.819 4.7547.475 6.3035-1.78 8.0092-11.416 12.8104-19.0918 12.8104"/><path d="m99.5571 85.3218c2.0129 2.5621 4.3879 5.8616 5.4899 8.9469.466 1.3053 1.328 2.0679 1.921 3.2535.604 1.2085 1.154 2.5638.723.4066"/><path d="m106.471 83.6956c-.465-2.501-.566-5.1763-.407-7.7269.017-.2737 2.118 1.1148 2.531 1.3104.996.4727 2.03 1.2167 2.756 1.943"/><path d="m113.791 59.2944c-3.065-1.1961-2.034-.9034-2.034-3.6601"/><path d="m104.437 58.481c1.617 2.8289 3.186 8.4422-1.017 9.3762-3.154.7008-5.8966-5.0895-5.8966-7.7495"/><path d="m102.404 58.0747c.946.1845 1.88.4067 2.847.4067"/><path d="m65.396 54.8213c.9893 6.3067 1.4155 12.9071 3.1631 19.0236.541 1.8935.497 4.3013.497 6.2809 0 1.4952.8134 2.9103.8134 4.3831"/><path d="m27.168 104.029c4.7636-3.334 8.2002-8.2991 13.1041-11.3868 1.8508-1.1653 3.7966-1.8569 5.8065-2.6434 1.716-.6715 4.2778-.8676 5.8064-1.8301 2.2423-1.4118 4.4414-1.22 7.1395-1.22 1.5444 0 2.9695.2513 4.4961.3841 1.2207.1061 1.2665.8986 2.3723 1.333 1.9393.7619 3.7108 1.3312 5.6257 2.1689 2.2395.9798 3.7548 3.0268 5.8517 4.225 2.8591 1.6338 5.9948 2.4627 9.3762 2.4627 1.8663 0 3.6253 1.22 5.5806 1.22 2.0175 0 3.8471.4067 5.9194.4067 4.3145 0 8.5985-1.5257 13.0135-.723 4.786.8702 9.519 1.8429 14.347 2.5529 3.115.458 5.558.966 8.36 2.259 1.973.911 3.757 2.231 5.738 3.164.933.438 1.83.429 2.734.881 3.853 1.926 7.464 2.535 11.703 3.434 2.719.576 5.605.987 8.224 1.943 5.896 2.151 11.757 3.994 17.668 6.032 4.656 1.606 9.675 3.806 14.686 4.044 1.271.061 2.865.226 4.067-.203.159-.057 1.249-.755 1.355-.542.304.608-1.462 3.373-1.762 4.089-.691 1.652-1.986 3.522-3.253 4.79-1.773 1.773-3.396 3.576-5.197 5.377-2.636 2.636-5.747 2.757-9.444 2.757-5.016 0-10.031 0-15.047 0-4.75 0-9.591.813-14.234.813"/><path d="m144.699 139.003c1.675 4.504.664 9.493-.497 14.008-.386 1.499-1.163 2.912-1.718 4.338-.772 1.987-.632 4.964-.632 7.094 0 9.767-1.22 19.456-1.22 29.259v23.881c0 3.869.813 7.482.813 11.297"/><path d="m27.168 128.837c1.4192 5.677 3.5619 11.039 4.9705 16.674.7707 3.082 1.5363 6.163 1.5363 9.353 0 3.321.7919 6.341 2.0334 9.444 1.8025 4.507 2.8468 9.863 2.8468 14.731 0 4.352.5692 8.743 1.4234 13.014.8421 4.211.9479 8.004 1.0167 12.336.1272 8.015-.1133 16.424 2.44 24.084"/><path d="m32.4548 143.884c0 3.931.4036 8.988-1.3104 12.607-.8674 1.831-2.0561 5.14-3.9764 6.1"/><path d="m32.4551 157.304c.8438 4.431 0 8.578 0 12.924 0 1.661.1643 3.75 2.056 3.75 1.8223 0 3.5606.161 5.2642-.407"/><path d="m27.168 186.585c3.4054 1.412 6.3938 2.44 10.167 2.44"/><path d="m25.948 104.843c-2.1704 1.323-4.3562 1.99-5.8969 4.044-1.564 2.085-1.3011 5.493-.2033 7.749 1.5011 3.086 4.5134 5.069 5.6935 8.315.9022 2.481 1.2201 4.5 1.2201 7.139"/><path d="m20.2545 119.483c-.0654 5.099-.1917 10.398-.9038 15.454-.6647 4.72-1.6617 9.452-1.943 14.234-.2923 4.969-.4067 9.89-.4067 14.866 0 3.057-.0822 7.107 1.2201 9.941 1.3754 2.994 3.5608 6.453 5.8742 8.767 2.0929 2.093 2.8286 4.437 5.9195 5.467"/><path d="m164.626 110.536c0-10.029 1.901-19.6805-2.938-28.8742-4.153-7.8914-.148-16.4349 5.784-22.3674 1.995-1.9949 4.507-3.3081 6.823-4.8801 2.98-2.0216 6.619-2.2699 9.806-3.8635 2.569-1.2845 5.901.2147 8.676.5196 2.148.2362 4.339-.1479 6.461.3163 3.093.6766 5.736 2.655 8.902 3.0276 2.293.2697 5.137 4.3249 6.1 6.1001 1.021 1.8801 2.44 3.2317 2.44 5.4902 0 .8561-.459 3.7653.226 4.4509 1.086 1.0857 2.144 3.6473 3.435 4.2927"/><path d="m215.461 64.9878c-5.628 1.1511-10.742.4067-16.268.4067"/><path d="m214.648 73.5282c-3.251-.0739-6.57-.8134-9.761-.8134"/><path d="m213.834 53.6011c6.336 1.3576 11.851 2.9029 16.177 8.1336 5.434 6.5717 6.817 14.6103 8.02 22.7966.85 5.7778 3.925 10.6741 6.507 15.8377.843 1.685 1.408 3.57 2.327 5.197.646 1.141 1.681 2.266 1.966 3.547.251 1.13 1.367 3.304 2.011 4.27"/><path d="m222.374 64.9878c3.475 2.4823 9.141 5.218 13.42 5.6935"/><path d="m223.188 71.4946c2.585 2.5849 4.893 5.719 6.507 8.947"/><path d="m171.539 114.603c1.481-1.955 3.14-3.79 4.564-5.784 1.68-2.352 2.449-4.933 3.773-7.433 1.349-2.5488 1.214-5.24 1.83-7.9755.318-1.4113.712-2.8444.836-4.2701.15-1.7238.145-3.5864.407-5.2868.231-1.5067.082-4.1671.881-5.445.252-.4033 1.066 1.6392 1.152 1.7848.486.8197 1.216 1.378 1.808 2.1012 1.087 1.3294 1.855 2.01 3.366 2.9372 2.858 1.7536 3.308 4.1216 5.58 6.3939.322.3217.512.6076.701 1.0167.495 1.072-1.055-2.1247-1.401-3.2535-.789-2.5732-.723-5.0251-.723-7.6817 0-2.2292 1.441 1.0882 1.943 1.9882.823 1.4758 2.079 2.5436 3.141 3.8409 1.573 1.9233 4.916 3.0823 6.958 4.496 1.351.9352 2.905 1.5535 3.999 2.8468 1.047 1.2374 2.066 2.947 3.389 3.8634 2.366 1.6375 1.08-4.0568 1.808-5.6935.821-1.8475 4.541-.4214 5.784.4067 3.7 2.4671 6.726 4.8999 7.975 9.1953.861 2.96 2.084 6.919 4.361 9.196 1.729 1.729 3.612 2.458 5.693 3.795 3.727 2.396 8.482 2.899 12.291.994"/><path d="m231.321 100.776c2.779 0 5.393-.133 8.134-.407"/><path d="m223.594 94.269c0 6.5-.407 13.075-.407 19.521 0 2.334-.137 3.302-1.129 5.286-.797 1.595-2.377 2.794-2.937 4.474"/><path d="m222.374 110.943c2.149-1.693 3.276-3.962 4.88-6.1"/><path d="m224.814 110.943c1.957 2.474 3.796 4.612 6.417 6.326.959.627 2.367.667 2.937 1.807"/><path d="m187.807 95.8954c1.116-1.5355 2.115-2.9562 3.253-4.4735"/><path d="m192.687 94.6758-2.034.4067"/><path d="m182.113 98.7422c.713 5.2638.917 8.6888 4.631 12.4038 2.015 2.015 1.099 4.824 4.316 5.897"/><path d="m189.84 102.81c0 1.927-.996 7.342 1.22 8.449 2.447 1.224.406 3.935.406 6.191"/><path d="m193.907 110.943c1.11 1.11 2.106 2.875 3.479 3.66 1.227.701 2.585 1.089 3.841 1.717 1.868.934 5.908 3.144 7.637.316 1.164-1.905 2.678-6.713-1.13-6.913-2.834-.15-5.789-.407-8.54-.407"/><path d="m204.48 98.7422c.425-.0829 5.735-.5652 5.604-.8134-.579-1.0921-3.294-1.8951-4.383-2.44"/><path d="m199.194 125.583c3.107 1.492 6.425 1.555 9.76.814 4.54-1.009 9.025-1.305 13.669-1.604 3.87-.25 7.585-.452 11.455-.113 1.208.105 3.942.151 5.015-.52 1.152-.72 2.857.141 4.112-.294 1.909-.66 3.854-1.451 5.784-2.146 7.241-2.607 11.384-9.464 17.623-13.624 2.274-1.516 5.152-2.925 7.004-4.88 2.417-2.552 3.398-6.4547 4.067-9.7604.421-2.0802.552-4.9435 1.627-6.8231.662-1.1598 1.336-2.8509 1.626-4.1572.278-1.2516 1.152-2.5206 1.627-3.7505.417-1.0805.965-3.3056 1.695-4.1572 1.569-1.8308 6.032 3.3455 6.032 5.0835 0 2.4296-.817 4.8878-1.83 7.1169-.158.3467-.738 2.2253-.339 1.7171 1.528-1.9443 3.5-4.3706 5.422-5.9194 2.232-1.7979 3.836-3.8515 5.784-5.8743.974-1.011 1.564-2.3319 2.553-3.3212.538-.5374.273 3.1995.204 3.4116-.516 1.5774-1.184 3.4124-2.237 4.6994-1.674 2.046.082 1.4899 1.514.497 1.76-1.2211 3.284-1.8608 5.196-2.666 1.492-.6281 1.264.9742 1.198 1.9656-.129 1.9266-1.754 4.5262-3.028 6.0551-.463.5556 1.248.031 1.288.0225 1.586-.334 3.274-.4819 4.835-.9037 1.15-.311 1.627-1.7479 1.378.4971-.33 2.9666-3.51 4.6888-4.022 7.5009-.49 2.6977 5.653-.3096 5.174 1.446-.486 1.782-3.224 3.4871-4.586 4.4963-1.914 1.417-3.957 3.505-6.213 4.36-2.052.778-4.383.643-6.53 1.085-1.189.245-2.446.588-3.637.632-3.153.117-6.355 4.365-8.134 6.507-5.026 6.054-10.923 11.25-15.544 17.668-2.294 3.186-5.465 6.987-8.744 9.173-4.055 2.704-9.124 3.64-13.985 3.434-3.75-.158-7.555-.587-11.297-.587-4.177 0-7.728-1.447-11.703-2.44-3.878-.97-8.007-2.44-12.02-2.44-6.504 0-12.99.406-19.52.406"/><path d="m145.105 154.864c5.205 2.603 10.839 5.315 16.38 7.072 2.642.838 5.221 1.468 8.021 1.468 2.961 0 3.622-6.081 3.66-8.133.027-1.487.434-3.534 2.033-4.067"/><path d="m144.699 169.504c4.255 4.898 8.899 8.022 14.64 10.574 1.641.729 4.409.768 6.191.768 3.445 0 7.356-.854 10.732-1.604 4.239-.942 6.729-2.637 8.608-6.394.088-.177 1.97 4.826 2.123 5.784.511 3.191.167 6.389.61 9.58 1.153 8.299.204 16.503.204 24.807 0 4.344-.814 8.765-.814 13.014"/><path d="m223.188 177.231c.339 1.622.927 3.237 1.13 4.881.266 2.163-.102 4.355.316 6.506.72 3.706 1.832 7.161 2.824 10.8 1.467 5.379 2.206 10.707 3.954 15.951 1.11 3.329 1.969 6.748 3.163 10.031.621 1.709.793 4.008 2.44 5.106"/><path d="m178.046 150.798c-.491 2.64-.999 6.221.723 8.54 1.444 1.943 3.483 3.446 4.971 5.513 3.121 4.335 11.444 6.224 15.431 2.236 1.211-1.21 4.206-3.764 1.469-4.676-1.633-.545.518.348.903.587 1.084.673 2.053.924 3.254 1.311 5.661 1.819 13.207 1.502 18.888-.181 2.399-.711 2.454-2.762 3.57-4.7 1.334-2.317 1.947-5.162 2.846-7.636.075-.206.518-1.944.814-1.265 1.277 2.931.83 6.975 1.129 10.121.348 3.648-.374 7.44.294 11.049.715 3.862.753 8.064 2.643 11.635 1.204 2.273 5.749 3.66 8.134 3.66"/><path d="m244.742 146.73c.936 6.199 1.376 12.503 3.75 18.391 1.64 4.067 3.473 7.689 5.603 11.523 1.976 3.556 6.464 8.318 10.416 9.534 3.298 1.015.563 1.22-1.469 1.22-1.826 0-4.028-.302-5.716-1.061-.556-.251-2.052-1.248-1.649-.791.677.767 1.483 1.549 2.259 2.214 1.949 1.671.563 1.808-1.559 1.446-2.236-.382-3.41-1.198-5.151-2.395-2.284-1.571-.975.533-.813 2.146.155 1.556-3.904-.353-4.632-.949-1.306-1.068-1.903-2.668-3.479-3.456"/></g></svg>