<svg fill="none" height="439" viewBox="0 0 162 439" width="162" xmlns="http://www.w3.org/2000/svg" xmlns:xlink="http://www.w3.org/1999/xlink"><filter id="a" color-interpolation-filters="sRGB" filterUnits="userSpaceOnUse" height="414.346" width="137.957" x="12" y="12"><feFlood flood-opacity="0" result="BackgroundImageFix"/><feBlend in="SourceGraphic" in2="BackgroundImageFix" mode="normal" result="shape"/><feGaussianBlur result="effect1_foregroundBlur_534_5034" stdDeviation="2"/></filter><filter id="b" color-interpolation-filters="sRGB" filterUnits="userSpaceOnUse" height="438.346" width="161.957" x="0" y="0"><feFlood flood-opacity="0" result="BackgroundImageFix"/><feBlend in="SourceGraphic" in2="BackgroundImageFix" mode="normal" result="shape"/><feGaussianBlur result="effect1_foregroundBlur_534_5034" stdDeviation="8"/></filter><g stroke="#f6d535" stroke-linecap="round" stroke-width="2"><g filter="url(#a)"><path d="m96.584 17.827c-1.4976.621-3.3962 3.0092-2.0706 4.7136 1.4215 1.8276 2.769 2.1193 4.7015.877 1.9151-1.2311 3.1861-3.3931 1.7541-5.5419-.929-1.3933-3.291-.7064-4.6042-.7064"/><path d="m94.8296 24.4043c-1.4491 3.4555-2.6782 7.1081-4.3969 10.4382-1.4915 2.8897-1.9921 6.2849-3.0572 9.342-.792 2.2733-1.9195 4.245-2.9475 6.3945-.5631 1.1772-1.3899 2.277-2.095 3.3738-.5179.8057-1.3154 1.9417-1.3154 2.8988"/><path d="m82.5522 55.5361c1.3714.8292 2.4355 1.5461 3.9342 2.0706.7064.2473 1.5169.0935 2.2532.1218 1.5586.06 3.2042.3807 4.8233.4385 2.1391.0764 4.1912.2353 6.3092 0 .9349-.1038 2.4069-.7436 3.2889-1.0962"/><path d="m96.584 24.8428c3.1594 6.5102 3.0755 14.0433 4.555 20.9982.838 3.9371.789 7.7965 2.339 11.4978.704 1.6817 1.896 2.9586 2.85 4.4579 1.137 1.7863 2.255 3.2845 3.751 4.8232.715.7354 1.535 1.1803 2.302 1.8514.903.7898 2.014 1.8896 3.058 2.4116"/><path d="m86.9375 47.4243c2.9395.5736 5.7197 1.7539 8.7695 1.7539 1.4995 0 3.3859-1.161 4.604-1.9731"/><path d="m91.7603 33.8315c1.4536.8307 4.9793 1.9422 6.5771.877"/><path d="m80.1411 60.7979c.0278 1.3334.3665 2.6499.4385 3.9462.0911 1.6396 2.6387 1.5654 3.9463 1.8514 1.1985.2622 2.1857.4599 3.2886.95.3972.1766.9225.1318 1.3154.3167 1.7266.8125 3.3929 1.7866 5.1765 2.4725 1.6322.6278 3.2938.9319 5.0059 1.2058.7407.1185 1.3787.2193 2.1317.2193.97 0 2.191.3251 3.081.0487 1.512-.4692 3.083-.231 4.556-.8039 1.155-.4493 2.523-.5388 3.727-.7795"/><path d="m107.107 66.0596c-1.294-.233-2.42-.6577-3.727-.6577"/><path d="m86.937 63.8672c-.7831.1528-1.6123.4385-2.4116.4385"/><path d="m78.3867 66.498c-2.9968.5848-5.9806 2.4485-8.124 4.5919-.8046.8046-1.8378 1.4355-2.5212 2.3142-.3763.4837-1.2295 2.1006-1.6321 2.302"/><path d="m64.1367 80.7485c-.1499.7683-.4385 1.9003-.4385 2.6309"/><path d="m62.3826 87.3257c.0379 1.5922 0 3.1434 0 4.7014 0 1.6992-.4385 3.545-.4385 5.2739 0 1.963-.0543 3.996.7673 5.822.7271 1.616 1.6534 3.544 2.0828 5.262.3355 1.342 1.2154 2.859 2.1924 3.836 1.2429 1.243 1.4996 3.028 2.0219 4.653.8147 2.535.1705 5.173.1705 7.722"/><path d="m86.7178 82.722c1.5657.6492 2.4112.7245 4.0559.4385 1.2865-.2238 2.3898-.6578 3.727-.6578 1.3543 0 2.6753-.0512 4.0072 0 .8169.0315 1.6041.4385 2.4601.4385"/><path d="m105.134 82.9411c4.432 0 9.033-1.5055 12.935 1.0962"/><path d="m82.333 88.4219c.6769.132 1.2897.2192 1.9732.2192"/><path d="m86.7178 88.2026c1.5437-.252 2.8793-.695 4.2751-1.3154.6989-.3106 1.316-.6853 2.0828-.8769"/><path d="m102.284 86.0103c2.01.4205 3.787 1.1726 5.749 1.5833 2.484.52 4.686-.4872 7.186-.4872"/><path d="m113.465 91.0527c.904 0 2.14-.4314 3.021-.1705.615.1822 1.391.5757 2.022.609 1.119.0588 1.467 1.5346 2.411 1.5346"/><path d="m112.808 94.1221c.259 1.3274-.22 2.035-.22 3.2885"/><path d="m100.75 94.1221c1.177.3843 1.368.4081 1.973 1.3154"/><path d="m100.091 90.8334c-1.4506-.2831-4.0323-1.0758-5.4806-.3897-.7704.3649-2.4577.5764-3.3373.609-1.6899.0625-3.4911 1.1042-5.213 1.5346"/><path d="m88.0332 97.8496h5.2495c1.2889 0 2.4696.7818 3.7271 1.0962 1.8523.4631 3.1352 1.2562 3.7392 3.0692"/><path d="m88.4722 101.795c1.109.46 1.9959 1.284 3.1789 1.547 1.2812.285 2.4593.646 3.8123.646.7373 0 1.9995-.024 2.704-.268 1.047-.363 1.7229-1.436 2.8016-1.705"/><path d="m94.3914 99.603c-.9128.692-2.3347 2.417-.3288 2.862.91.203 1.2011.085 2.034-.45.322-.207.7445-.446.877-.829.1413-.408-.301-.34-.3776-.609-.2891-1.0114-2.0072-1.1111-2.3751-.048-.1418.409-.0373 1.073.4994 1.132.3704.042 1.1173-1.466.5481-1.181"/><path d="m122.892 98.9453c-2.593 0-4.91.3534-7.442.6699-.97.1213-2.506 2.5728-1.327 3.2278 1.374.763 2.955.306 4.384.816 1.214.433 1.986 1.541 3.07 2.083"/><path d="m121.358 99.603c-1.071.2551-3.976 1.262-2.509 2.728.486.487 1.388.966 1.413-.048.022-.905-.156-1.018-.439-1.584"/><path d="m111.931 106.18c.358.919.773 1.748.487 2.68-.217.706.035 1.312.341 1.924.672 1.344 2.757 1.06 3.508 2.412 1.185 2.133-1.858 5.919-4.117 5.919"/><path d="m107.327 118.238-1.097-.219"/><path d="m103.38 119.115c-1.104 0-2.056-.007-3.069-.487-.9803-.464-.8788-1.778-1.3159-2.704-.9761-2.067 3.0069-1.977 3.9459-2.29"/><path d="m98.5571 125.473c1.2797 0 2.2639.246 3.4109.767 1.534.698 3.282.549 4.92.549 2.329 0 4.758-.22 7.016-.22"/><path d="m115.657 71.7598c1.317 1.3166 2.867 2.9622 3.508 4.7258.548 1.5079 1.678 2.6531 2.412 4.0437.994 1.8836 2.539 3.4111 3.374 5.3592.635 1.4823.66 3.2845 1.132 4.8354.587 1.9293 1.278 3.8162 1.852 5.7611.52 1.7633.438 3.4113.438 5.262 0 1.877.438 3.658.67 5.517.213 1.702.207 3.399.207 5.14 0 1.443-.233 2.91-.609 4.3-.526 1.946-2.421 2.659-3.337 4.263-.441.771-.669 1.806-1.316 2.533-.574.646-.971 1.593-1.486 2.314-.352.493-.273 1.079-.536 1.632-1.14 2.407-2.626 5.738-4.872 7.235-1.038.693-1.446 1.696-2.679 2.241-2.108.933-3.319 1.267-5.554 1.267"/><path d="m76.8521 108.153c0 4.492 1.8005 8.088 3.2885 12.18 1.2911 3.551 4.5823 6.051 7.4541 8.307 1.7108 1.344 3.6876 2.058 5.5663 3.069 1.7939.966 4.0494 1.654 5.6149 2.972.3975.335 1.1556.695 1.6561.877 1.235.449 2.464 1.269 3.715 1.547.729.162 1.104.426 1.913.426.821 0 1.584-.04 2.362.22"/><path d="m78.3872 122.404c.4571 2.133.7988 4.34.877 6.528.0547 1.532-.9924 1.815-1.5347 2.899"/><path d="m77.9487 136.654c-2.0107.814-2.9705 2.04-4.336 3.557-.3454.384-.7441 1.327-.9257 1.827-.313.861-.6577 1.114-.6577 2.07"/><path d="m60.8481 140.601c2.5977-.605 4.0256-3.149 5.8099-4.933 1.0717-1.072 1.5168-2.332 1.8148-3.788.3345-1.636 1.1449-2.9 1.1449-4.653 0-1.393.2192-2.763.2192-4.165"/><path d="m98.7759 139.943c.7397.583 1.3091 1.31 1.9731 1.974"/><path d="m86.499 145.644c2.0009.64 3.0724 0 5.0425 0"/><path d="m62.1636 141.478c1.6297 1.63 3.5329 3.204 4.9572 4.945.7969.974 1.9273 1.589 2.7161 2.558.51.626 1.076 1.423 1.8514 1.705 3.0482 1.109 6.2034 1.014 9.342 1.328 1.3741.137 2.5724.426 3.9828.426 1.563 0 3.1019-.219 4.6527-.219 2.5449 0 4.977-.412 7.4785-.829 1.6962-.282 3.3077-.909 5.0177-1.144 1.646-.227 2.552-.961 3.849-1.925 1.438-1.068 2.504-2.333 3.727-3.556.513-.513.884-.789 1.097-1.535.158-.556.349-1.511.657-1.973"/><path d="m107.107 138.847c1.153.955 2.077 2.006 3.399 2.74 1.562.868 3.365.891 5.115.975 1.197.057 2.524.119 3.715-.037.846-.111 2.208-.551 3.021-.28.725.242 1.734.288 2.509.329.752.039 1.806.99 2.448 1.327 2.123 1.118 4.668 1.89 6.321 3.727 1.561 1.735 2.672 3.884 3.606 6.005 1.018 2.315 1.235 4.871 2.094 7.235.748 2.056 1.357 4.16 2.071 6.236 1.516 4.41 1.904 8.82 2.582 13.398.148.994.258 2.089.5 3.057.201.808-.03 1.649.28 2.424.494 1.236-.136 3.119-.171 4.385-.021.775-.364 1.537-.426 2.314-.057.714.086 1.399-.183 2.071-.391.978-.209 3.105-.268 4.165-.08 1.449-.438 2.936-.438 4.385 0 .917-.439 1.809-.439 2.631"/><path d="m132.758 176.337c.584 3.65.71 7.332 1.096 10.998.322 3.057.302 5.785-.438 8.746-.195.779-.571 1.579-.829 2.35-.422 1.268-.257 2.662-.706 3.898-.861 2.367-1.053 4.888-1.328 7.357-.207 1.868-.645 3.828-.645 5.675 0 2.496-.725 4.949-.39 7.503.632 4.817.609 9.775.609 14.64"/><path d="m131.443 202.207c1.601 1.977 3.507 2.803 5.931 3.288 1.95.39 4.651.161 6.127-1.315"/><path d="m136.924 207.03v17.856 9.914c0 4.191-.322 8.515.012 12.692.397 4.958.646 9.906.646 14.896 0 1.058.245 3.575-.987 3.849-1.313.292-2.731.865-4.056.865"/><path d="m131.224 233.997c1.211 3.86.438 8.077.438 12.058 0 2.496.22 5.962-1.315 8.063-1.248 1.707-3.46 2.672-5.213 3.776-2.174 1.368-5.14 2.137-7.674 2.192-4.665.101-9.383.166-14.08.219-6.4408.073-12.8304.877-19.2926.877-7.2384 0-14.4526-.379-21.6559-.219-2.9362.065-5.8808 0-8.8182 0"/><path d="m132.32 255.482c-.708 3.384-1.316 6.832-1.316 10.304 0 3.321.22 6.644.22 9.988 0 3.366-.439 6.757-.439 10.133v7.503"/><path d="m135.608 267.978c0 2.472-.805 4.798-.877 7.235-.058 1.988-1.259 3.886-1.315 5.919-.093 3.366-1.315 6.732-1.315 10.085"/><path d="m131.881 293.41c0 2.744-.251 5.331-.45 8.027-.128 1.726-.407 3.501-.427 5.225-.02 1.819.22 3.605.22 5.408 0 1.551-.048 3.054.389 4.531.777 2.621 2.461 5.199 2.461 8.038 0 6.854.477 13.66-.207 20.499-.298 2.975-1.819 5.574-2.375 8.465-.545 2.835-1.66 5.55-2.193 8.429-1.516 8.186.127 16.627-.597 24.871-.266 3.042-.548 6.054-.548 9.111 0 2.341.266 5.025-.487 7.283-1.732 5.196-9.948 5.433-14.531 5.433-4.588 0-9.161 0-13.7019 0"/><path d="m105.792 409.826c0 1.557.11 4.574 1.535 5.652 1.108.838 2.784 1.251 4.068 1.754.846.331 1.49.809 2.277 1.242 1.678.923 6.937 4.999 8.124 1.437"/><path d="m119.385 408.949c-.245 1.807-.195 3.902 1.485 5.042.997.676 2.257 1.323 3.338 1.864 2.05 1.025 3.61.033 5.261-1.206"/><path d="m125.743 418.814c.208 0 1.882-.225 1.705.268-.161.447-.637.692-1.048.829"/><path d="m80.3604 406.756c1.1387 3.484.9623 7.219.3167 10.816-.5927 3.302-3.7134 2.158-6.2483 2.68-2.1971.452-4.1202-.075-6.2971-.122-1.7739-.039-3.5378-.158-5.3104-.219-1.195-.042-2.3347.219-3.5078.219"/><path d="m57.998 395.795c.848 2.278.5901 4.464 2.1924 6.467.1717.215 1.7238.329 2.0828.329 1.7062 0 3.4018-.219 5.1156-.219 3.1637 0 6.1915 1.43 9.342 1.705 1.5195.133 2.8958.389 4.3847.049.9115-.209 2.0879-.439 3.0207-.439h2.7161c1.2765 0 3.4003-.432 4.5918.11.5941.27 1.0677-.05 1.6443-.122 1.4038-.175 1.3974-.466 1.6321-1.9.9269-5.664 2.3747-11.226 2.9476-16.955.3136-3.136.0121-6.28.0121-9.427 0-16.701-.4193-33.375-1.2058-50.047-.3676-7.794-.9866-15.537-.9866-23.337 0-3.408.877-6.754.877-10.134"/><path d="m49.4478 237.285c.8943 2.218 1.8073 4.572 2.4116 6.894.7601 2.92.9573 5.846 1.4372 8.793.3891 2.391.9744 4.69.9744 7.113"/><path d="m54.2705 263.375c0 7.337-1.0962 14.623-1.0962 21.96 0 4.393-.3997 8.787-.5481 13.179-.2329 6.894.0367 13.843.1218 20.742.0513 4.157.8648 8.255.8648 12.387v5.968c0 3.988-.7118 7.959-.8648 11.936-.1023 2.661-.2314 5.317-.2314 7.978 0 2.247.4385 4.458.4385 6.699 0 1.531.2192 3.054.2192 4.604v2.631c0 .773.0626.871-.6577.439"/><path d="m23.5776 200.234c.5052 3.789-.3249 7.855.9866 11.498 1.2701 3.528 1.5682 7.409 2.0341 11.083.4629 3.652.0654 7.287 2.034 10.609 2.1648 3.653 5.2177 3.423 8.9766 3.423 2.5158 0 4.9574.335 7.4663-.329 4.2478-1.125 8.3558-2.811 11.8267-5.639 1.5513-1.264 2.9753-2.489 4.3848-3.898 1.4498-1.45 3.3662-2.261 5.1643-3.191 2.3846-1.234 4.2638-3.009 6.4553-4.47.8593-.573 1.6657-1.116 2.4604-1.766 1.2344-1.01 2.6673-1.696 3.8975-2.68 2.8606-2.288 6.1303-3.771 9.3177-5.542 1.5536-.863 2.8735-1.425 4.6649-1.425 2.0106 0 3.7441 1.754 5.8585 1.754 2.4547 0 4.9817-.577 7.0037-2.022 2.265-1.618 5.065-4.148 3.301-7.088-.657-1.094-1.467-2.009-2.193-3.058-.714-1.031-.779-1.479-1.912-1.814-1.697-.503-4.037.18-5.749.438-1.8406.278-3.6459.352-5.481.719-2.0006.4-3.9685.378-5.822-.548"/><path d="m87.814 185.983c-.0263 1.555-.0143 5.147-1.1449 6.528-.9225 1.128-2.2804 2.291-2.911 3.679-.5243 1.153-.5481 2.108-.5481 3.374 0 1.817-1.7982 1.783-3.2886 2.155-3.2026.801-5.8458 2.325-8.8669 3.654-5.7592 2.534-11.7433 4.79-17.6122 7.138-2.4891.995-4.9501 2.092-7.2714 3.398-1.2244.689-2.4489 1.653-3.7393 2.083"/><path d="m41.9937 202.207c1.2855.835 1.6413 2.132 2.4116 3.398.7356 1.208.5822 2.878 1.4128 3.946.9475 1.218.9648 3.296 1.4373 4.714"/><path d="m89.3493 209.003c0 1.706-.1127 6.63 2.6308 6.09 2.0456-.402 4.2974-.506 6.358-.609.7476-.037 1.5346.261 1.5346-.743 0-.846.3923-1.748.6573-2.545"/><path d="m87.3755 185.545c3.2464 0 6.5234-.219 9.7439-.219.9664 0 1.9701.219 2.9716.219.711 0 1.438.044 2.144-.049.4-.052 1.067-.327 1.474-.146 1.115.496.578 4.918.28 5.846-.423 1.315-.39 2.825-.39 4.215"/><path d="m44.8438 181.379c.1007 4.431 1.0762 8.496 1.8513 12.814.3808 2.121.7795 4.539.7795 6.699"/><path d="m86.7178 191.464c.2688 1.445.2621 3.134 1.0962 4.385"/><path d="m47.0357 201.769c-7.3562 0-14.6534-.658-22.0213-.658-2.6105 0-5.297-.658-8.0144-.658"/><path d="m17 200.453c.6733-3.704 1.3154-7.303 1.3154-11.06 0-2.195-.2133-4.267-.0121-6.479.3314-3.647.8963-6.909 2.0827-10.402 1.4034-4.132 3.6087-8.263 6.0413-11.912 2.448-3.672 5.5399-7.562 9.3298-9.914 3.638-2.259 7.3731-4.538 11.4978-5.798 2.9288-.895 5.8151-1.883 8.7696-2.704 1.2844-.357 2.6424-.443 3.9584-.706.7347-.147 1.6665-.439 2.3995-.439"/></g><g filter="url(#b)"><path d="m96.584 17.827c-1.4976.621-3.3962 3.0092-2.0706 4.7136 1.4215 1.8276 2.769 2.1193 4.7015.877 1.9151-1.2311 3.1861-3.3931 1.7541-5.5419-.929-1.3933-3.291-.7064-4.6042-.7064"/><path d="m94.8296 24.4043c-1.4491 3.4555-2.6782 7.1081-4.3969 10.4382-1.4915 2.8897-1.9921 6.2849-3.0572 9.342-.792 2.2733-1.9195 4.245-2.9475 6.3945-.5631 1.1772-1.3899 2.277-2.095 3.3738-.5179.8057-1.3154 1.9417-1.3154 2.8988"/><path d="m82.5522 55.5361c1.3714.8292 2.4355 1.5461 3.9342 2.0706.7064.2473 1.5169.0935 2.2532.1218 1.5586.06 3.2042.3807 4.8233.4385 2.1391.0764 4.1912.2353 6.3092 0 .9349-.1038 2.4069-.7436 3.2889-1.0962"/><path d="m96.584 24.8428c3.1594 6.5102 3.0755 14.0433 4.555 20.9982.838 3.9371.789 7.7965 2.339 11.4978.704 1.6817 1.896 2.9586 2.85 4.4579 1.137 1.7863 2.255 3.2845 3.751 4.8232.715.7354 1.535 1.1803 2.302 1.8514.903.7898 2.014 1.8896 3.058 2.4116"/><path d="m86.9375 47.4243c2.9395.5736 5.7197 1.7539 8.7695 1.7539 1.4995 0 3.3859-1.161 4.604-1.9731"/><path d="m91.7603 33.8315c1.4536.8307 4.9793 1.9422 6.5771.877"/><path d="m80.1411 60.7979c.0278 1.3334.3665 2.6499.4385 3.9462.0911 1.6396 2.6387 1.5654 3.9463 1.8514 1.1985.2622 2.1857.4599 3.2886.95.3972.1766.9225.1318 1.3154.3167 1.7266.8125 3.3929 1.7866 5.1765 2.4725 1.6322.6278 3.2938.9319 5.0059 1.2058.7407.1185 1.3787.2193 2.1317.2193.97 0 2.191.3251 3.081.0487 1.512-.4692 3.083-.231 4.556-.8039 1.155-.4493 2.523-.5388 3.727-.7795"/><path d="m107.107 66.0596c-1.294-.233-2.42-.6577-3.727-.6577"/><path d="m86.937 63.8672c-.7831.1528-1.6123.4385-2.4116.4385"/><path d="m78.3867 66.498c-2.9968.5848-5.9806 2.4485-8.124 4.5919-.8046.8046-1.8378 1.4355-2.5212 2.3142-.3763.4837-1.2295 2.1006-1.6321 2.302"/><path d="m64.1367 80.7485c-.1499.7683-.4385 1.9003-.4385 2.6309"/><path d="m62.3826 87.3257c.0379 1.5922 0 3.1434 0 4.7014 0 1.6992-.4385 3.545-.4385 5.2739 0 1.963-.0543 3.996.7673 5.822.7271 1.616 1.6534 3.544 2.0828 5.262.3355 1.342 1.2154 2.859 2.1924 3.836 1.2429 1.243 1.4996 3.028 2.0219 4.653.8147 2.535.1705 5.173.1705 7.722"/><path d="m86.7178 82.722c1.5657.6492 2.4112.7245 4.0559.4385 1.2865-.2238 2.3898-.6578 3.727-.6578 1.3543 0 2.6753-.0512 4.0072 0 .8169.0315 1.6041.4385 2.4601.4385"/><path d="m105.134 82.9411c4.432 0 9.033-1.5055 12.935 1.0962"/><path d="m82.333 88.4219c.6769.132 1.2897.2192 1.9732.2192"/><path d="m86.7178 88.2026c1.5437-.252 2.8793-.695 4.2751-1.3154.6989-.3106 1.316-.6853 2.0828-.8769"/><path d="m102.284 86.0103c2.01.4205 3.787 1.1726 5.749 1.5833 2.484.52 4.686-.4872 7.186-.4872"/><path d="m113.465 91.0527c.904 0 2.14-.4314 3.021-.1705.615.1822 1.391.5757 2.022.609 1.119.0588 1.467 1.5346 2.411 1.5346"/><path d="m112.808 94.1221c.259 1.3274-.22 2.035-.22 3.2885"/><path d="m100.75 94.1221c1.177.3843 1.368.4081 1.973 1.3154"/><path d="m100.091 90.8334c-1.4506-.2831-4.0323-1.0758-5.4806-.3897-.7704.3649-2.4577.5764-3.3373.609-1.6899.0625-3.4911 1.1042-5.213 1.5346"/><path d="m88.0332 97.8496h5.2495c1.2889 0 2.4696.7818 3.7271 1.0962 1.8523.4631 3.1352 1.2562 3.7392 3.0692"/><path d="m88.4722 101.795c1.109.46 1.9959 1.284 3.1789 1.547 1.2812.285 2.4593.646 3.8123.646.7373 0 1.9995-.024 2.704-.268 1.047-.363 1.7229-1.436 2.8016-1.705"/><path d="m94.3914 99.603c-.9128.692-2.3347 2.417-.3288 2.862.91.203 1.2011.085 2.034-.45.322-.207.7445-.446.877-.829.1413-.408-.301-.34-.3776-.609-.2891-1.0114-2.0072-1.1111-2.3751-.048-.1418.409-.0373 1.073.4994 1.132.3704.042 1.1173-1.466.5481-1.181"/><path d="m122.892 98.9453c-2.593 0-4.91.3534-7.442.6699-.97.1213-2.506 2.5728-1.327 3.2278 1.374.763 2.955.306 4.384.816 1.214.433 1.986 1.541 3.07 2.083"/><path d="m121.358 99.603c-1.071.2551-3.976 1.262-2.509 2.728.486.487 1.388.966 1.413-.048.022-.905-.156-1.018-.439-1.584"/><path d="m111.931 106.18c.358.919.773 1.748.487 2.68-.217.706.035 1.312.341 1.924.672 1.344 2.757 1.06 3.508 2.412 1.185 2.133-1.858 5.919-4.117 5.919"/><path d="m107.327 118.238-1.097-.219"/><path d="m103.38 119.115c-1.104 0-2.056-.007-3.069-.487-.9803-.464-.8788-1.778-1.3159-2.704-.9761-2.067 3.0069-1.977 3.9459-2.29"/><path d="m98.5571 125.473c1.2797 0 2.2639.246 3.4109.767 1.534.698 3.282.549 4.92.549 2.329 0 4.758-.22 7.016-.22"/><path d="m115.657 71.7598c1.317 1.3166 2.867 2.9622 3.508 4.7258.548 1.5079 1.678 2.6531 2.412 4.0437.994 1.8836 2.539 3.4111 3.374 5.3592.635 1.4823.66 3.2845 1.132 4.8354.587 1.9293 1.278 3.8162 1.852 5.7611.52 1.7633.438 3.4113.438 5.262 0 1.877.438 3.658.67 5.517.213 1.702.207 3.399.207 5.14 0 1.443-.233 2.91-.609 4.3-.526 1.946-2.421 2.659-3.337 4.263-.441.771-.669 1.806-1.316 2.533-.574.646-.971 1.593-1.486 2.314-.352.493-.273 1.079-.536 1.632-1.14 2.407-2.626 5.738-4.872 7.235-1.038.693-1.446 1.696-2.679 2.241-2.108.933-3.319 1.267-5.554 1.267"/><path d="m76.8521 108.153c0 4.492 1.8005 8.088 3.2885 12.18 1.2911 3.551 4.5823 6.051 7.4541 8.307 1.7108 1.344 3.6876 2.058 5.5663 3.069 1.7939.966 4.0494 1.654 5.6149 2.972.3975.335 1.1556.695 1.6561.877 1.235.449 2.464 1.269 3.715 1.547.729.162 1.104.426 1.913.426.821 0 1.584-.04 2.362.22"/><path d="m78.3872 122.404c.4571 2.133.7988 4.34.877 6.528.0547 1.532-.9924 1.815-1.5347 2.899"/><path d="m77.9487 136.654c-2.0107.814-2.9705 2.04-4.336 3.557-.3454.384-.7441 1.327-.9257 1.827-.313.861-.6577 1.114-.6577 2.07"/><path d="m60.8481 140.601c2.5977-.605 4.0256-3.149 5.8099-4.933 1.0717-1.072 1.5168-2.332 1.8148-3.788.3345-1.636 1.1449-2.9 1.1449-4.653 0-1.393.2192-2.763.2192-4.165"/><path d="m98.7759 139.943c.7397.583 1.3091 1.31 1.9731 1.974"/><path d="m86.499 145.644c2.0009.64 3.0724 0 5.0425 0"/><path d="m62.1636 141.478c1.6297 1.63 3.5329 3.204 4.9572 4.945.7969.974 1.9273 1.589 2.7161 2.558.51.626 1.076 1.423 1.8514 1.705 3.0482 1.109 6.2034 1.014 9.342 1.328 1.3741.137 2.5724.426 3.9828.426 1.563 0 3.1019-.219 4.6527-.219 2.5449 0 4.977-.412 7.4785-.829 1.6962-.282 3.3077-.909 5.0177-1.144 1.646-.227 2.552-.961 3.849-1.925 1.438-1.068 2.504-2.333 3.727-3.556.513-.513.884-.789 1.097-1.535.158-.556.349-1.511.657-1.973"/><path d="m107.107 138.847c1.153.955 2.077 2.006 3.399 2.74 1.562.868 3.365.891 5.115.975 1.197.057 2.524.119 3.715-.037.846-.111 2.208-.551 3.021-.28.725.242 1.734.288 2.509.329.752.039 1.806.99 2.448 1.327 2.123 1.118 4.668 1.89 6.321 3.727 1.561 1.735 2.672 3.884 3.606 6.005 1.018 2.315 1.235 4.871 2.094 7.235.748 2.056 1.357 4.16 2.071 6.236 1.516 4.41 1.904 8.82 2.582 13.398.148.994.258 2.089.5 3.057.201.808-.03 1.649.28 2.424.494 1.236-.136 3.119-.171 4.385-.021.775-.364 1.537-.426 2.314-.057.714.086 1.399-.183 2.071-.391.978-.209 3.105-.268 4.165-.08 1.449-.438 2.936-.438 4.385 0 .917-.439 1.809-.439 2.631"/><path d="m132.758 176.337c.584 3.65.71 7.332 1.096 10.998.322 3.057.302 5.785-.438 8.746-.195.779-.571 1.579-.829 2.35-.422 1.268-.257 2.662-.706 3.898-.861 2.367-1.053 4.888-1.328 7.357-.207 1.868-.645 3.828-.645 5.675 0 2.496-.725 4.949-.39 7.503.632 4.817.609 9.775.609 14.64"/><path d="m131.443 202.207c1.601 1.977 3.507 2.803 5.931 3.288 1.95.39 4.651.161 6.127-1.315"/><path d="m136.924 207.03v17.856 9.914c0 4.191-.322 8.515.012 12.692.397 4.958.646 9.906.646 14.896 0 1.058.245 3.575-.987 3.849-1.313.292-2.731.865-4.056.865"/><path d="m131.224 233.997c1.211 3.86.438 8.077.438 12.058 0 2.496.22 5.962-1.315 8.063-1.248 1.707-3.46 2.672-5.213 3.776-2.174 1.368-5.14 2.137-7.674 2.192-4.665.101-9.383.166-14.08.219-6.4408.073-12.8304.877-19.2926.877-7.2384 0-14.4526-.379-21.6559-.219-2.9362.065-5.8808 0-8.8182 0"/><path d="m132.32 255.482c-.708 3.384-1.316 6.832-1.316 10.304 0 3.321.22 6.644.22 9.988 0 3.366-.439 6.757-.439 10.133v7.503"/><path d="m135.608 267.978c0 2.472-.805 4.798-.877 7.235-.058 1.988-1.259 3.886-1.315 5.919-.093 3.366-1.315 6.732-1.315 10.085"/><path d="m131.881 293.41c0 2.744-.251 5.331-.45 8.027-.128 1.726-.407 3.501-.427 5.225-.02 1.819.22 3.605.22 5.408 0 1.551-.048 3.054.389 4.531.777 2.621 2.461 5.199 2.461 8.038 0 6.854.477 13.66-.207 20.499-.298 2.975-1.819 5.574-2.375 8.465-.545 2.835-1.66 5.55-2.193 8.429-1.516 8.186.127 16.627-.597 24.871-.266 3.042-.548 6.054-.548 9.111 0 2.341.266 5.025-.487 7.283-1.732 5.196-9.948 5.433-14.531 5.433-4.588 0-9.161 0-13.7019 0"/><path d="m105.792 409.826c0 1.557.11 4.574 1.535 5.652 1.108.838 2.784 1.251 4.068 1.754.846.331 1.49.809 2.277 1.242 1.678.923 6.937 4.999 8.124 1.437"/><path d="m119.385 408.949c-.245 1.807-.195 3.902 1.485 5.042.997.676 2.257 1.323 3.338 1.864 2.05 1.025 3.61.033 5.261-1.206"/><path d="m125.743 418.814c.208 0 1.882-.225 1.705.268-.161.447-.637.692-1.048.829"/><path d="m80.3604 406.756c1.1387 3.484.9623 7.219.3167 10.816-.5927 3.302-3.7134 2.158-6.2483 2.68-2.1971.452-4.1202-.075-6.2971-.122-1.7739-.039-3.5378-.158-5.3104-.219-1.195-.042-2.3347.219-3.5078.219"/><path d="m57.998 395.795c.848 2.278.5901 4.464 2.1924 6.467.1717.215 1.7238.329 2.0828.329 1.7062 0 3.4018-.219 5.1156-.219 3.1637 0 6.1915 1.43 9.342 1.705 1.5195.133 2.8958.389 4.3847.049.9115-.209 2.0879-.439 3.0207-.439h2.7161c1.2765 0 3.4003-.432 4.5918.11.5941.27 1.0677-.05 1.6443-.122 1.4038-.175 1.3974-.466 1.6321-1.9.9269-5.664 2.3747-11.226 2.9476-16.955.3136-3.136.0121-6.28.0121-9.427 0-16.701-.4193-33.375-1.2058-50.047-.3676-7.794-.9866-15.537-.9866-23.337 0-3.408.877-6.754.877-10.134"/><path d="m49.4478 237.285c.8943 2.218 1.8073 4.572 2.4116 6.894.7601 2.92.9573 5.846 1.4372 8.793.3891 2.391.9744 4.69.9744 7.113"/><path d="m54.2705 263.375c0 7.337-1.0962 14.623-1.0962 21.96 0 4.393-.3997 8.787-.5481 13.179-.2329 6.894.0367 13.843.1218 20.742.0513 4.157.8648 8.255.8648 12.387v5.968c0 3.988-.7118 7.959-.8648 11.936-.1023 2.661-.2314 5.317-.2314 7.978 0 2.247.4385 4.458.4385 6.699 0 1.531.2192 3.054.2192 4.604v2.631c0 .773.0626.871-.6577.439"/><path d="m23.5776 200.234c.5052 3.789-.3249 7.855.9866 11.498 1.2701 3.528 1.5682 7.409 2.0341 11.083.4629 3.652.0654 7.287 2.034 10.609 2.1648 3.653 5.2177 3.423 8.9766 3.423 2.5158 0 4.9574.335 7.4663-.329 4.2478-1.125 8.3558-2.811 11.8267-5.639 1.5513-1.264 2.9753-2.489 4.3848-3.898 1.4498-1.45 3.3662-2.261 5.1643-3.191 2.3846-1.234 4.2638-3.009 6.4553-4.47.8593-.573 1.6657-1.116 2.4604-1.766 1.2344-1.01 2.6673-1.696 3.8975-2.68 2.8606-2.288 6.1303-3.771 9.3177-5.542 1.5536-.863 2.8735-1.425 4.6649-1.425 2.0106 0 3.7441 1.754 5.8585 1.754 2.4547 0 4.9817-.577 7.0037-2.022 2.265-1.618 5.065-4.148 3.301-7.088-.657-1.094-1.467-2.009-2.193-3.058-.714-1.031-.779-1.479-1.912-1.814-1.697-.503-4.037.18-5.749.438-1.8406.278-3.6459.352-5.481.719-2.0006.4-3.9685.378-5.822-.548"/><path d="m87.814 185.983c-.0263 1.555-.0143 5.147-1.1449 6.528-.9225 1.128-2.2804 2.291-2.911 3.679-.5243 1.153-.5481 2.108-.5481 3.374 0 1.817-1.7982 1.783-3.2886 2.155-3.2026.801-5.8458 2.325-8.8669 3.654-5.7592 2.534-11.7433 4.79-17.6122 7.138-2.4891.995-4.9501 2.092-7.2714 3.398-1.2244.689-2.4489 1.653-3.7393 2.083"/><path d="m41.9937 202.207c1.2855.835 1.6413 2.132 2.4116 3.398.7356 1.208.5822 2.878 1.4128 3.946.9475 1.218.9648 3.296 1.4373 4.714"/><path d="m89.3493 209.003c0 1.706-.1127 6.63 2.6308 6.09 2.0456-.402 4.2974-.506 6.358-.609.7476-.037 1.5346.261 1.5346-.743 0-.846.3923-1.748.6573-2.545"/><path d="m87.3755 185.545c3.2464 0 6.5234-.219 9.7439-.219.9664 0 1.9701.219 2.9716.219.711 0 1.438.044 2.144-.049.4-.052 1.067-.327 1.474-.146 1.115.496.578 4.918.28 5.846-.423 1.315-.39 2.825-.39 4.215"/><path d="m44.8438 181.379c.1007 4.431 1.0762 8.496 1.8513 12.814.3808 2.121.7795 4.539.7795 6.699"/><path d="m86.7178 191.464c.2688 1.445.2621 3.134 1.0962 4.385"/><path d="m47.0357 201.769c-7.3562 0-14.6534-.658-22.0213-.658-2.6105 0-5.297-.658-8.0144-.658"/><path d="m17 200.453c.6733-3.704 1.3154-7.303 1.3154-11.06 0-2.195-.2133-4.267-.0121-6.479.3314-3.647.8963-6.909 2.0827-10.402 1.4034-4.132 3.6087-8.263 6.0413-11.912 2.448-3.672 5.5399-7.562 9.3298-9.914 3.638-2.259 7.3731-4.538 11.4978-5.798 2.9288-.895 5.8151-1.883 8.7696-2.704 1.2844-.357 2.6424-.443 3.9584-.706.7347-.147 1.6665-.439 2.3995-.439"/></g><path d="m96.584 17.827c-1.4976.621-3.3962 3.0092-2.0706 4.7136 1.4215 1.8276 2.769 2.1193 4.7015.877 1.9151-1.2311 3.1861-3.3931 1.7541-5.5419-.929-1.3933-3.291-.7064-4.6042-.7064"/><path d="m94.8296 24.4043c-1.4491 3.4555-2.6782 7.1081-4.3969 10.4382-1.4915 2.8897-1.9921 6.2849-3.0572 9.342-.792 2.2733-1.9195 4.245-2.9475 6.3945-.5631 1.1772-1.3899 2.277-2.095 3.3738-.5179.8057-1.3154 1.9417-1.3154 2.8988"/><path d="m82.5522 55.5361c1.3714.8292 2.4355 1.5461 3.9342 2.0706.7064.2473 1.5169.0935 2.2532.1218 1.5586.06 3.2042.3807 4.8233.4385 2.1391.0764 4.1912.2353 6.3092 0 .9349-.1038 2.4069-.7436 3.2889-1.0962"/><path d="m96.584 24.8428c3.1594 6.5102 3.0755 14.0433 4.555 20.9982.838 3.9371.789 7.7965 2.339 11.4978.704 1.6817 1.896 2.9586 2.85 4.4579 1.137 1.7863 2.255 3.2845 3.751 4.8232.715.7354 1.535 1.1803 2.302 1.8514.903.7898 2.014 1.8896 3.058 2.4116"/><path d="m86.9375 47.4243c2.9395.5736 5.7197 1.7539 8.7695 1.7539 1.4995 0 3.3859-1.161 4.604-1.9731"/><path d="m91.7603 33.8315c1.4536.8307 4.9793 1.9422 6.5771.877"/><path d="m80.1411 60.7979c.0278 1.3334.3665 2.6499.4385 3.9462.0911 1.6396 2.6387 1.5654 3.9463 1.8514 1.1985.2622 2.1857.4599 3.2886.95.3972.1766.9225.1318 1.3154.3167 1.7266.8125 3.3929 1.7866 5.1765 2.4725 1.6322.6278 3.2938.9319 5.0059 1.2058.7407.1185 1.3787.2193 2.1317.2193.97 0 2.191.3251 3.081.0487 1.512-.4692 3.083-.231 4.556-.8039 1.155-.4493 2.523-.5388 3.727-.7795"/><path d="m107.107 66.0596c-1.294-.233-2.42-.6577-3.727-.6577"/><path d="m86.937 63.8672c-.7831.1528-1.6123.4385-2.4116.4385"/><path d="m78.3867 66.498c-2.9968.5848-5.9806 2.4485-8.124 4.5919-.8046.8046-1.8378 1.4355-2.5212 2.3142-.3763.4837-1.2295 2.1006-1.6321 2.302"/><path d="m64.1367 80.7485c-.1499.7683-.4385 1.9003-.4385 2.6309"/><path d="m62.3826 87.3257c.0379 1.5922 0 3.1434 0 4.7014 0 1.6992-.4385 3.545-.4385 5.2739 0 1.963-.0543 3.996.7673 5.822.7271 1.616 1.6534 3.544 2.0828 5.262.3355 1.342 1.2154 2.859 2.1924 3.836 1.2429 1.243 1.4996 3.028 2.0219 4.653.8147 2.535.1705 5.173.1705 7.722"/><path d="m86.7178 82.722c1.5657.6492 2.4112.7245 4.0559.4385 1.2865-.2238 2.3898-.6578 3.727-.6578 1.3543 0 2.6753-.0512 4.0072 0 .8169.0315 1.6041.4385 2.4601.4385"/><path d="m105.134 82.9411c4.432 0 9.033-1.5055 12.935 1.0962"/><path d="m82.333 88.4219c.6769.132 1.2897.2192 1.9732.2192"/><path d="m86.7178 88.2026c1.5437-.252 2.8793-.695 4.2751-1.3154.6989-.3106 1.316-.6853 2.0828-.8769"/><path d="m102.284 86.0103c2.01.4205 3.787 1.1726 5.749 1.5833 2.484.52 4.686-.4872 7.186-.4872"/><path d="m113.465 91.0527c.904 0 2.14-.4314 3.021-.1705.615.1822 1.391.5757 2.022.609 1.119.0588 1.467 1.5346 2.411 1.5346"/><path d="m112.808 94.1221c.259 1.3274-.22 2.035-.22 3.2885"/><path d="m100.75 94.1221c1.177.3843 1.368.4081 1.973 1.3154"/><path d="m100.091 90.8334c-1.4506-.2831-4.0323-1.0758-5.4806-.3897-.7704.3649-2.4577.5764-3.3373.609-1.6899.0625-3.4911 1.1042-5.213 1.5346"/><path d="m88.0332 97.8496h5.2495c1.2889 0 2.4696.7818 3.7271 1.0962 1.8523.4631 3.1352 1.2562 3.7392 3.0692"/><path d="m88.4722 101.795c1.109.46 1.9959 1.284 3.1789 1.547 1.2812.285 2.4593.646 3.8123.646.7373 0 1.9995-.024 2.704-.268 1.047-.363 1.7229-1.436 2.8016-1.705"/><path d="m94.3914 99.603c-.9128.692-2.3347 2.417-.3288 2.862.91.203 1.2011.085 2.034-.45.322-.207.7445-.446.877-.829.1413-.408-.301-.34-.3776-.609-.2891-1.0114-2.0072-1.1111-2.3751-.048-.1418.409-.0373 1.073.4994 1.132.3704.042 1.1173-1.466.5481-1.181"/><path d="m122.892 98.9453c-2.593 0-4.91.3534-7.442.6699-.97.1213-2.506 2.5728-1.327 3.2278 1.374.763 2.955.306 4.384.816 1.214.433 1.986 1.541 3.07 2.083"/><path d="m121.358 99.603c-1.071.2551-3.976 1.262-2.509 2.728.486.487 1.388.966 1.413-.048.022-.905-.156-1.018-.439-1.584"/><path d="m111.931 106.18c.358.919.773 1.748.487 2.68-.217.706.035 1.312.341 1.924.672 1.344 2.757 1.06 3.508 2.412 1.185 2.133-1.858 5.919-4.117 5.919"/><path d="m107.327 118.238-1.097-.219"/><path d="m103.38 119.115c-1.104 0-2.056-.007-3.069-.487-.9803-.464-.8788-1.778-1.3159-2.704-.9761-2.067 3.0069-1.977 3.9459-2.29"/><path d="m98.5571 125.473c1.2797 0 2.2639.246 3.4109.767 1.534.698 3.282.549 4.92.549 2.329 0 4.758-.22 7.016-.22"/><path d="m115.657 71.7598c1.317 1.3166 2.867 2.9622 3.508 4.7258.548 1.5079 1.678 2.6531 2.412 4.0437.994 1.8836 2.539 3.4111 3.374 5.3592.635 1.4823.66 3.2845 1.132 4.8354.587 1.9293 1.278 3.8162 1.852 5.7611.52 1.7633.438 3.4113.438 5.262 0 1.877.438 3.658.67 5.517.213 1.702.207 3.399.207 5.14 0 1.443-.233 2.91-.609 4.3-.526 1.946-2.421 2.659-3.337 4.263-.441.771-.669 1.806-1.316 2.533-.574.646-.971 1.593-1.486 2.314-.352.493-.273 1.079-.536 1.632-1.14 2.407-2.626 5.738-4.872 7.235-1.038.693-1.446 1.696-2.679 2.241-2.108.933-3.319 1.267-5.554 1.267"/><path d="m76.8521 108.153c0 4.492 1.8005 8.088 3.2885 12.18 1.2911 3.551 4.5823 6.051 7.4541 8.307 1.7108 1.344 3.6876 2.058 5.5663 3.069 1.7939.966 4.0494 1.654 5.6149 2.972.3975.335 1.1556.695 1.6561.877 1.235.449 2.464 1.269 3.715 1.547.729.162 1.104.426 1.913.426.821 0 1.584-.04 2.362.22"/><path d="m78.3872 122.404c.4571 2.133.7988 4.34.877 6.528.0547 1.532-.9924 1.815-1.5347 2.899"/><path d="m77.9487 136.654c-2.0107.814-2.9705 2.04-4.336 3.557-.3454.384-.7441 1.327-.9257 1.827-.313.861-.6577 1.114-.6577 2.07"/><path d="m60.8481 140.601c2.5977-.605 4.0256-3.149 5.8099-4.933 1.0717-1.072 1.5168-2.332 1.8148-3.788.3345-1.636 1.1449-2.9 1.1449-4.653 0-1.393.2192-2.763.2192-4.165"/><path d="m98.7759 139.943c.7397.583 1.3091 1.31 1.9731 1.974"/><path d="m86.499 145.644c2.0009.64 3.0724 0 5.0425 0"/><path d="m62.1636 141.478c1.6297 1.63 3.5329 3.204 4.9572 4.945.7969.974 1.9273 1.589 2.7161 2.558.51.626 1.076 1.423 1.8514 1.705 3.0482 1.109 6.2034 1.014 9.342 1.328 1.3741.137 2.5724.426 3.9828.426 1.563 0 3.1019-.219 4.6527-.219 2.5449 0 4.977-.412 7.4785-.829 1.6962-.282 3.3077-.909 5.0177-1.144 1.646-.227 2.552-.961 3.849-1.925 1.438-1.068 2.504-2.333 3.727-3.556.513-.513.884-.789 1.097-1.535.158-.556.349-1.511.657-1.973"/><path d="m107.107 138.847c1.153.955 2.077 2.006 3.399 2.74 1.562.868 3.365.891 5.115.975 1.197.057 2.524.119 3.715-.037.846-.111 2.208-.551 3.021-.28.725.242 1.734.288 2.509.329.752.039 1.806.99 2.448 1.327 2.123 1.118 4.668 1.89 6.321 3.727 1.561 1.735 2.672 3.884 3.606 6.005 1.018 2.315 1.235 4.871 2.094 7.235.748 2.056 1.357 4.16 2.071 6.236 1.516 4.41 1.904 8.82 2.582 13.398.148.994.258 2.089.5 3.057.201.808-.03 1.649.28 2.424.494 1.236-.136 3.119-.171 4.385-.021.775-.364 1.537-.426 2.314-.057.714.086 1.399-.183 2.071-.391.978-.209 3.105-.268 4.165-.08 1.449-.438 2.936-.438 4.385 0 .917-.439 1.809-.439 2.631"/><path d="m132.758 176.337c.584 3.65.71 7.332 1.096 10.998.322 3.057.302 5.785-.438 8.746-.195.779-.571 1.579-.829 2.35-.422 1.268-.257 2.662-.706 3.898-.861 2.367-1.053 4.888-1.328 7.357-.207 1.868-.645 3.828-.645 5.675 0 2.496-.725 4.949-.39 7.503.632 4.817.609 9.775.609 14.64"/><path d="m131.443 202.207c1.601 1.977 3.507 2.803 5.931 3.288 1.95.39 4.651.161 6.127-1.315"/><path d="m136.924 207.03v17.856 9.914c0 4.191-.322 8.515.012 12.692.397 4.958.646 9.906.646 14.896 0 1.058.245 3.575-.987 3.849-1.313.292-2.731.865-4.056.865"/><path d="m131.224 233.997c1.211 3.86.438 8.077.438 12.058 0 2.496.22 5.962-1.315 8.063-1.248 1.707-3.46 2.672-5.213 3.776-2.174 1.368-5.14 2.137-7.674 2.192-4.665.101-9.383.166-14.08.219-6.4408.073-12.8304.877-19.2926.877-7.2384 0-14.4526-.379-21.6559-.219-2.9362.065-5.8808 0-8.8182 0"/><path d="m132.32 255.482c-.708 3.384-1.316 6.832-1.316 10.304 0 3.321.22 6.644.22 9.988 0 3.366-.439 6.757-.439 10.133v7.503"/><path d="m135.608 267.978c0 2.472-.805 4.798-.877 7.235-.058 1.988-1.259 3.886-1.315 5.919-.093 3.366-1.315 6.732-1.315 10.085"/><path d="m131.881 293.41c0 2.744-.251 5.331-.45 8.027-.128 1.726-.407 3.501-.427 5.225-.02 1.819.22 3.605.22 5.408 0 1.551-.048 3.054.389 4.531.777 2.621 2.461 5.199 2.461 8.038 0 6.854.477 13.66-.207 20.499-.298 2.975-1.819 5.574-2.375 8.465-.545 2.835-1.66 5.55-2.193 8.429-1.516 8.186.127 16.627-.597 24.871-.266 3.042-.548 6.054-.548 9.111 0 2.341.266 5.025-.487 7.283-1.732 5.196-9.948 5.433-14.531 5.433-4.588 0-9.161 0-13.7019 0"/><path d="m105.792 409.826c0 1.557.11 4.574 1.535 5.652 1.108.838 2.784 1.251 4.068 1.754.846.331 1.49.809 2.277 1.242 1.678.923 6.937 4.999 8.124 1.437"/><path d="m119.385 408.949c-.245 1.807-.195 3.902 1.485 5.042.997.676 2.257 1.323 3.338 1.864 2.05 1.025 3.61.033 5.261-1.206"/><path d="m125.743 418.814c.208 0 1.882-.225 1.705.268-.161.447-.637.692-1.048.829"/><path d="m80.3604 406.756c1.1387 3.484.9623 7.219.3167 10.816-.5927 3.302-3.7134 2.158-6.2483 2.68-2.1971.452-4.1202-.075-6.2971-.122-1.7739-.039-3.5378-.158-5.3104-.219-1.195-.042-2.3347.219-3.5078.219"/><path d="m57.998 395.795c.848 2.278.5901 4.464 2.1924 6.467.1717.215 1.7238.329 2.0828.329 1.7062 0 3.4018-.219 5.1156-.219 3.1637 0 6.1915 1.43 9.342 1.705 1.5195.133 2.8958.389 4.3847.049.9115-.209 2.0879-.439 3.0207-.439h2.7161c1.2765 0 3.4003-.432 4.5918.11.5941.27 1.0677-.05 1.6443-.122 1.4038-.175 1.3974-.466 1.6321-1.9.9269-5.664 2.3747-11.226 2.9476-16.955.3136-3.136.0121-6.28.0121-9.427 0-16.701-.4193-33.375-1.2058-50.047-.3676-7.794-.9866-15.537-.9866-23.337 0-3.408.877-6.754.877-10.134"/><path d="m49.4478 237.285c.8943 2.218 1.8073 4.572 2.4116 6.894.7601 2.92.9573 5.846 1.4372 8.793.3891 2.391.9744 4.69.9744 7.113"/><path d="m54.2705 263.375c0 7.337-1.0962 14.623-1.0962 21.96 0 4.393-.3997 8.787-.5481 13.179-.2329 6.894.0367 13.843.1218 20.742.0513 4.157.8648 8.255.8648 12.387v5.968c0 3.988-.7118 7.959-.8648 11.936-.1023 2.661-.2314 5.317-.2314 7.978 0 2.247.4385 4.458.4385 6.699 0 1.531.2192 3.054.2192 4.604v2.631c0 .773.0626.871-.6577.439"/><path d="m23.5776 200.234c.5052 3.789-.3249 7.855.9866 11.498 1.2701 3.528 1.5682 7.409 2.0341 11.083.4629 3.652.0654 7.287 2.034 10.609 2.1648 3.653 5.2177 3.423 8.9766 3.423 2.5158 0 4.9574.335 7.4663-.329 4.2478-1.125 8.3558-2.811 11.8267-5.639 1.5513-1.264 2.9753-2.489 4.3848-3.898 1.4498-1.45 3.3662-2.261 5.1643-3.191 2.3846-1.234 4.2638-3.009 6.4553-4.47.8593-.573 1.6657-1.116 2.4604-1.766 1.2344-1.01 2.6673-1.696 3.8975-2.68 2.8606-2.288 6.1303-3.771 9.3177-5.542 1.5536-.863 2.8735-1.425 4.6649-1.425 2.0106 0 3.7441 1.754 5.8585 1.754 2.4547 0 4.9817-.577 7.0037-2.022 2.265-1.618 5.065-4.148 3.301-7.088-.657-1.094-1.467-2.009-2.193-3.058-.714-1.031-.779-1.479-1.912-1.814-1.697-.503-4.037.18-5.749.438-1.8406.278-3.6459.352-5.481.719-2.0006.4-3.9685.378-5.822-.548"/><path d="m87.814 185.983c-.0263 1.555-.0143 5.147-1.1449 6.528-.9225 1.128-2.2804 2.291-2.911 3.679-.5243 1.153-.5481 2.108-.5481 3.374 0 1.817-1.7982 1.783-3.2886 2.155-3.2026.801-5.8458 2.325-8.8669 3.654-5.7592 2.534-11.7433 4.79-17.6122 7.138-2.4891.995-4.9501 2.092-7.2714 3.398-1.2244.689-2.4489 1.653-3.7393 2.083"/><path d="m41.9937 202.207c1.2855.835 1.6413 2.132 2.4116 3.398.7356 1.208.5822 2.878 1.4128 3.946.9475 1.218.9648 3.296 1.4373 4.714"/><path d="m89.3493 209.003c0 1.706-.1127 6.63 2.6308 6.09 2.0456-.402 4.2974-.506 6.358-.609.7476-.037 1.5346.261 1.5346-.743 0-.846.3923-1.748.6573-2.545"/><path d="m87.3755 185.545c3.2464 0 6.5234-.219 9.7439-.219.9664 0 1.9701.219 2.9716.219.711 0 1.438.044 2.144-.049.4-.052 1.067-.327 1.474-.146 1.115.496.578 4.918.28 5.846-.423 1.315-.39 2.825-.39 4.215"/><path d="m44.8438 181.379c.1007 4.431 1.0762 8.496 1.8513 12.814.3808 2.121.7795 4.539.7795 6.699"/><path d="m86.7178 191.464c.2688 1.445.2621 3.134 1.0962 4.385"/><path d="m47.0357 201.769c-7.3562 0-14.6534-.658-22.0213-.658-2.6105 0-5.297-.658-8.0144-.658"/><path d="m17 200.453c.6733-3.704 1.3154-7.303 1.3154-11.06 0-2.195-.2133-4.267-.0121-6.479.3314-3.647.8963-6.909 2.0827-10.402 1.4034-4.132 3.6087-8.263 6.0413-11.912 2.448-3.672 5.5399-7.562 9.3298-9.914 3.638-2.259 7.3731-4.538 11.4978-5.798 2.9288-.895 5.8151-1.883 8.7696-2.704 1.2844-.357 2.6424-.443 3.9584-.706.7347-.147 1.6665-.439 2.3995-.439"/></g></svg>