<?xml version="1.0" standalone="no"?>
<!DOCTYPE svg PUBLIC "-//W3C//DTD SVG 20010904//EN"
 "http://www.w3.org/TR/2001/REC-SVG-20010904/DTD/svg10.dtd">
<svg version="1.0" xmlns="http://www.w3.org/2000/svg"
 width="600.000000pt" height="300.000000pt" viewBox="0 0 300.000000 225.000000"
 preserveAspectRatio="xMidYMid meet">
<metadata>
Created by potrace 1.10, written by Peter Selinger 2001-2011
</metadata>
<g transform="translate(0.000000,225.000000) scale(0.100000,-0.100000)"
fill="#f6d535" stroke-width="40">
<path d="M1135 1964 c-30 -16 -87 -71 -137 -133 -16 -19 -28 -30 -28 -25 0 5
-9 -4 -19 -21 -10 -16 -27 -39 -37 -50 -33 -35 -51 -68 -74 -142 -13 -40 -26
-70 -30 -68 -21 13 -35 -222 -16 -267 4 -9 22 -19 39 -22 67 -14 100 -62 100
-150 1 -53 -3 -67 -32 -107 -18 -26 -43 -52 -55 -59 -43 -22 -48 -44 -31 -128
34 -165 59 -229 118 -299 27 -33 33 -48 31 -77 -2 -20 1 -36 5 -36 5 0 11 -11
15 -23 10 -42 45 -77 76 -77 26 0 91 42 89 58 -1 4 -1 28 0 53 l1 46 83 17
c84 19 140 36 134 42 -2 2 -48 -7 -101 -21 -54 -14 -109 -25 -121 -25 -21 0
-22 -2 -13 -37 12 -46 -1 -85 -36 -108 -52 -34 -106 21 -106 108 0 42 -4 51
-34 78 -45 39 -89 144 -116 279 l-21 105 23 15 c71 46 108 114 108 199 0 102
-34 154 -111 170 l-31 6 -3 100 c-3 82 0 106 15 135 10 19 28 65 40 102 17 53
36 85 92 150 172 202 200 219 302 193 80 -21 96 -31 96 -62 0 -91 139 -163
188 -97 l19 27 87 -51 c160 -95 296 -209 296 -250 0 -9 -16 -40 -36 -68 -34
-50 -35 -53 -21 -86 29 -67 97 -118 159 -118 31 0 40 5 52 28 26 51 43 58 73
31 43 -40 83 -110 83 -146 0 -70 -51 -132 -212 -262 l-78 -62 0 -82 c0 -96
-14 -131 -53 -135 -55 -7 -69 35 -41 126 6 20 -2 17 -62 -24 -38 -26 -71 -49
-73 -51 -2 -2 4 -39 14 -82 21 -94 16 -145 -20 -180 -35 -36 -99 -36 -127 -1
-18 22 -20 35 -15 106 l5 81 -49 -20 c-27 -12 -47 -22 -45 -24 2 -3 20 2 39
11 l35 14 -1 -72 c-2 -89 13 -123 59 -132 49 -9 91 4 119 38 22 26 25 38 24
106 0 42 -4 85 -8 96 -15 39 -1 72 41 95 l40 21 -6 -35 c-5 -25 -2 -44 9 -63
15 -24 22 -27 56 -24 57 6 71 32 73 135 2 60 6 81 15 79 7 -1 10 2 7 7 -4 5
15 27 41 48 76 62 81 66 134 117 71 68 89 101 89 163 0 52 -16 103 -32 103 -4
0 -8 9 -8 20 0 11 -3 19 -8 17 -4 -1 -17 8 -30 21 -31 31 -67 29 -88 -7 -10
-17 -22 -27 -27 -24 -6 3 -7 1 -3 -6 4 -6 1 -13 -6 -16 -20 -8 -73 11 -70 24
1 7 -5 11 -15 9 -20 -4 -60 39 -55 60 2 8 -1 11 -7 8 -5 -4 -12 3 -16 14 -4
13 2 31 19 52 43 58 49 84 26 129 -11 21 -25 39 -31 39 -6 0 -8 4 -5 8 3 4
-11 16 -30 27 -19 10 -34 24 -34 32 0 8 -4 11 -10 8 -5 -3 -10 1 -10 10 0 9
-5 13 -11 9 -6 -3 -14 -3 -18 2 -9 13 -140 98 -188 123 l-42 21 -29 -25 c-36
-30 -66 -32 -108 -6 -29 18 -39 35 -60 106 -8 25 -19 33 -74 52 -76 27 -114
28 -155 7z"/>
<path d="M997 1778 c-78 -92 -146 -202 -133 -215 3 -3 19 23 35 58 17 35 56
91 87 124 l56 60 -6 -40 c-8 -56 -17 -152 -12 -140 8 21 26 91 30 120 6 36 21
94 31 118 4 9 5 17 3 17 -2 0 -43 -46 -91 -102z"/>
<path d="M1570 1760 c0 -5 5 -10 10 -10 6 0 10 5 10 10 0 6 -4 10 -10 10 -5 0
-10 -4 -10 -10z"/>
<path d="M1388 1735 c-6 -7 14 -91 32 -130 16 -37 23 -105 10 -105 -7 0 -10
-8 -7 -20 4 -17 0 -20 -28 -20 -25 0 -39 7 -55 27 -12 16 -17 29 -11 31 12 4
15 139 5 166 -13 35 -19 12 -21 -83 -2 -87 0 -102 18 -125 12 -15 30 -26 45
-26 26 0 32 -18 12 -38 -7 -7 -8 -12 -2 -12 15 0 49 50 63 91 9 30 8 44 -9 95
-11 32 -20 73 -20 90 0 32 -21 70 -32 59z"/>
<path d="M1720 1686 c0 -3 20 -19 45 -37 24 -17 42 -36 38 -42 -3 -6 -1 -7 6
-3 7 5 27 -7 51 -30 39 -38 39 -38 20 -59 -27 -29 -50 -155 -28 -155 5 0 7 9
3 19 -3 11 -1 22 5 26 5 3 10 18 10 33 0 30 25 72 42 72 6 0 3 -11 -6 -25 -9
-13 -16 -28 -16 -32 0 -10 40 49 40 59 0 11 -92 95 -153 138 -31 23 -57 39
-57 36z"/>
<path d="M1180 1620 c-8 -5 -10 -10 -5 -10 6 0 17 5 25 10 8 5 11 10 5 10 -5
0 -17 -5 -25 -10z"/>
<path d="M1054 1608 c-5 -8 0 -9 16 -5 19 5 32 -2 62 -34 38 -39 47 -59 28
-59 -5 0 -7 -6 -4 -14 3 -8 -3 -23 -13 -33 -23 -23 -36 -53 -24 -53 5 0 20 9
35 21 22 17 26 28 26 74 0 48 -3 56 -35 84 -36 31 -78 40 -91 19z"/>
<path d="M1219 1593 c-13 -15 -12 -15 11 -3 34 17 36 20 18 20 -9 0 -22 -7
-29 -17z"/>
<path d="M927 1593 c-11 -10 -8 -63 3 -63 6 0 10 16 10 35 0 36 -2 40 -13 28z"/>
<path d="M1580 1580 c-40 -40 -38 -100 7 -158 35 -46 42 -31 9 17 -39 57 -28
121 24 140 34 11 73 4 63 -13 -3 -6 -3 -8 2 -4 4 4 13 2 19 -5 16 -17 47 -67
42 -67 -3 0 -1 -13 4 -30 7 -25 4 -34 -20 -60 -16 -17 -22 -30 -15 -30 21 0
55 50 55 79 -1 44 -36 109 -72 131 -42 26 -92 26 -118 0z"/>
<path d="M1360 1530 c0 -5 7 -10 16 -10 8 0 12 5 9 10 -3 6 -10 10 -16 10 -5
0 -9 -4 -9 -10z"/>
<path d="M899 1525 c-4 -3 -5 -26 -2 -51 5 -55 -11 -86 -40 -82 -25 3 -35 37
-15 49 10 7 9 9 -5 9 -23 0 -31 -23 -17 -49 11 -22 63 -30 75 -11 4 6 10 8 14
6 4 -3 13 0 21 6 12 8 11 9 -4 4 -16 -5 -18 -2 -13 26 7 36 -4 104 -14 93z"/>
<path d="M983 1518 c-6 -7 -8 -26 -6 -42 2 -15 -3 -39 -12 -52 -16 -24 -8 -33
12 -13 19 19 33 -23 38 -113 10 -191 18 -274 26 -284 5 -6 10 -27 11 -47 2
-20 6 -37 10 -37 3 0 4 -8 2 -17 -3 -10 2 -27 10 -38 13 -18 13 -15 5 28 -5
27 -11 77 -13 110 -3 34 -9 103 -15 152 -19 169 -21 225 -8 226 6 0 2 4 -11 9
-27 11 -45 54 -40 98 4 36 4 37 -9 20z"/>
<path d="M841 1502 c-17 -31 -13 -40 5 -14 9 13 14 26 11 29 -3 2 -10 -4 -16
-15z"/>
<path d="M933 1485 c0 -22 2 -30 4 -17 2 12 2 30 0 40 -3 9 -5 -1 -4 -23z"/>
<path d="M1020 1491 c0 -12 5 -21 10 -21 6 0 10 6 10 14 0 8 -4 18 -10 21 -5
3 -10 -3 -10 -14z"/>
<path d="M1676 1458 c3 -5 10 -6 15 -3 13 9 11 12 -6 12 -8 0 -12 -4 -9 -9z"/>
<path d="M1802 1440 c0 -14 2 -19 5 -12 2 6 2 18 0 25 -3 6 -5 1 -5 -13z"/>
<path d="M1202 1434 c-7 -8 -8 -14 -3 -14 10 0 25 19 20 25 -2 1 -10 -3 -17
-11z"/>
<path d="M1635 1440 c3 -5 8 -10 11 -10 2 0 4 5 4 10 0 6 -5 10 -11 10 -5 0
-7 -4 -4 -10z"/>
<path d="M1155 1400 c-16 -17 -16 -20 -3 -15 9 4 19 13 22 21 7 19 2 18 -19
-6z"/>
<path d="M1761 1374 c-12 -14 -20 -28 -18 -30 3 -3 14 6 25 20 10 14 23 22 27
18 5 -4 5 -1 1 6 -9 16 -9 16 -35 -14z"/>
<path d="M1911 1384 c0 -11 3 -14 6 -6 3 7 2 16 -1 19 -3 4 -6 -2 -5 -13z"/>
<path d="M879 1368 c-1 -2 -3 -13 -4 -25 -2 -19 1 -21 17 -12 15 8 17 13 7 25
-11 13 -17 17 -20 12z m16 -18 c3 -5 1 -10 -4 -10 -6 0 -11 5 -11 10 0 6 2 10
4 10 3 0 8 -4 11 -10z"/>
<path d="M830 1349 c0 -5 5 -7 10 -4 6 3 10 8 10 11 0 2 -4 4 -10 4 -5 0 -10
-5 -10 -11z"/>
<path d="M1860 1335 c0 -8 4 -15 10 -15 5 0 7 7 4 15 -4 8 -8 15 -10 15 -2 0
-4 -7 -4 -15z"/>
<path d="M827 1323 c-6 -14 -2 -33 8 -34 5 0 11 4 13 10 2 6 -1 11 -8 11 -6 0
-8 5 -5 10 3 6 4 10 1 10 -3 0 -7 -3 -9 -7z"/>
<path d="M967 1301 c-4 -17 -3 -21 5 -13 5 5 8 16 6 23 -3 8 -7 3 -11 -10z"/>
<path d="M865 1291 c1 -9 11 -21 22 -26 54 -28 73 -74 74 -179 1 -75 -16 -116
-73 -181 -40 -45 -40 -47 -34 -103 4 -31 15 -84 25 -117 l19 -60 1 41 c1 22
-2 44 -6 48 -4 3 -8 21 -9 39 -2 17 -7 33 -12 35 -14 4 2 68 22 88 9 9 23 13
32 10 8 -3 12 -2 9 4 -3 5 5 31 17 57 18 37 23 65 22 123 0 76 -7 151 -12 145
-6 -5 -81 78 -77 85 2 4 -2 7 -9 7 -8 0 -13 -7 -11 -16z"/>
<path d="M1880 1301 c0 -5 7 -12 16 -15 14 -5 15 -4 4 9 -14 17 -20 19 -20 6z"/>
<path d="M2123 1288 c-20 -26 -26 -41 -15 -34 12 7 36 46 29 46 -3 0 -9 -6
-14 -12z"/>
<path d="M2157 1266 c-4 -10 -1 -16 6 -16 8 0 24 -18 36 -40 33 -59 23 -106
-37 -168 -64 -65 -121 -111 -159 -128 -18 -8 -33 -19 -33 -25 0 -5 -9 -19 -19
-30 -17 -18 -28 -80 -32 -181 0 -23 -18 -33 -32 -19 -15 15 -27 14 -27 -4 0
-19 34 -37 54 -29 23 9 31 48 29 136 l-2 76 88 66 c112 83 188 165 197 212 8
43 -8 99 -40 137 -19 24 -24 26 -29 13z"/>
<path d="M962 1250 c0 -14 2 -19 5 -12 2 6 2 18 0 25 -3 6 -5 1 -5 -13z"/>
<path d="M1920 1260 c0 -5 5 -10 11 -10 5 0 7 5 4 10 -3 6 -8 10 -11 10 -2 0
-4 -4 -4 -10z"/>
<path d="M1410 1235 c-19 -23 -3 -31 19 -10 19 16 23 16 67 1 63 -21 113 -61
132 -105 17 -39 26 -113 18 -147 -9 -35 -54 -74 -103 -91 -51 -18 -43 -29 12
-19 23 5 46 20 70 48 32 38 35 47 35 105 0 87 -29 146 -89 184 -73 47 -139 61
-161 34z"/>
<path d="M1950 1241 c0 -5 8 -12 18 -16 27 -12 102 -23 107 -16 2 4 -10 8 -27
9 -16 1 -45 9 -64 17 -19 8 -34 10 -34 6z"/>
<path d="M1331 1185 c-56 -64 -40 -190 30 -250 l24 -20 -22 25 c-39 44 -56 98
-48 155 6 51 36 111 48 98 4 -3 7 1 7 10 0 24 -4 22 -39 -18z"/>
<path d="M1800 1197 c0 -16 50 -90 57 -84 8 8 -35 97 -46 97 -6 0 -11 -6 -11
-13z"/>
<path d="M1728 1115 c-3 -14 -1 -25 3 -25 8 0 11 8 8 26 0 4 5 11 13 15 10 7
9 9 -3 9 -10 0 -19 -10 -21 -25z"/>
<path d="M1766 1114 c-23 -60 14 -127 75 -136 34 -5 50 13 48 59 -1 28 -1 28
-10 -5 -6 -18 -17 -36 -25 -39 -19 -7 -61 14 -69 35 -8 21 0 25 24 13 17 -9
20 -9 15 3 -3 8 -15 16 -26 19 -16 5 -20 12 -16 36 5 33 -6 42 -16 15z"/>
<path d="M1750 1013 c0 -6 8 -17 18 -24 16 -13 16 -13 2 6 -8 11 -16 22 -17
24 -2 2 -3 0 -3 -6z"/>
<path d="M1703 995 c0 -8 4 -12 9 -9 5 3 6 10 3 15 -9 13 -12 11 -12 -6z"/>
<path d="M1000 951 c0 -6 4 -13 10 -16 6 -3 7 1 4 9 -7 18 -14 21 -14 7z"/>
<path d="M1843 945 c-17 -19 -16 -26 1 -19 15 6 30 34 18 34 -4 -1 -13 -7 -19
-15z"/>
<path d="M971 901 c-18 -33 -30 -112 -23 -150 6 -31 8 -27 13 34 7 77 11 94
23 113 4 7 6 16 3 19 -3 2 -10 -5 -16 -16z"/>
<path d="M1027 879 c4 -13 8 -18 11 -10 2 7 -1 18 -6 23 -8 8 -9 4 -5 -13z"/>
<path d="M990 815 c-10 -27 -10 -129 0 -118 3 2 6 24 6 48 1 23 5 48 9 54 11
19 37 -9 32 -36 -2 -12 0 -20 4 -17 12 7 11 -13 -2 -39 -10 -21 -10 -21 6 -2
20 25 10 82 -21 114 l-23 25 -11 -29z"/>
<path d="M1051 820 c14 -31 19 -36 19 -24 0 6 -7 19 -16 30 -14 18 -14 18 -3
-6z"/>
<path d="M1855 820 c10 -11 20 -20 23 -20 3 0 -3 9 -13 20 -10 11 -20 20 -23
20 -3 0 3 -9 13 -20z"/>
<path d="M1765 790 c-3 -5 -2 -10 4 -10 5 0 13 5 16 10 3 6 2 10 -4 10 -5 0
-13 -4 -16 -10z"/>
<path d="M1835 790 c3 -5 -9 -17 -27 -26 -18 -9 -36 -22 -40 -28 -6 -8 -11 -7
-17 2 -6 10 -11 5 -20 -19 -6 -18 -9 -34 -7 -36 2 -2 35 18 74 45 54 37 68 52
60 60 -14 14 -32 16 -23 2z"/>
<path d="M1586 735 c25 -19 40 -19 24 0 -7 8 -20 15 -28 15 -13 0 -12 -3 4
-15z"/>
<path d="M1052 690 c-8 -13 -8 -20 -2 -20 6 0 13 7 17 15 9 24 -1 27 -15 5z"/>
<path d="M1583 670 l2 -42 -85 -35 c-114 -46 -192 -71 -310 -98 -65 -15 -96
-13 -86 4 3 5 -3 11 -14 14 -20 5 -20 5 0 -24 23 -31 17 -30 140 -7 30 6 111
31 180 55 69 25 139 50 157 56 43 15 60 81 28 107 -13 11 -14 6 -12 -30z"/>
<path d="M1690 694 c0 -5 7 -40 15 -79 8 -38 14 -95 14 -125 -1 -46 -5 -58
-27 -74 -23 -18 -28 -18 -51 -5 -25 15 -26 18 -24 105 2 101 -14 86 -24 -22
-5 -54 -3 -64 16 -83 29 -29 76 -27 106 4 31 31 33 97 6 203 -18 66 -31 101
-31 76z"/>
<path d="M939 645 c-3 -6 -6 -27 -8 -47 -2 -29 2 -40 22 -53 31 -20 44 -53 51
-128 6 -70 27 -107 61 -107 31 0 55 35 55 80 0 29 -19 84 -20 56 0 -5 -8 -2
-17 5 -16 12 -17 12 -7 -1 25 -34 33 -77 18 -99 -34 -48 -64 -17 -69 71 -4 63
-12 86 -49 141 -10 15 -22 42 -25 60 -4 17 -9 27 -12 22z"/>
<path d="M946 515 c9 -14 21 -25 27 -25 6 0 0 11 -13 25 -13 14 -25 25 -27 25
-2 0 4 -11 13 -25z"/>
<path d="M1420 523 c-25 -9 -40 -18 -34 -20 6 -2 31 5 55 16 53 24 41 26 -21
4z"/>
</g>
</svg>
