<svg fill="none" height="98" viewBox="0 0 136 98" width="136" xmlns="http://www.w3.org/2000/svg" xmlns:xlink="http://www.w3.org/1999/xlink"><filter id="a" color-interpolation-filters="sRGB" filterUnits="userSpaceOnUse" height="97.2109" width="136" x="0" y="0"><feFlood flood-opacity="0" result="BackgroundImageFix"/><feColorMatrix in="SourceAlpha" result="hardAlpha" type="matrix" values="0 0 0 0 0 0 0 0 0 0 0 0 0 0 0 0 0 0 127 0"/><feOffset/><feGaussianBlur stdDeviation="20"/><feColorMatrix type="matrix" values="0 0 0 0 1 0 0 0 0 0.290196 0 0 0 0 0.662745 0 0 0 1 0"/><feBlend in2="BackgroundImageFix" mode="normal" result="effect1_dropShadow_348:33805"/><feColorMatrix in="SourceAlpha" result="hardAlpha" type="matrix" values="0 0 0 0 0 0 0 0 0 0 0 0 0 0 0 0 0 0 127 0"/><feOffset dy="4"/><feGaussianBlur stdDeviation="10"/><feColorMatrix type="matrix" values="0 0 0 0 1 0 0 0 0 0.290196 0 0 0 0 0.662745 0 0 0 1 0"/><feBlend in2="effect1_dropShadow_348:33805" mode="normal" result="effect2_dropShadow_348:33805"/><feBlend in="SourceGraphic" in2="effect2_dropShadow_348:33805" mode="normal" result="shape"/></filter><g clip-rule="evenodd" fill="#e5e1f9" fill-rule="evenodd" filter="url(#a)"><path d="m74.055 44.457h-2.4447v1.4166h2.4447zm9.1515 1.4166h-6.86v-1.4166h6.86zm11.769 0h-9.1056v-1.4166h10.0743zm-27.825 0c-.6468-.6694-1.4568-1.1537-2.3989-1.4166h-3.449c-.9422.2629-1.7521.7472-2.3989 1.4166z"/><path d="m74.055 48.7068h-2.4447v1.4166h2.4447zm6.5759 1.4166h-2.4448v-1.4166h2.4448zm11.8462 0h-2.7717l1.115-1.4166h2.7422zm-23.6149 0c-.0318-.4973-.1029-.9705-.211-1.4166h-2.5325c.1414.4379.2311.9156.2703 1.4166zm-9.1971 0c.0393-.501.1291-.9787.2708-1.4166h-2.533c-.108.4461-.1792.9193-.211 1.4166z"/><path d="m74.0551 52.9563h-2.4447v1.4166h2.4447zm6.5759 1.4166h-2.4448v-.601-.8156h2.4448v.3087zm8.5897 0h-2.8603l1.1151-1.4166h2.8307zm-21.1942 0c.2374-.4314.4286-.9052.5694-1.4166h-2.5536c-.2114.5614-.5146 1.0462-.913 1.4166zm-7.0976 0c-.4002-.3704-.7044-.8552-.9163-1.4166h-2.5542c.1408.5114.332.9852.5694 1.4166z"/><path d="m70.9036 40.2073h2.4447v4.2498h-2.4447v1.4165h2.4447v2.8331h-2.4447v1.4166h2.4447v2.833h-2.4446v1.4166h2.4446v2.5797h-2.4447zm-3.5839 14.1656c-.9772 1.7759-2.7381 2.8331-4.9993 2.8331-3.5404 0-5.8543-2.5919-5.8543-6.4757 0-3.9083 2.3139-6.5002 5.8543-6.5002 2.8862 0 4.9573 1.7226 5.6242 4.4766h-2.5326c.1415.4379.2311.9157.2704 1.4166h2.4732c.0127.1986.0191.401.0191.607 0 .8007-.0984 1.5465-.2855 2.226h-2.5536c-.2113.5614-.5146 1.0463-.9129 1.4166zm-7.0976 0c.5306.4911 1.23.7809 2.1065.7809 2.2975 0 3.3768-2.0196 3.3768-4.4317 0-2.4038-1.0793-4.4479-3.3768-4.4479-1.6219 0-2.6372 1.0041-3.0994 2.4325h-2.5329c-.1081.4461-.1792.9193-.2111 1.4166h2.4732c-.0154.1964-.0231.3963-.0231.5988 0 .8095.1216 1.5747.3705 2.2342h-2.5541c.1408.5114.332.9852.5694 1.4166zm22.2777-9.9793h-2.5756v-3.0089h-2.4447v3.0089h-1.8397v1.9623h1.8397v7.4161 3.3441h3.663 1.7461v-2.1749h-1.4599-1.5045v-.5683h-2.4447v-.601-.8156h2.4447v-2.833h-2.4447v-1.4166h2.4447v-2.3508h2.5756v-.4823h-6.86v-1.4165h6.86zm12.5242 12.559h-10.0815v-1.6762l.7113-.9035h2.8602l-.2601.3393v.1145h6.7701zm-5.4245-3.9963 2.1709-2.833h-2.7717l-2.2299 2.833zm5.1956-6.7802-1.9392 2.5306h-2.7421l1.6315-2.0728v-.1144h-6.5821v-2.1259h9.6319 1.2049l-.0429.0635h-10.7938v1.4165h9.8362zm-30.7502-1.719c.9422.2628 1.7521.7471 2.3989 1.4165h-8.2468c.6468-.6694 1.4568-1.1537 2.3989-1.4165z"/><path d="m73.3484 44.457h-2.4448v1.4166h2.4448zm9.1514 1.4166h-6.86v-1.4166h6.86zm12.4998 0h-9.8363v-1.4166h10.7939zm-28.5558 0c-.6468-.6694-1.4567-1.1537-2.3989-1.4166h-3.449c-.9421.2629-1.7521.7472-2.3989 1.4166z"/><path d="m73.3484 48.7068h-2.4448v1.4166h2.4448zm6.5758 1.4166h-2.4447v-1.4166h2.4447zm11.8462 0h-2.7717l1.1151-1.4166h2.7421zm-23.6148 0c-.0318-.4973-.103-.9705-.211-1.4166h-2.5326c.1414.4379.2311.9156.2704 1.4166zm-9.1972 0c.0394-.501.1291-.9787.2708-1.4166h-2.533c-.108.4461-.1791.9193-.211 1.4166z"/><path d="m73.3483 52.9563h-2.4447v1.4166h2.4447zm6.5759 1.4166h-2.4447v-.601-.8156h2.4447v.3087zm8.5897 0h-2.8602l1.115-1.4166h2.8307zm-21.1942 0c.2374-.4314.4286-.9052.5695-1.4166h-2.5537c-.2113.5614-.5146 1.0462-.9129 1.4166zm-7.0976 0c-.4002-.3704-.7044-.8552-.9163-1.4166h-2.5542c.1408.5114.332.9852.5694 1.4166z"/><path d="m70.1969 40.2073h2.4448v4.2498h-2.4447v1.4165h2.4447v2.8331h-2.4447v1.4166h2.4447v2.833h-2.4447v1.4166h2.4447v2.5797h-2.4448zm-3.5838 14.1656c-.9773 1.7759-2.7382 2.8331-4.9994 2.8331-3.5404 0-5.8543-2.5919-5.8543-6.4757 0-3.9083 2.3139-6.5002 5.8543-6.5002 2.8862 0 4.9574 1.7226 5.6242 4.4766h-2.5325c.1414.4379.2311.9157.2703 1.4166h2.4732c.0127.1986.0191.401.0191.607 0 .8007-.0983 1.5465-.2855 2.226h-2.5535c-.2114.5614-.5146 1.0463-.913 1.4166zm-7.0977 0c.5307.4911 1.23.7809 2.1065.7809 2.2976 0 3.3769-2.0196 3.3769-4.4317 0-2.4038-1.0793-4.4479-3.3769-4.4479-1.6218 0-2.6371 1.0041-3.0994 2.4325h-2.5329c-.108.4461-.1792.9193-.211 1.4166h2.4731c-.0154.1964-.023.3963-.023.5988 0 .8095.1215 1.5747.3705 2.2342h-2.5542c.1409.5114.3321.9852.5695 1.4166zm22.2777-9.9793h-2.5756v-3.0089h-2.4447v3.0089h-1.8397v1.9623h1.8397v7.4161 3.3441h3.663 1.7461v-2.1749h-1.4599-1.5045v-.5683h-2.4446v-.601-.8156h2.4446v-2.833h-2.4447v-1.4166h2.4447v-2.3508h2.5756v-.4823h-6.8599v-1.4165h6.8599zm12.5242 12.559h-10.0815v-1.6762l6.8028-8.6425v-.1144h-6.582v-2.1259h9.6318 1.2049l-.0429.0635h-10.7938v1.4165h9.8363l-.2045.3025-1.9392 2.5306h-2.7421l-1.115 1.4166h2.7716l-2.1709 2.833h-2.8307l-1.115 1.4166h2.8602l-.26.3393v.1145h6.77zm-30.979-12.4955c.9421.2628 1.7521.7471 2.3989 1.4165h-8.2468c.6468-.6694 1.4567-1.1537 2.3989-1.4165z"/><path d="m74.055 44.457h-2.4447v1.4166h2.4447zm9.1515 1.4166h-6.86v-1.4166h6.86zm11.8702 0h-9.2068v-1.4166h10.0786zm-27.9262 0c-.6468-.6694-1.4568-1.1537-2.3989-1.4166h-3.449c-.9422.2629-1.7521.7472-2.3989 1.4166z"/><path d="m74.055 48.7068h-2.4447v1.4166h2.4447zm6.5759 1.4166h-2.4448v-1.4166h2.4448zm11.8462 0h-2.7717l1.115-1.4166h2.7422zm-23.6149 0c-.0318-.4973-.1029-.9705-.211-1.4166h-2.5325c.1414.4379.2311.9156.2703 1.4166zm-9.1971 0c.0393-.501.1291-.9787.2708-1.4166h-2.533c-.108.4461-.1792.9193-.211 1.4166z"/><path d="m74.0551 52.9563h-2.4447v1.4166h2.4447zm6.5759 1.4166h-2.4448v-.601-.8156h2.4448v.3087zm8.5897 0h-2.8603l1.1151-1.4166h2.8307zm-21.1942 0c.2374-.4314.4286-.9052.5694-1.4166h-2.5536c-.2114.5614-.5146 1.0462-.913 1.4166zm-7.0976 0c-.4002-.3704-.7044-.8552-.9163-1.4166h-2.5542c.1408.5114.332.9852.5694 1.4166z"/><path d="m70.9036 40.2073h2.4447v4.2498h-2.4447v1.4165h2.4447v2.8331h-2.4447v1.4166h2.4447v2.833h-2.4446v1.4166h2.4446v2.5797h-2.4447zm-3.5839 14.1656c-.9772 1.7759-2.7381 2.8331-4.9993 2.8331-3.5404 0-5.8543-2.5919-5.8543-6.4757 0-3.9083 2.3139-6.5002 5.8543-6.5002 2.8862 0 4.9573 1.7226 5.6242 4.4766h-2.5326c.1415.4379.2311.9157.2704 1.4166h2.4732c.0127.1986.0191.401.0191.607 0 .8007-.0984 1.5465-.2855 2.226h-2.5536c-.2113.5614-.5146 1.0463-.9129 1.4166zm-7.0976 0c.5306.4911 1.23.7809 2.1065.7809 2.2975 0 3.3768-2.0196 3.3768-4.4317 0-2.4038-1.0793-4.4479-3.3768-4.4479-1.6219 0-2.6372 1.0041-3.0994 2.4325h-2.5329c-.1081.4461-.1792.9193-.2111 1.4166h2.4732c-.0154.1964-.0231.3963-.0231.5988 0 .8095.1216 1.5747.3705 2.2342h-2.5541c.1408.5114.332.9852.5694 1.4166zm22.2777-9.9793h-2.5756v-3.0089h-2.4447v3.0089h-1.8397v1.9623h1.8397v7.4161 3.3441h3.663 1.7461v-2.1749h-1.4599-1.5045v-.5683h-2.4447v-.601-.8156h2.4447v-2.833h-2.4447v-1.4166h2.4447v-2.3508h2.5756v-.4823h-6.86v-1.4165h6.86zm12.5242 12.559h-10.0815v-1.6762l.7113-.9035h2.8602l-.2601.3393v.1145h6.7701zm-5.4245-3.9963 2.1709-2.833h-2.7717l-2.2299 2.833zm5.1956-6.7802-1.9392 2.5306h-2.7421l1.6315-2.0728v-.1144h-6.5821v-2.1259h9.6319 1.2049l-.0429.0635h-10.7938v1.4165h9.8362zm-30.7502-1.719c.9422.2628 1.7521.7471 2.3989 1.4165h-8.2468c.6468-.6694 1.4568-1.1537 2.3989-1.4165z"/><path d="m73.3484 44.457h-2.4448v1.4166h2.4448zm9.1514 1.4166h-6.86v-1.4166h6.86zm12.4998 0h-9.8363v-1.4166h10.7939zm-28.5558 0c-.6468-.6694-1.4567-1.1537-2.3989-1.4166h-3.449c-.9421.2629-1.7521.7472-2.3989 1.4166z"/><path d="m73.3484 48.7068h-2.4448v1.4166h2.4448zm6.5758 1.4166h-2.4447v-1.4166h2.4447zm11.8462 0h-2.7717l1.1151-1.4166h2.7421zm-23.6148 0c-.0318-.4973-.103-.9705-.211-1.4166h-2.5326c.1414.4379.2311.9156.2704 1.4166zm-9.1972 0c.0394-.501.1291-.9787.2708-1.4166h-2.533c-.108.4461-.1791.9193-.211 1.4166z"/><path d="m73.3483 52.9563h-2.4447v1.4166h2.4447zm6.5759 1.4166h-2.4447v-.601-.8156h2.4447v.3087zm8.5897 0h-2.8602l1.115-1.4166h2.8307zm-21.1942 0c.2374-.4314.4286-.9052.5695-1.4166h-2.5537c-.2113.5614-.5146 1.0462-.9129 1.4166zm-7.0976 0c-.4002-.3704-.7044-.8552-.9163-1.4166h-2.5542c.1408.5114.332.9852.5694 1.4166z"/><path d="m70.1969 40.2073h2.4448v4.2498h-2.4447v1.4165h2.4447v2.8331h-2.4447v1.4166h2.4447v2.833h-2.4447v1.4166h2.4447v2.5797h-2.4448zm-3.5838 14.1656c-.9773 1.7759-2.7382 2.8331-4.9994 2.8331-3.5404 0-5.8543-2.5919-5.8543-6.4757 0-3.9083 2.3139-6.5002 5.8543-6.5002 2.8862 0 4.9574 1.7226 5.6242 4.4766h-2.5325c.1414.4379.2311.9157.2703 1.4166h2.4732c.0127.1986.0191.401.0191.607 0 .8007-.0983 1.5465-.2855 2.226h-2.5535c-.2114.5614-.5146 1.0463-.913 1.4166zm-7.0977 0c.5307.4911 1.23.7809 2.1065.7809 2.2976 0 3.3769-2.0196 3.3769-4.4317 0-2.4038-1.0793-4.4479-3.3769-4.4479-1.6218 0-2.6371 1.0041-3.0994 2.4325h-2.5329c-.108.4461-.1792.9193-.211 1.4166h2.4731c-.0154.1964-.023.3963-.023.5988 0 .8095.1215 1.5747.3705 2.2342h-2.5542c.1409.5114.3321.9852.5695 1.4166zm22.2777-9.9793h-2.5756v-3.0089h-2.4447v3.0089h-1.8397v1.9623h1.8397v7.4161 3.3441h3.663 1.7461v-2.1749h-1.4599-1.5045v-.5683h-2.4446v-.601-.8156h2.4446v-2.833h-2.4447v-1.4166h2.4447v-2.3508h2.5756v-.4823h-6.8599v-1.4165h6.8599zm12.5242 12.559h-10.0815v-1.6762l6.8028-8.6425v-.1144h-6.582v-2.1259h9.6318 1.2049l-.0429.0635h-10.7938v1.4165h9.8363l-.2045.3025-1.9392 2.5306h-2.7421l-1.115 1.4166h2.7716l-2.1709 2.833h-2.8307l-1.115 1.4166h2.8602l-.26.3393v.1145h6.77zm-30.979-12.4955c.9421.2628 1.7521.7471 2.3989 1.4165h-8.2468c.6468-.6694 1.4567-1.1537 2.3989-1.4165z"/><path d="m45.0549 44.3027h-2.7213l.5147 1.4343h2.6954zm6.3252 1.4343h2.6953l.5147-1.4343h-2.7212z"/><path d="m46.5211 48.6055h-2.6434l.5147 1.4342h2.6175zm3.3927 1.4342h2.6175l.5147-1.4342h-2.6435z"/><path d="m47.9875 52.9082h-2.5656l.5147 1.4343h5.0506l.5147-1.4343h-2.5656l-.378 1.1093h-.1928z"/><path d="m40.2441 40h2.7991l1.4663 4.3027h-2.7212l.5147 1.4343h2.6953l.9775 2.8685h-2.6434zm3.603 10.0397h2.6175l.9775 2.8685h-2.4028l.5147 1.4343h4.8878l-1.0294 2.8685h-2.9918zm7.1095 2.8685 1.0294-2.8685h-2.6175l.4887-1.4342h2.6435l1.0294-2.8685h-2.6953l.4887-1.4343h2.7213l1.5441-4.3027h-2.7991l-4.7769 14.0175h.1628l.378-1.1093z"/><path d="m44.8106 44.3027h-2.7212l.5147 1.4343h2.6953zm6.3252 1.4343h2.6954l.5147-1.4343h-2.7213z"/><path d="m46.277 48.6055h-2.6435l.5147 1.4342h2.6176zm3.3926 1.4342h2.6175l.5147-1.4342h-2.6434z"/><path d="m47.7432 52.9082h-2.5656l.5147 1.4343h5.0507l.5147-1.4343h-2.5656l-.3781 1.1093h-.1927z"/><path d="m40 40h2.7991l1.4663 4.3027h-2.7213zm2.0588 5.737 1.0294 2.8685h2.6435l-.9775-2.8685zm2.5735 7.1712-1.0294-2.8685h2.6175l.9776 2.8685zm.5147 1.4343 1.0294 2.8685h2.9919l1.0294-2.8685zm5.5654-1.4343 1.0294-2.8685h-2.6175l-.9775 2.8685zm1.5441-4.3027h-2.6434l.9775-2.8685h2.6953zm-1.1771-4.3028h2.7212l1.5441-4.3027h-2.7991z"/><path d="m45.0549 44.3027h-2.7213l.5147 1.4343h2.6954zm6.3252 1.4343h2.6953l.5147-1.4343h-2.7212z"/><path d="m46.5211 48.6055h-2.6434l.5147 1.4342h2.6175zm3.3927 1.4342h2.6175l.5147-1.4342h-2.6435z"/><path d="m47.9875 52.9082h-2.5656l.5147 1.4343h5.0506l.5147-1.4343h-2.5656l-.378 1.1093h-.1928z"/><path d="m40.2441 40h2.7991l1.4663 4.3027h-2.7212l.5147 1.4343h2.6953l.9775 2.8685h-2.6434zm3.603 10.0397h2.6175l.9775 2.8685h-2.4028l.5147 1.4343h4.8878l-1.0294 2.8685h-2.9918zm7.1095 2.8685 1.0294-2.8685h-2.6175l.4887-1.4342h2.6435l1.0294-2.8685h-2.6953l.4887-1.4343h2.7213l1.5441-4.3027h-2.7991l-4.7769 14.0175h.1628l.378-1.1093z"/><path d="m44.8106 44.3027h-2.7212l.5147 1.4343h2.6953zm6.3252 1.4343h2.6954l.5147-1.4343h-2.7213z"/><path d="m46.277 48.6055h-2.6435l.5147 1.4342h2.6176zm3.3926 1.4342h2.6175l.5147-1.4342h-2.6434z"/><path d="m47.7432 52.9082h-2.5656l.5147 1.4343h5.0507l.5147-1.4343h-2.5656l-.3781 1.1093h-.1927z"/><path d="m40 40h2.7991l1.4663 4.3027h-2.7213zm2.0588 5.737 1.0294 2.8685h2.6435l-.9775-2.8685zm2.5735 7.1712-1.0294-2.8685h2.6175l.9776 2.8685zm.5147 1.4343 1.0294 2.8685h2.9919l1.0294-2.8685zm5.5654-1.4343 1.0294-2.8685h-2.6175l-.9775 2.8685zm1.5441-4.3027h-2.6434l.9775-2.8685h2.6953zm-1.1771-4.3028h2.7212l1.5441-4.3027h-2.7991z"/></g></svg>